<svg xmlns="http://www.w3.org/2000/svg" width="32" height="32">
    <!-- OBJECTS -->
    <symbol id="icon-water-huracane" viewBox="0 0 512 512">
        <path style="opacity:0.15100002;fill:#000000;fill-rule:evenodd;stroke:#000000;stroke-width:2.39045787px;stroke-linecap:butt;stroke-linejoin:miter;stroke-opacity:1"
              d="M 286.5532,5.6625029 A 286.55318,268.62257 0 0 1 6.2858126e-6,274.28507 286.55318,268.62257 0 0 1 -286.55317,5.6625029 286.55318,268.62257 0 0 1 6.2858126e-6,-262.96003 286.55318,268.62257 0 0 1 286.5532,5.6625029 Z"
              class="shadow" />
        <path style="fill:#428BBA;fill-opacity:1;stroke:#ffffff;stroke-width:20;stroke-linejoin:round;stroke-miterlimit:4;stroke-dasharray:none;stroke-opacity:1"
              d="M -136.9174,230.62687 C 10.808805,115.40361 -243.1673,171.45086 -269.40552,81.914166 c 162.39803,-5.208378 -13.18896,-100.404846 22.72311,-194.822476 119.44352,96.311233 34.46445,-65.57762 156.460466,-135.01026 -23.163076,159.727427 112.03682,-34.73032 203.777504,15.20894 -122.7109316,120.63338 97.66759,27.33471 140.76201,128.98094 -153.78141,7.844953 28.19258,91.961927 -3.52164,211.3665 C 132.19952,-3.4570151 200.40476,214.11897 98.319741,249.34132 117.58414,89.433233 -46.700699,268.88344 -136.9174,230.62687 Z"
              class="rotateble blue-wave"  />
        <path style="fill:#428BBA;fill-opacity:1;stroke:#ffffff;stroke-width:20;stroke-linejoin:round;stroke-miterlimit:4;stroke-dasharray:none;stroke-opacity:1"
              d="M 75.385918,135.88636 C -7.184262,71.956661 134.7733,103.05354 149.43891,53.375611 c -90.770852,-2.88978 7.37185,-55.7079504 -12.70087,-108.09399 -66.761832,53.4366795 -19.26358,-36.38465 -87.452102,-74.908181 12.94678,88.622081 -62.62193,-19.26954 -113.89954,8.43842 68.58814,66.931411 -54.590398,15.16621 -78.677618,71.562921 85.954688,4.35264 -15.75798,51.0235295 1.96839,117.27316 66.288368,-61.6391005 28.16568,59.079299 85.225148,78.621819 -10.76766,-88.722319 81.05783,10.84262 131.4836,-10.3834 z"
              class="rotateble blue-wave"  />
        <path style="fill:#ffffff;fill-opacity:1;stroke:none;stroke-width:16.90536499;stroke-linejoin:round;stroke-miterlimit:4;stroke-dasharray:none;stroke-opacity:1"
              d="m -71.040943,3.0689922 c 26.321253,-3.90413899 39.783568,-25.7846832 21.620054,-44.4897122 22.306241,12.947897 47.3603897,6.107943 52.4109321,-19.054333 1.729608,24.896012 28.4315829,35.922368 52.2348269,16.566906 C 36.884995,-18.343108 46.974428,-2.3306288 73.5969,1.6366872 46.842728,8.3624352 41.624517,19.440296 57.440594,51.027577 32.062431,27.440938 9.5579081,39.96834 3.8297181,67.163521 0.27013571,39.866505 -29.65341,34.149186 -51.929563,50.499117 -35.113391,28.497477 -44.35336,6.2077092 -71.040943,3.0689922 Z"
              class="rotateble white-wave" />
    </symbol>
    <!-- TILES -->
    <symbol id="tile-wood-plank" viewBox="0 0 512 512">
        <rect style="opacity:1;fill:#98632d;fill-opacity:1;stroke:none" width="507.66101" height="114.28376" x="3.7035728" y="1.7201703" ry="6.8571153" />
        <path style="opacity:1;fill:#7e4f2f;fill-opacity:0.94117647;stroke:none" d="m 17.898352,39.184307 105.824248,-3.366184 33.89811,-16.316832 45.31701,-0.703407 26.06062,14.286514 212.58807,3.693844 c 1.80261,0.03132 67.8637,-11.738354 67.8637,-11.738354 l 0,7.844618 -0.01,15.991837 -15.8959,-9.595884 -34.7292,6.398499 c 0,0 -11.376,5.92317 -12.1228,5.931857 L 246.22649,52.563573 204.80803,31.843019 152.25082,33.924517 114.6647,55.742735 17.514692,56.635613 C 15.712002,56.652181 2.4092623,55.063475 2.4406823,52.236232 l 0.13559,-12.201185 c 0.0314,-2.827244 13.5192197,-0.840502 15.3220797,-0.85074 z"
        />
        <path style="opacity:1;fill:#7e4f2f;fill-opacity:0.94117647;stroke:none" d="m 136.07971,92.02895 28.80523,4.172694 65.83945,-7.19987 c 0.52125,-0.057 55.18775,-21.166235 55.18775,-21.166235 L 323.5284,62.179436 298.66105,61.626659 255.92231,62.262857 239.4575,72.253342 189.51424,86.689698 142.26254,85.20872 115.10199,69.771699 56.665763,69.468626 Z"
        />
        <path style="opacity:1;fill:#9d713b;fill-opacity:0.94117647;stroke:none" d="M 479.48214,73.001223 332.04606,72.402908 c -0.40453,-0.0016 -15.95725,-3.490317 -15.95725,-3.490317 l 2.19709,9.758723 c 7.02174,6.43229 13.59508,7.705573 21.40355,9.528814 29.66228,-4.99918 112.29395,-0.522365 139.55173,-0.391378 l 7.41098,-11.586316 z"
        />
        <path style="opacity:1;fill:#e6be8b;fill-opacity:0.94117647;stroke:none" d="M 424.44286,78.373034 C 388.21815,78.599769 321.49407,74.915049 321.49407,74.915049 l 60.39889,5.923667 36.95144,1.853185 62.09436,-4.676415 z"
        />
        <ellipse style="opacity:1;fill:#60391e;fill-opacity:0.94117647;stroke:none" cx="179.42281" cy="58.887875" rx="29.357243" ry="6.1954446" />
        <rect style="opacity:1;fill:#98632d;fill-opacity:1;stroke:none" width="391.7912" height="114.28347" x="118.23011" y="-508.24765" ry="6.8570981" transform="matrix(0.00460449,0.9999894,-0.99999624,0.00274247,0,0)" />
        <path style="opacity:1;fill:#7e4f2f;fill-opacity:0.94117647;stroke:none" d="m 471.37666,127.89254 3.74221,81.66055 16.43718,26.11611 0.86444,34.97144 -14.19381,20.15144 -2.93838,164.07482 c -0.0249,1.39125 11.97944,52.34157 11.97944,52.34157 l -7.84457,0.0215 -15.99178,0.0361 9.53935,-12.29395 -6.52187,-26.7847 c 0,0 -5.96356,-8.76318 -5.97491,-9.33949 l -1.66511,-154.70667 20.57324,-32.02149 -2.26825,-40.55528 -21.95164,-28.94723 -1.23811,-74.973 c -0.023,-1.39118 1.51846,-11.66192 4.34579,-11.64543 l 12.20159,0.0711 c 2.82734,0.0165 0.88854,10.43115 0.90519,11.82248 z"
        />
        <path style="opacity:1;fill:#7e4f2f;fill-opacity:0.94117647;stroke:none" d="m 418.9523,219.24384 -4.0703,22.24186 7.43379,50.7918 c 0.0588,0.40213 21.36222,42.53307 21.36222,42.53307 l 5.78973,29.0148 0.46441,-19.19286 -0.78807,-32.98185 -10.04893,-12.67932 -14.61374,-38.50407 1.31305,-36.47054 15.34042,-21.00347 0.0954,-45.09894 z"
        />
        <path style="opacity:1;fill:#9d713b;fill-opacity:0.94117647;stroke:none" d="m 439.20021,484.21224 0.0744,-113.78533 c 5.6e-4,-0.3122 3.43358,-12.32457 3.43358,-12.32457 l -9.75085,1.72237 c -6.4073,5.43666 -7.65721,10.51313 -9.45269,16.54431 5.10455,22.87813 0.92139,86.66134 0.88727,107.69787 l 11.61258,5.68765 z"
        />
        <path style="opacity:1;fill:#e6be8b;fill-opacity:0.94117647;stroke:none" d="m 433.63285,441.75045 c -0.35546,-27.95577 3.09213,-79.46014 3.09213,-79.46014 l -5.709,46.62905 -1.72187,28.52233 4.89705,47.90845 z"
        />
        <ellipse style="opacity:1;fill:#60391e;fill-opacity:0.94117647;stroke:none" cx="253.84274" cy="-451.08008" rx="22.656672" ry="6.1954288" transform="matrix(0.00460449,0.9999894,-0.99999624,0.00274247,0,0)" />
        <rect style="opacity:1;fill:#98632d;fill-opacity:1;stroke:none" width="388.30524" height="114.28376" x="-391.52109"  y="-233.25664" ry="6.8571153" transform="matrix(-0.99999992,3.9892e-4,-2.3339131e-4,-0.99999997,0,0)" />
        <path style="opacity:1;fill:#7e4f2f;fill-opacity:0.94117647;stroke:none" d="m 380.7093,195.64063 -80.9432,3.39847 -25.92454,16.32718 -34.6624,0.71724 L 219.2423,201.80495 56.634787,198.17598 C 55.25598,198.14528 4.7292167,209.93504 4.7292167,209.93504 l -0.00153,-7.84461 0.00382,-15.99185 12.1608647,9.59103 26.562551,-6.40909 c 0,0 8.700016,-5.92664 9.271234,-5.93555 l 153.334149,-1.01394 31.68543,20.70792 40.20005,-2.09753 28.74417,-21.82969 74.30894,-0.92252 c 1.37886,-0.0171 11.55437,1.56753 11.53099,4.39478 l -0.10086,12.20123 c -0.0233,2.82725 -10.34052,0.84462 -11.71952,0.85541 z"
        />
        <path style="opacity:1;fill:#7e4f2f;fill-opacity:0.94117647;stroke:none" d="m 290.30114,142.83205 -22.03383,-4.1639 -50.3583,7.21996 c -0.39869,0.0572 -42.20766,21.18307 -42.20766,21.18307 l -28.77101,5.66758 19.02093,0.54519 32.69033,-0.64924 12.59145,-9.99551 38.19776,-14.45159 36.14274,1.46655 20.77845,15.42873 44.6974,0.28526 z"
        />
        <path style="opacity:1;fill:#9d713b;fill-opacity:0.94117647;stroke:none" d="m 27.64024,161.96456 112.77263,0.55333 c 0.30942,0.002 12.20637,3.48544 12.20637,3.48544 l -1.68281,-9.75805 c -5.37237,-6.43014 -10.40055,-7.70142 -16.3736,-9.52227 -22.68724,5.00823 -85.892483,0.55662 -106.741739,0.43394 l -5.665884,11.58859 z"
        />
        <path style="opacity:1;fill:#e6be8b;fill-opacity:0.94117647;stroke:none" d="m 69.738023,156.57596 c 27.707892,-0.23779 78.745387,3.42656 78.745387,3.42656 l -46.19994,-5.90523 -28.264245,-1.84191 -47.494311,4.69537 z"
        />
        <ellipse style="opacity:1;fill:#60391e;fill-opacity:0.94117647;stroke:none" cx="-257.11505" cy="-176.08893" rx="22.455086"  ry="6.1954446" transform="matrix(-0.99999992,3.9892e-4,-2.3339131e-4,-0.99999997,0,0)" />
        <rect style="opacity:1;fill:#98632d;fill-opacity:1;stroke:none" width="386.77084" height="114.28376"  x="4.2226624" y="393.49564" ry="6.8571153" />
        <path style="opacity:1;fill:#7e4f2f;fill-opacity:0.94117647;stroke:none" d="m 15.037218,430.95977 80.624141,-3.36618 25.825901,-16.31683 34.52559,-0.70341 19.85476,14.28651 161.96411,3.69385 c 1.37336,0.0313 51.70321,-11.73836 51.70321,-11.73836 l 0,7.84462 -0.008,15.99184 -12.11058,-9.59588 -26.45908,6.39849 c 0,0 -8.66702,5.92317 -9.23598,5.93186 l -152.72848,0.95276 -31.55541,-20.72055 -40.04167,2.08149 -28.635678,21.81822 -74.015512,0.89288 c -1.373413,0.0166 -11.508349,-1.57214 -11.4844111,-4.39938 l 0.1033018,-12.20119 c 0.023923,-2.82724 10.2998653,-0.8405 11.6734073,-0.85074 z"
        />
        <path style="opacity:1;fill:#7e4f2f;fill-opacity:0.94117647;stroke:none" d="m 105.07585,483.80442 21.94579,4.17269 50.16099,-7.19987 c 0.39712,-0.057 42.0458,-21.16623 42.0458,-21.16623 l 28.65864,-5.65611 -18.94565,-0.55277 -32.56129,0.63619 -12.54402,9.99049 -38.05019,14.43635 -35.99957,-1.48097 -20.692761,-15.43702 -44.520708,-0.30308 z"
        />
        <path style="opacity:1;fill:#9d713b;fill-opacity:0.94117647;stroke:none" d="M 366.70328,464.77669 254.3764,464.17837 c -0.3082,-0.002 -12.15732,-3.49031 -12.15732,-3.49031 l 1.67389,9.75872 c 5.34964,6.43229 10.35766,7.70557 16.30669,9.52881 22.59875,-4.99918 85.5532,-0.52236 106.32004,-0.39137 l 5.64619,-11.58632 z"
        />
        <path style="opacity:1;fill:#e6be8b;fill-opacity:0.94117647;stroke:none" d="m 324.7706,470.1485 c -27.59846,0.22674 -78.43343,-3.45798 -78.43343,-3.45798 l 46.01601,5.92366 28.15213,1.85319 47.30772,-4.67642 z"
        />
        <ellipse style="opacity:1;fill:#60391e;fill-opacity:0.94117647;stroke:none" cx="138.09758" cy="450.66333" rx="22.366354" ry="6.1954446" />
        <rect style="opacity:1;fill:#98632d;fill-opacity:1;stroke:none" width="385.2406"  height="152.63531"  x="7.286993" y="237.02127" ry="9.1582384" />
        <path style="opacity:1;fill:#7e4f2f;fill-opacity:0.94117647;stroke:none" d="m 18.058746,287.05772 80.305151,-4.49582 25.723713,-21.79246 34.389,-0.93945 19.7762,19.0808 161.32332,4.93343 c 1.36792,0.0418 51.49864,-15.67753 51.49864,-15.67753 l 0,10.47713 -0.008,21.3584 -12.06266,-12.81608 -26.3544,8.54572 c 0,0 -8.63272,7.91088 -9.19943,7.92248 l -152.12423,1.27248 -31.43056,-27.67399 -39.88325,2.78001 -28.522377,29.14002 -73.722669,1.1925 c -1.367979,0.0222 -11.4628162,-2.09971 -11.4389731,-5.87573 L 6.431524,288.19395 c 0.023828,-3.77602 10.259114,-1.12255 11.627222,-1.13623 z"
        />
        <path style="opacity:1;fill:#7e4f2f;fill-opacity:0.94117647;stroke:none" d="m 107.74114,357.63606 21.85896,5.57299 49.96253,-9.61602 c 0.39556,-0.0761 41.87945,-28.26925 41.87945,-28.26925 l 28.54526,-7.55418 -18.8707,-0.73828 -32.43246,0.84969 -12.49439,13.34311 -37.89964,19.28094 -35.85714,-1.97797 -20.610897,-20.61741 -44.34456,-0.40477 z"
        />
        <path style="opacity:1;fill:#9d713b;fill-opacity:0.94117647;stroke:none" d="M 368.33346,332.22297 256.451,331.42388 c -0.30698,-0.003 -12.10923,-4.66161 -12.10923,-4.66161 l 1.66727,13.03358 c 5.32848,8.59085 10.31668,10.29142 16.24217,12.72651 22.50934,-6.67681 85.21472,-0.69767 105.89939,-0.52272 l 5.62386,-15.47446 z"
        />
        <path style="opacity:1;fill:#e6be8b;fill-opacity:0.94117647;stroke:none" d="m 326.56668,339.39748 c -27.48927,0.30281 -78.1231,-4.61843 -78.1231,-4.61843 l 45.83394,7.91155 28.04074,2.47507 47.12056,-6.24573 z"
        />
        <ellipse style="opacity:1;fill:#60391e;fill-opacity:0.94117647;stroke:none" cx="140.63223" cy="313.37344" rx="22.277861" ry="8.2745237" />
    </symbol>
    <symbol id="tile-cave-blocks" viewBox="0 0 512 512">
        <rect style="opacity:1;fill:#373b41;fill-opacity:0.94117647;stroke:none"
                id="rect5222"
                width="515.44489"
                height="513.91083"
                x="-1.5340623"
                y="-0.37676796"
                ry="0" />
        <rect style="opacity:0.714;fill:#ede195;fill-opacity:0.94117647;stroke:#908c4d;stroke-width:20;stroke-linejoin:round;stroke-miterlimit:4;stroke-dasharray:none;stroke-opacity:1"
                id="rect5269"
                width="158.00841"
                height="153.40622"
                x="9.2043734"
                y="8.8276052"
                ry="29.147181" />
        <rect style="opacity:0.714;fill:#ede195;fill-opacity:0.94117647;stroke:#908c4d;stroke-width:20;stroke-linejoin:round;stroke-miterlimit:4;stroke-dasharray:none;stroke-opacity:1"
                id="rect5269-7"
                width="138.06561"
                height="151.87216"
                x="186.38855"
                y="8.8276052"
                ry="29.147181" />
        <rect style="opacity:0.714;fill:#ede195;fill-opacity:0.94117647;stroke:#908c4d;stroke-width:20;stroke-linejoin:round;stroke-miterlimit:4;stroke-dasharray:none;stroke-opacity:1"
                id="rect5269-3"
                width="156.47437"
                height="130.39529"
                x="347.46509"
                y="8.8276043"
                ry="29.147181" />
        <rect style="opacity:0.714;fill:#ede195;fill-opacity:0.94117647;stroke:#908c4d;stroke-width:20;stroke-linejoin:round;stroke-miterlimit:4;stroke-dasharray:none;stroke-opacity:1"
                id="rect5269-74"
                width="131.92937"
                height="153.40622"
                x="183.32042"
                y="179.10851"
                ry="29.147181" />
        <rect style="opacity:0.714;fill:#ede195;fill-opacity:0.94117647;stroke:#908c4d;stroke-width:20;stroke-linejoin:round;stroke-miterlimit:4;stroke-dasharray:none;stroke-opacity:1"
                id="rect5269-5"
                width="173.34904"
                height="173.34903"
                x="336.72665"
                y="163.7679"
                ry="29.147181" />
        <rect style="opacity:0.714;fill:#ede195;fill-opacity:0.94117647;stroke:#908c4d;stroke-width:20;stroke-linejoin:round;stroke-miterlimit:4;stroke-dasharray:none;stroke-opacity:1" width="158.00841"
                height="153.40622"
                x="8.4373398"
                y="177.57443"
                ry="29.147181" />
        <rect style="opacity:0.714;fill:#ede195;fill-opacity:0.94117647;stroke:#908c4d;stroke-width:20;stroke-linejoin:round;stroke-miterlimit:4;stroke-dasharray:none;stroke-opacity:1" width="158.00841"
                height="153.40622"
                x="2.3010905"
                y="350.92349"
                ry="29.147181" />
        <rect style="opacity:0.714;fill:#ede195;fill-opacity:0.94117647;stroke:#908c4d;stroke-width:20;stroke-linejoin:round;stroke-miterlimit:4;stroke-dasharray:none;stroke-opacity:1" width="334.42557"
                height="145.73592"
                x="178.71823"
                y="357.05969"
                ry="29.147181" />
        <path style="opacity:0.71399997;fill:#131000;fill-opacity:0.94117647;stroke:none;stroke-width:20;stroke-linejoin:round;stroke-miterlimit:4;stroke-dasharray:none;stroke-opacity:1" d="m 367.02438,398.86292 18.79226,-50.62405 6.90328,66.34819 43.72078,97.79646 -69.0328,-83.60639 -197.12699,15.34063 z"
                />
        <path style="opacity:0.75899999;fill:#64ab26;fill-opacity:0.94117647;stroke:none;stroke-width:20;stroke-linejoin:round;stroke-miterlimit:4;stroke-dasharray:none;stroke-opacity:1" d="m 335.03372,91.599798 20.22198,42.338952 53.94546,19.07144 -67.45027,16.77033 -15.17378,66.26449 -18.89473,-49.89964 -49.45016,-17.26504 62.41949,-17.2479 z"
                 />
    </symbol>



</svg>
