<svg xmlns="http://www.w3.org/2000/svg" width="32" height="32">
    <!-- icons here -->
    <symbol id="icon-flame" viewBox="0 0 500 500">
        <path fill="#FF8360" d="M245.05 15.514c34.29 48.815-23.535 320.54-90.302 136.72C106.796 325.11 38.956 332.518 38.876 252.55c-71.6 79.31 43.824 220.767 87.376 243.935h52.127c-45.92-40.016-76.784-78-82.176-135.968 47.312 9.423 71.855 20.96 81.263-62.048 60.736 86.59 100.944-49.376 137.184-107.12-1.647 40.32-3.343 93.456 22.848 129.888 8.736 12.143 33.232 16.11 54.736 15.807-9.92 16.08-44.848 69.376-17.008 89.2 27.84 19.824 33.072-.384 25.856 16.176-13.264 20.88-22.992 39.375-59.072 54.063h56.064c59.44-18.72 111.807-91.663 94.607-135.535-22.015 18.657-43.774 30.897-61.294 29.537 49.12-72.08 37.84-145.903 14.752-221.342-20.224 72.383-33.488 82.495-54.576 99.52 29.104-68.657-85.44-214.448-146.51-253.15z" />
    </symbol>
    <symbol id="icon-drop" viewBox="0 0 500 500">
        <path fill="#529BCA" d="M263.844 40.344C234.1 213.202 145.594 248.03 145.594 369.22c0 60.804 60.106 105.5 118.25 105.5 59.45 0 115.937-41.803 115.937-99.533 0-116.332-85.2-162.312-115.936-334.843zm-58.28 217.094c-27.963 75.53-5.105 154.567 54.25 179.375 15.185 6.348 31.724 7.714 47.905 6.28-116.134 49.787-185.836-79.816-102.158-185.656z"  fill-rule="evenodd"/>
    </symbol>
    <symbol id="icon-cloud-ring" viewBox="0 0 500 500">
        <path fill="#529BCA" d="M245.22 31.387c-70.06.15-134.335 31.794-168.1 90.28-5.223 9.045-8.83 18.417-12.24 28C122.157 70.996 219.372 40.6 292.07 82.57c78.822 45.506 98.658 158.253 44.405 252.223-25.855 44.782-63.857 77.026-105.15 93.723 95.38 29.26 195.698-.307 240.96-78.704 54.027-93.574 8.905-220.773-100.055-283.68-40.858-23.59-84.976-34.837-127.01-34.747zm-24.763 49.945c-40.357.123-84.108 16.545-122.254 49.408C19.45 198.588-6.02 311.192 41.32 382.244c4.577 6.87 9.9 12.55 15.434 18.137C20.79 331.21 31.144 244.728 83.69 199.46c56.97-49.083 141.443-31.06 188.98 40.292 22.654 34.003 32.705 73.913 30.926 111.78 51.07-67.13 63.006-155.83 23.347-215.356h-.002C302.534 99.54 263.42 81.2 220.458 81.332zm-63.36 107.71c-26.76.083-53.228 9.95-73.05 29.65-48.848 48.55-47.855 142.19 1.144 205.94 49 63.75 128.323 76.074 177.17 27.524-47.107 29.645-84.88 26.3-128.778-20.916-39.45-42.43-24.435-122.8 24.62-171.554 23.376-23.234 51.128-35.812 77.675-37.696-21.48-22.033-50.296-33.034-78.78-32.947z" />
    </symbol>
    <symbol id="icon-fluffy-cloud" viewBox="0 0 500 500">
        <path fill="#529BCA" d="M225.438 18.156c-15.105.14-32.56 2.526-52.407 7.844-35.26 9.45-65.035 28.973-88.374 54.844-17.668 13.755-36.98 46.39-51.437 85.97-16.415 55.046-16.447 120.304-2.157 188.155C34.84 372.91 44.14 385.08 57.5 392.093c13.36 7.01 31.353 8.776 52.688 3.062 13.473-3.608 23.028-12.44 28.812-22.75 5.784-10.31 7.226-22.05 5.313-29.187-4.335-16.17-19.078-25.202-32.313-21.658-9.02 2.417-13.433 10.27-13.5 16.97-.034 3.35.976 6.065 2.75 7.968 1.774 1.903 4.493 3.497 10 3.594l-.344 18.687c-9.57-.168-17.87-3.693-23.312-9.53s-7.856-13.482-7.78-20.906c.148-14.85 10.064-30.185 27.342-34.813 24.03-6.434 48.515 9.84 55.22 34.845 3.605 13.45.802 29.11-7.095 43.188-7.896 14.077-21.48 26.63-40.25 31.656-4.174 1.117-8.282 1.972-12.343 2.624 98.875 90.13 248.893 110.83 349.344 9.72 18.164-18.283 31.29-40.735 38.595-65.127.02-.063.044-.124.063-.187 9.94-40.298 4.91-84.342-17.5-123.156-44.153-76.474-142.198-106.276-193.094-78.28-57.27 23.11-71.688 56.892-76.625 81.874-21.635 61.008 4.65 135.55 67.686 156.375 43.724 14.443 97.45-5.348 111.656-51.25 9.364-30.262-4.29-66.992-35.437-75.532-9.543-2.616-20.58-1.58-29.438 2.658-8.858 4.237-15.41 11.2-17.78 21.093-1.297 5.42-.55 11.935 1.906 16.814 2.455 4.88 5.99 8.01 11.25 8.97 1.883.342 4.31-.074 6.28-.845-2.017-.512-3.482-1.562-4.343-2.345-1.39-1.288-3.168-3.693-3.656-6.563-.78-4.998 2.214-9.82 5.03-11.906 2.818-2.086 5.51-2.925 8.845-2.906 6.21.034 11.453 3.97 14.03 8.125 2.577 4.154 3.51 8.625 2.97 13.28v.033c-.982 8.283-6.386 14.75-12.533 18.187-6.146 3.438-13.153 4.556-19.968 3.313-11.435-2.087-20.017-9.842-24.595-18.938-4.578-9.096-5.78-19.644-3.406-29.563 3.774-15.756 14.824-27.336 27.905-33.593 13.08-6.257 28.324-7.683 42.438-3.813 42.675 11.702 60.497 59.787 48.343 99.064-17.637 56.99-82.493 80.936-135.375 63.47-68.184-22.526-99.163-97.1-84.28-163.44-18.918-16.436-34.28-39.526-40.47-62.624-14.74-55.014 32.67-114.382 82.19-130.563 42.26-13.775 79.575 5.404 60.124 39.094 33.446-28.243 15.37-79.8-57.406-79.124z" />
    </symbol>
    <symbol id="icon-mite-alt" viewBox="0 0 500 500">
        <path fill="#000000" d="M370.06 77.686c-10.644.085-21.42 1.936-31.816 5.86-14.63 5.53-17.103 17.274-12.506 23.895 14.11 29.535 18.452 62.364 3.78 90.1-17.168-25.923-43.89-42.415-73.518-42.415-29.626 0-56.347 16.496-73.516 42.42-14.672-27.734-10.335-60.56 3.772-90.09 4.606-6.62 2.138-18.37-12.5-23.894-41.58-15.69-89.25 1.756-110.16 32.82 30.66-8.7 66.99-27.915 103.05-7.155.675.39 1.342.735 1.997 1.045-13.33 33.103-15.584 70.885 5.423 102.39-3.543 7.674-6.336 15.914-8.263 24.588-26.844-17.095-39.352-48.493-41.52-81.71l-.17.01c-.018-8.626-13.526-18.352-30.46-12.02C52.03 159.1 27.61 203.606 32.32 240.76c17.003-26.187 38.658-65.485 77.91-74.688 4.368 35.197 20.396 69.337 53.086 87.086-.373 4.018-.572 8.1-.572 12.246 0 2.983.097 5.85.283 8.614-25.055-5.735-46.175-23.645-61.806-46.41-.038-.06-.084-.12-.124-.18-.353-.516-.72-1.02-1.067-1.54l-.08.05c-5.773-6.48-18.946-7.902-28.93 4.216-28.26 34.29-25.08 73.666-13.86 107.116 1.65-31.567 8.098-64.37 38.725-91.67 17.705 22.113 41.41 39.493 69.43 44.134 2.336 9.984 6.2 18.202 11.322 25.02-21.07 2.364-43.31-3.103-63.85-13.248l-.03.064c-7.296-3.463-17.49.828-19.402 16.125-5.475 43.83 14.19 87.256 39.99 101.73-13.334-23.954-23.805-58.905-13.8-98.31.023-.09.035-.177.057-.267 22.498 8.685 47.02 12.214 70.2 6.79 4.84 3.53 10.313 6.46 16.288 8.858-9.288 2.466-18.875 12.258-19.66 26.29-1.815 32.91 28.185 46.034 51.105 39.704-18.345-8.55-27.09-37.8-13.695-52.14-.348-3.926-1.426-6.985-3.006-9.262C231.57 343.6 243.418 344.8 256 344.8c13.92 0 26.943-1.463 38.55-4.556-1.927 2.343-3.25 5.674-3.646 10.106 13.395 14.34 4.652 43.59-13.693 52.14 22.92 6.33 52.92-6.795 51.104-39.705-.827-14.944-11.646-25.085-21.457-26.68 5.61-2.327 10.77-5.13 15.358-8.474 23.173 5.414 47.688 1.882 70.18-6.802.023.097.035.19.06.287 9.99 39.405-.466 74.34-13.8 98.31 25.8-14.46 45.465-57.885 39.99-101.73-1.912-15.3-12.11-19.59-19.405-16.123l-.04-.082c-20.533 10.14-42.762 15.61-63.825 13.252 5.114-6.814 8.976-15.025 11.31-25.002 28.02-4.637 51.726-22.026 69.43-44.14 30.627 27.3 37.074 60.104 38.725 91.656 11.22-33.45 14.4-72.81-13.86-107.115-9.984-12.11-23.157-10.683-28.93-4.2l-.08-.053c-.347.52-.713 1.025-1.066 1.54-.04.062-.086.12-.125.182-15.633 22.765-36.754 40.682-61.81 46.413.188-2.765.286-5.634.286-8.62 0-4.146-.2-8.233-.572-12.253 32.683-17.75 48.722-51.882 53.08-87.09 39.246 9.22 60.9 48.513 77.9 74.684 4.71-37.155-19.71-81.658-61.334-97.228-16.928-6.326-30.434 3.41-30.447 12.035l-.182-.01c-2.153 33.22-14.666 64.602-41.503 81.698-1.926-8.672-4.72-16.91-8.26-24.582 21.006-31.508 18.75-69.293 5.417-102.398.656-.31 1.324-.656 2-1.047 36.06-20.76 72.405-1.53 103.05 7.155-15.682-23.3-46.416-38.936-78.345-38.68zM210.58 244.42c19.455 0 35.22 15.766 35.22 35.22 0 19.44-15.765 35.22-35.22 35.22-19.44 0-35.22-15.764-35.22-35.22 0-19.44 15.765-35.22 35.22-35.22zm90.84 0c19.44 0 35.22 15.766 35.22 35.22 0 19.44-15.765 35.22-35.22 35.22-19.44 0-35.22-15.764-35.22-35.22 0-19.44 15.765-35.22 35.22-35.22zm-97.006 8.97c-9.72 0-17.61 7.89-17.61 17.61 0 9.72 7.89 17.61 17.61 17.61 9.72 0 17.61-7.89 17.61-17.61 0-9.72-7.89-17.61-17.61-17.61zm90.842 0c-9.72 0-17.61 7.89-17.61 17.61 0 9.72 7.89 17.61 17.61 17.61 9.72 0 17.61-7.89 17.61-17.61 0-9.72-7.89-17.61-17.61-17.61zm-69.182 35.43c-4.86 0-8.804 3.945-8.804 8.805 0 4.86 3.944 8.805 8.804 8.805s8.807-3.945 8.807-8.805c0-4.86-3.946-8.805-8.806-8.805zm90.84 0c-4.86 0-8.805 3.945-8.805 8.805 0 4.86 3.944 8.805 8.804 8.805s8.807-3.945 8.807-8.805c0-4.86-3.946-8.805-8.806-8.805z" />
    </symbol>
</svg>