<svg xmlns="http://www.w3.org/2000/svg" width="32" height="32">
    <!-- icons here -->
    <symbol id="icon-spell" viewBox="0 0 512 512">
        <path d="m204.1534,21c12.2265,7.0346 24.415,14.1493 36.5716,21.15 3.0076,2.0246 5.9207,4.1822 8.8125,6.3156-4.1285,2.5852-8.2011,5.2585-12.0438,8.225-8.389,6.3999-16.3447,13.8126-21.15,24.5281-5.3345,12.4564-6.1997,27.2596-5.875,41.4187 .1549,9.172.8879,18.3957 1.9096,27.7594-5.8834-7.3191-12.0029-14.2801-18.3596-20.8562-9.7826-10.2408-20.7594-20.0808-33.3404-25.1156-10.9745-4.1802-22.0012-3.7562-32.4596-2.35-4.8946.6297-9.7144,1.5286-14.5404,2.6437 .5405-3.5999 1.2055-7.2617 1.9091-10.8687 3.6467-13.5454 7.3437-27.0659 11.0159-40.6844-5.3693,13.2653-10.7616,26.465-16.1568,39.8031-1.4683,4.4799-2.7302,9.0944-3.9654,13.6594-4.473,1.2157-8.9742,2.5249-13.3653,3.9656-13.3382,5.3938-26.6833,10.6403-39.95,16.0094 13.6187-3.6712 27.2844-7.37 40.8307-11.0156 3.5589-.6952 7.0214-1.2261 10.5751-1.7625-1.0909,4.747-2.0238,9.4318-2.6433,14.2469-1.4062,10.4571-1.6821,21.4843 2.4967,32.4594 5.036,12.5799 14.8736,23.5585 25.1159,33.3406 6.5748,6.357 13.536,12.6234 20.8557,18.5063-9.3215-1.0132-18.4804-1.7551-27.6125-1.9094-14.1587-.3252-28.8157.3938-41.2716,5.7281-10.716,4.8056-18.4221,12.7613-24.8216,21.15-2.992,3.8751-5.7674,8.0258-8.3721,12.1906-2.1314-2.8936-4.144-5.8048-6.1688-8.8125-7.0006-12.1564-14.115-24.3458-21.15-36.5719 5.5845,13.1774 11.2725,26.4106 16.8908,39.6562 2.1047,4.1605 4.2662,8.1498 6.6092,12.1906-2.3039,4.0236-4.3747,8.2135-6.4625,12.3375-5.617,13.2463-11.3077,26.3326-16.8908,39.5094 7.0336-12.2256 14.0041-24.4151 21.0033-36.5719 2.0027-2.9725 4.0623-5.954 6.1688-8.8125 2.6203,4.1429 5.383,8.1722 8.3721,12.0437 6.4,8.3895 14.1056,16.4928 24.8216,21.2969 12.4559,5.3355 26.9663,6.1993 41.125,5.875 9.0908-.1542 18.3328-.9042 27.6125-1.9094-7.2699,5.8488-14.1747,11.8954-20.7091,18.2125-10.2423,9.7821-20.0799,20.7607-25.1159,33.3406-4.1788,10.9751-3.9024,22.0022-2.4967,32.4594 .6248,4.8555 1.5398,9.7543 2.6433,14.5406-3.5537-.5386-7.0162-1.2142-10.5751-1.9094-13.5463-3.6456-27.212-7.198-40.8307-10.8688 13.2662,5.369 26.6109,10.7624 39.95,16.1562 4.4307,1.4533 8.8515,2.7651 13.3653,3.9656 1.2168,4.4742 2.5258,8.8265 3.9654,13.2188 5.3951,13.3381 10.787,26.6847 16.1568,39.95-3.6712-13.6185-7.3692-27.2859-11.0159-40.8313-.6861-3.5179-1.2309-6.917-1.7625-10.4281 4.7822,1.0768 9.5428,1.8728 14.3937,2.4969 10.4585,1.4062 21.4851,1.6833 32.4596-2.4969 12.5805-5.0352 23.5578-14.7276 33.3404-24.9688 6.3169-6.5347 12.3634-13.4397 18.2125-20.7094-1.0053,9.2794-1.7559,18.5214-1.9096,27.6125-.3243,14.158.6875,28.6694 6.0221,41.125 4.8048,10.7163 12.7614,18.2754 21.15,24.675 3.8399,2.9648 7.7893,5.7694 11.8971,8.3719-2.8609,2.1041-5.6926,4.1671-8.6659,6.1688-12.1551,7.0011-24.3474,14.115-36.5716,21.15 13.175-5.5843 26.4111-11.2728 39.6558-16.8906 4.1247-2.087 8.1845-4.2883 12.1909-6.6094 4.0415,2.3438 8.177,4.504 12.3375,6.6094 13.2451,5.6171 26.3341,11.308 39.5092,16.8906-12.2238-7.0334-24.4156-14.0032-36.5717-21.0031-3.0432-2.049-5.8881-4.3056-8.8125-6.4625 4.151-2.6256 8.1648-5.2297 12.0437-8.225 8.3891-6.3999 16.4923-13.9581 21.2971-24.675 5.3355-12.4549 6.1988-27.1136 5.875-41.2719-.1549-9.0491-.9118-18.2292-1.9095-27.4656 5.8491,7.2697 12.0418,14.1747 18.3596,20.7094 9.7812,10.2412 20.7609,19.9335 33.3404,24.9688 10.975,4.1802 22.0035,3.9031 32.4596,2.4969 4.8118-.6188 9.502-1.4325 14.2467-2.4969-.5355,3.5111-1.0754,6.9102-1.7626,10.4281-3.6443,13.5454-7.1989,27.2127-10.8687,40.8312 5.3679-13.2653 10.6159-26.6119 16.0096-39.95 1.4401-4.3922 2.7735-8.7446 3.9654-13.2188 4.5153-1.2006 9.0813-2.5123 13.5125-3.9656 13.3377-5.3938 26.539-10.7872 39.8029-16.1562-13.6173,3.6707-27.1397,7.2231-40.6841,10.8688-3.6007.7032-7.2757,1.3668-10.8688,1.9094 1.0787-4.7916 2.0186-9.6796 2.6437-14.5406 1.4063-10.4572 1.8312-21.4843-2.3499-32.4594-5.0342-12.5799-14.7284-23.5585-24.9688-33.3406-6.5354-6.3171-13.5863-12.3637-20.8563-18.2125 9.2783,1.0051 18.6694,1.7553 27.7592,1.9094 14.1592.3243 28.6709-.6861 41.125-6.0219 10.7169-4.8041 18.275-12.9085 24.675-21.2969 2.9657-3.8399 5.6231-7.7899 8.225-11.8969 2.1329,2.8912 4.4368,5.9508 6.4625,8.9594 7.0002,12.1558 13.8236,24.2004 20.8567,36.425-5.5827-13.1756-11.1263-26.2643-16.7442-39.5094-2.0868-4.1252-4.3048-8.167-6.6092-12.1906 2.3731-4.0835 4.6276-8.1303 6.7563-12.3375 5.6179-13.2452 11.1592-26.4807 16.7437-39.6562-7.0354,12.2245-14.0022,24.4168-21.0033,36.5719-2.0478,3.0441-4.3057,5.887-6.4625,8.8125-2.5869-4.1282-5.2574-8.2008-8.225-12.0437-6.3991-8.3883-13.959-16.4923-24.675-21.2969-12.4554-5.3349-27.1138-6.0531-41.2717-5.7281-9.0902.1537-18.3342.9042-27.6125,1.9094 7.3194-5.8829 14.2796-12.1493 20.8563-18.5063 10.2404-9.7821 19.9346-20.7608 24.9688-33.3406 4.1811-10.9751 3.7557-22.0023 2.3499-32.4594-.619-4.8116-1.4325-9.5032-2.4966-14.2469 3.5518.5364 7.1619,1.0673 10.7217,1.7625 13.5453,3.6456 27.0677,7.3445 40.6841,11.0156-13.2639-5.369-26.4652-10.6156-39.8029-16.0094-4.3931-1.4407-8.8905-2.7499-13.3654-3.9656-1.2093-4.565-2.6423-9.1794-4.1125-13.6594-5.3937-13.3381-10.6417-26.5378-16.0096-39.8031 3.6698,13.6185 7.2244,27.139 10.8687,40.6844 .7048,3.6009 1.2193,7.275 1.7626,10.8687-4.748-1.0901-9.432-2.0245-14.2467-2.6437-10.4561-1.4062-21.4846-1.8302-32.4596,2.35-12.5795,5.0348-23.5602,14.8748-33.3404,25.1156-6.3576,6.5762-12.4766,13.5371-18.3596,20.8562 1.0128-9.3215 1.7545-18.6278 1.9096-27.7594 .3243-14.1586-.5391-28.8155-5.875-41.2719-4.8048-10.7158-12.9071-18.1274-21.2971-24.5281-3.9062-3.0159-7.99-5.8951-12.1904-8.5188 2.9281-2.1628 5.9112-4.1155 8.9591-6.1688 12.1571-6.9993 24.346-14.1164 36.5717-21.15-13.176,5.5835-26.2627,11.274-39.5092,16.8906-4.206,2.1296-8.3834,4.4016-12.4841,6.7562-4.0232-2.3033-8.0661-4.6695-12.1909-6.7562-13.2451-5.6174-26.3322-11.3062-39.5091-16.8906zm51.8466,32.1656c4.1383,3.329 8.0313,7.0022 11.75,10.7219 7.1605,7.2577 13.7024,14.9306 16.45,24.3813 3.4733,11.0697 2.7251,24.5899 1.3216,38.3344-.9442,8.6415-2.4773,17.3438-4.2591,26.1438-6.7365-20.8229-25.2625-39.95-25.2625-39.95s-18.6088,18.9258-25.4092,39.6562c-1.7686-8.7527-3.1734-17.4013-4.1125-25.9969-1.4034-13.7442-2.1531-27.117 1.3216-38.1875 2.7472-9.4503 9.2882-17.2704 16.45-24.5281 3.689-3.6894 7.6479-7.2687 11.75-10.575zm-127.4875,58.6031c10.1943.0699 20.1625.9882 28.7875,5.7281 10.2841,5.3711 19.326,15.4328 28.0534,26.1438 5.4534,6.7924 10.5962,13.9443 15.5683,21.4438-19.5022-10.049-46.2654-10.2812-46.2654-10.2812s.3524,26.49 10.2812,45.9719c-7.4471-4.9427-14.695-10.003-21.4438-15.4219-10.7098-8.7268-20.6259-17.7681-25.9971-28.0531-4.7395-8.6248-5.6597-18.7386-5.7279-28.9344 0-5.2176.32-10.4772.8812-15.7156 5.2805-.5724 10.6018-.8812 15.8625-.8812zm255.1217,0c5.217,0 10.4763.3172 15.7158.8812 .5658,5.2384.8888,10.4981.8813,15.7156-.072,10.1958-.8432,20.3096-5.5812,28.9344-5.3717,10.2851-15.432,19.3263-26.1438,28.0531-6.8362,5.4897-14.0384,10.7132-21.5904,15.7156 10.0561-19.504 10.2808-46.2656 10.2808-46.2656s-26.4906.3577-45.9717,10.2812c4.9425-7.447 10.0026-14.6955 15.4217-21.4438 8.7264-10.7109 17.7679-20.7726 28.0534-26.1438 8.6249-4.74 18.7384-5.6588 28.9341-5.7281zm-127.6341,74.9062c7.8716,0 15.706,3.0745 21.7375,9.1062l38.4813,38.4813c12.0635,12.0633 12.0635,31.4117 0,43.475l-38.4813,38.6281c-12.0634,12.0633-31.4115,12.0633-43.475,0l-38.6283-38.6281c-12.063-12.0633-12.063-31.4117 0-43.475l38.6283-38.4813c6.0316-6.0317 13.866-9.1062 21.7375-9.1062zm-149.5188,38.6281c6.4658-.0771 13.2493.3267 20.1222,1.0281 8.6531.9456 17.3307,2.6213 26.1433,4.4062-20.8689,6.7043-39.95,25.2625-39.95,25.2625s19.1271,18.6726 39.95,25.4094c-8.8021,1.7821-17.6466,3.3149-26.2904,4.2594-13.7442,1.4028-27.2642,2.152-38.3346-1.3219-9.4507-2.7476-16.976-9.2904-24.2341-16.45-3.7252-3.7139-7.247-7.7566-10.575-11.8969 3.3285-4.1385 6.8563-8.178 10.575-11.8969 7.2587-7.1607 14.9314-13.5561 24.3812-16.3031 5.5357-1.7373 11.7467-2.4197 18.2125-2.4969zm299.1846,0c6.4662.0771 12.5297.9064 18.0654,2.6437 9.4503,2.7471 17.2697,9.1426 24.5279,16.3031 3.6895,3.6889 7.1233,7.6467 10.4284,11.75-3.3041,4.1039-6.7342,8.0658-10.4284,11.75-7.2582,7.1607-15.0785,13.7019-24.5279,16.45-11.0708,3.4744-24.4424,2.7254-38.1875,1.3219-8.6409-.9439-17.3439-2.3309-26.1438-4.1125 20.7764-6.7688 39.8034-25.4094 39.8034-25.4094s-19.1271-18.5257-39.95-25.2625c8.7994-1.7816 17.6485-3.3156 26.2904-4.2594 6.8718-.7019 13.6558-1.2523 20.1221-1.175zm-58.75,85.6281c7.552,5.0024 14.7542,10.2259 21.5904,15.7156 10.7118,8.7268 20.7721,17.7681 26.1438,28.0531 4.738,8.6248 5.5107,18.5917 5.5812,28.7875 0,5.2593-.3056,10.5821-.8813,15.8625-5.2395.5659-10.4988.8896-15.7158.8812-10.1957-.0699-20.3092-.8417-28.9341-5.5812-10.285-5.3715-19.3265-15.2864-28.0534-25.9969-5.4539-6.7927-10.5961-14.0914-15.5683-21.5906 19.4895,9.9727 46.1183,10.2812 46.1183,10.2812s-.2256-26.9084-10.2808-46.4125zm-181.9783.2937c-9.9283,19.4819-10.2812,46.1187-10.2812,46.1187s26.9013-.329 46.4124-10.4281c-5.0022,7.5518-10.2257,14.9006-15.7154,21.7375-8.7274,10.7105-17.7688,20.6254-28.0534,25.9969-8.6249,4.7396-18.5932,5.5119-28.7875,5.5812-5.2607.009-10.5811-.3064-15.8625-.8812-.5722-5.2804-.8812-10.6032-.8812-15.8625 .0721-10.1958.9875-20.1627 5.7279-28.7875 5.3716-10.2851 15.2873-19.3263 25.9971-28.0531 6.7488-5.4189 13.9967-10.4792 21.4438-15.4219zm116.4716,47.8813c1.8043,8.8819 3.3069,17.5705 4.2596,26.2906 1.4039,13.7451 2.0055,27.2635-1.4687,38.3344-2.7485,9.4492-9.2895,17.2687-16.45,24.5281-3.7181,3.7189-7.6097,7.1007-11.75,10.4281-4.1046-3.3043-8.0671-6.7333-11.75-10.4281-7.1609-7.2586-13.849-14.9312-16.5966-24.3813-3.4743-11.0708-2.5789-24.5905-1.175-38.3344 .9442-8.6419 2.3303-17.3438 4.1125-26.1438 6.7685,20.7767 25.4092,39.8031 25.4092,39.8031s18.7483-19.1682 25.4091-40.0969z"  fill-rule="evenodd"/>
    </symbol>
    <symbol id="icon-james-bond" viewBox="0 0 512 512">
        <path d="M146 18.094l-.313 2.125c64.282 9.015 122.25 41.02 164.344 87.686-9.73-1.683-19.447-2.82-29.124-3.437 45.892 39.742 64.438 103.857 45.97 162.374 26.065-18.722 45.427-46.68 52.905-79.875-29.19-77.723-91.352-139.304-168.31-168.876H146zm267.78 0c28.61 77.52 19.385 160.333-18.905 227.5-1.373-9.452-3.22-18.753-5.5-27.875-20.32 47.344-63.415 81.5-113.844 90.655-5.864 1.514-12.016 2.313-18.342 2.313-.555 0-1.105-.02-1.657-.032-2.6.123-5.215.168-7.843.156 25.274 19.373 57.267 29.974 91.032 28 94.646-74.5 135.222-202.835 94.842-320.718h-19.78zm-165.06 86.22c-97.237 5.22-186.08 62.143-230.845 150.03v49.687c21.42-69.797 70.205-124.258 131.344-154.624-4.47 8.54-8.434 17.232-11.94 26.03 25.29-16.378 54.372-24.586 83.47-24.592 30.712-.007 61.428 9.12 87.688 27.375-9.977-30.14-30.508-56.787-59.72-73.907zM216.47 169.5c-32.51 1.025-64.696 13.76-89.782 38.188-27.114 103.46 7.454 216.188 92.468 286.312h31.03c-66.612-45.443-105.777-116.463-112.81-191.22 6.657 7.13 13.634 13.815 20.874 20.095-12.595-57.668 9.992-117.64 58.22-153.375zm40.718 12.844c-30.39 0-54.813 24.448-54.813 54.844 0 30.39 24.423 54.812 54.813 54.812 30.39 0 54.843-24.417 54.843-54.813 0-30.395-24.453-54.843-54.842-54.843zm-75.688 63c-11.335 30.52-11.2 65.08 2.656 97.437 91.515 61.988 214.54 64.646 309.625.25v-23c-59.34 44.63-131.816 59.77-199.75 47.69 6.565-3.436 12.957-7.097 19.158-10.97-61.614-7.084-114.196-50.884-131.688-111.406zm63.063 267.344c.157.102.31.21.468.312l.19-.313h-.657z" />
    </symbol>
    <symbol id="icon-james-bond-2" viewBox="0 0 512 512">
        <path d="m 138.52047,29.863661 -0.33668,2.202287 c 69.14462,9.342879 131.49762,42.511911 176.77584,90.875162 -10.46604,-1.74421 -20.91808,-2.92256 -31.3271,-3.562 49.36352,41.18743 69.31244,107.63431 49.44742,168.27959 28.03668,-19.40292 48.86332,-48.37776 56.907,-82.78008 C 358.58887,124.32881 291.72461,60.508095 208.94511,29.860552 l -70.42464,0 z m 288.03626,0 c 30.77422,80.339429 20.8514,166.164359 -20.33506,235.774249 -1.47686,-9.79577 -3.46358,-19.43506 -5.91606,-28.88883 -21.8571,49.06592 -68.21204,84.46419 -122.45574,93.95216 -6.30758,1.56906 -12.92496,2.39712 -19.72948,2.39712 -0.59698,0 -1.1886,-0.0207 -1.78236,-0.0332 -2.79666,0.12747 -5.60948,0.17411 -8.43628,0.16167 27.18586,20.0776 61.59898,31.06416 97.91814,29.01837 101.80552,-77.20955 145.4509,-210.21213 102.01634,-332.382575 l -21.27626,0 z M 249.01075,119.21951 C 144.41823,124.62936 48.854684,183.62267 0.70342721,274.70615 l 0,51.49413 C 23.743747,253.86474 76.219097,197.42298 141.98297,165.95256 c -4.80814,8.8506 -9.07198,17.85873 -12.8432,26.97671 27.20306,-16.97367 58.48498,-25.4802 89.7841,-25.48641 33.03522,-0.007 66.07474,9.45169 94.32118,28.37063 -10.73172,-31.2362 -32.81578,-58.85236 -64.23754,-76.59502 z m -34.68956,67.55683 c -34.96922,1.06228 -69.58994,14.26046 -96.57358,39.57691 -29.165047,107.22288 8.01786,224.05083 99.46276,296.72526 l 33.37726,0 C 178.93677,475.98274 136.80911,402.37972 129.24411,324.90378 c 7.16056,7.38932 14.66534,14.31746 22.45302,20.82586 -13.54776,-59.7654 10.74784,-121.9186 62.62406,-158.9533 z m 43.79812,13.31114 c -32.68886,0 -58.95934,25.33719 -58.95934,56.8387 0,31.49529 26.27048,56.80553 58.95934,56.80553 32.68886,0 58.9916,-25.30506 58.9916,-56.80657 0,-31.50047 -26.30274,-56.83766 -58.99052,-56.83766 z m -81.41344,65.29133 c -12.19244,31.63003 -12.04722,67.44699 2.85692,100.98082 98.43766,64.24252 230.76892,66.9972 333.04664,0.25909 l 0,-23.83651 c -63.82878,46.2532 -141.78724,61.94385 -214.86012,49.4245 7.0616,-3.56097 13.93712,-7.35512 20.6072,-11.36899 -66.2748,-7.34164 -122.83438,-52.73466 -141.64956,-115.45787 z m 67.83342,277.06739 c 0.16888,0.10571 0.33344,0.21764 0.5034,0.32335 l 0.20438,-0.32438 -0.7067,0 z" />
    </symbol>
    <symbol id="icon-flame" viewBox="0 0 512 512">
        <path fill="#FF8360" d="M245.05 15.514c34.29 48.815-23.535 320.54-90.302 136.72C106.796 325.11 38.956 332.518 38.876 252.55c-71.6 79.31 43.824 220.767 87.376 243.935h52.127c-45.92-40.016-76.784-78-82.176-135.968 47.312 9.423 71.855 20.96 81.263-62.048 60.736 86.59 100.944-49.376 137.184-107.12-1.647 40.32-3.343 93.456 22.848 129.888 8.736 12.143 33.232 16.11 54.736 15.807-9.92 16.08-44.848 69.376-17.008 89.2 27.84 19.824 33.072-.384 25.856 16.176-13.264 20.88-22.992 39.375-59.072 54.063h56.064c59.44-18.72 111.807-91.663 94.607-135.535-22.015 18.657-43.774 30.897-61.294 29.537 49.12-72.08 37.84-145.903 14.752-221.342-20.224 72.383-33.488 82.495-54.576 99.52 29.104-68.657-85.44-214.448-146.51-253.15z" />
    </symbol>
    <symbol id="icon-fire-ring" viewBox="0 0 512 512">
        <path d="M312.344 16.813c5.096 53.015-76.687 71.94 3.812 131-21.002-67.855 39.96-80.94-3.812-131zm-173.47 43.124c2.864 58.907-7.995 100.984-34.093 136.97l-.5.28c1.42-28.968-14.337-52.78-32.093-75.906 2.882 39.21-3.964 78.4-20.156 117.564-20.79 23.86-32.718 51.704-32.718 81.437 0 88.458 105.59 160.158 235.875 160.158s235.907-71.7 235.907-160.157c0-10.08-1.377-19.935-4-29.5-6.37-30.335-7.76-49.572-.313-59.155 12.078-15.54 11.654-39.39-2.405-62.406-7.558 48.062-39.085 30.124-63.063-53.72-27.96 94.983-72.27-4.392-58.406-53.156-26.26 21.598-29.623 69.962-28.22 107.125-5.712-1.39-11.528-2.66-17.436-3.75-44.64-15.223-78.633-56.624-62.375-86.814-22.038 10.264-24.77 32.17-16.375 57.22 19.214 57.337-56.703-10.13-53.72-56.064l-17.093 72.688c-.154-34.474-5.844-73.924-28.812-92.813zM255.19 197c109.056 0 197.468 60.017 197.468 134.063 0 22.193-7.938 43.127-22 61.562-15.436 6.877-24-22.344-25.53-41.47-16.12 20.592-.576 58.922-17.407 75.064-2.128-10.244-11.962-22.962-25.345-30.75 2.11 22.203-4.025 43.33-29.72 58.936-31.15 5.69-44.428-28.71-49.56-54.22-4.033 33.512-16.028 58.988-49.97 64.095-4.066-.306-8.107-.683-12.094-1.155-30.51-18.392-20.632-49.433-24.25-78.594-2.93 29.505-24.438 65.4-39 56.158-25.677-16.295 10.893-33.548-9.53-63.657-2.415 30.193-21.75 31.483-42.03 29.876.94-14.196 1.723-28.353-2.75-41.25-9.138 7.68-18.04 15.838-34.564 9.938-7.223-13.934-11.156-28.92-11.156-44.53C57.75 257.017 146.13 197 255.188 197z" />
    </symbol>
    <symbol id="icon-sun-fire" viewBox="0 0 512 512">
        <path d="m 256,500 c 0,0 1.42567,-123.28224 105.95707,-20.29884 -13.47343,-65.52829 13.24845,-105.86893 27.54298,-50.65201 18.21767,70.36236 99.14081,59.21494 99.14081,59.21494 0,0 -106.01496,-45.93652 -58.24346,-81.84022 -67.67617,-20.64803 7.27037,-52.46981 52.26519,-73.78682 -59.29014,7.59165 -75.33122,-38.97642 -54.95124,-36.11986 C 471.58558,302.66681 500,256 500,256 c 0,0 -106.39521,21.32087 -47.00844,-37.6986 -29.2736,-15.37175 -102.06262,-106.17423 21.43506,-30.1234 -31.2917,-42.82938 -30.46772,-108.953839 13.04047,-70.39118 -24.80778,-38.819924 -1.57812,-90.072447 -1.57812,-90.072447 0,0 -52.50457,58.51757 -49.83245,96.065017 1.60287,22.52276 -60.22382,18.92741 -24.72459,-90.911372 C 369.06676,125.27973 322.04816,81.090452 338.25196,19.17034 311.08768,49.970135 256,12 256,12 c 0,0 25.73312,30.835831 16.78168,43.565657 -9.89269,14.068377 -54.2419,12.960293 -64.31884,-32.05278 -2.19596,64.756101 -65.57035,19.737193 -65.57035,19.737193 0,0 40.79662,47.940503 24.32398,53.044645 -21.44793,6.645765 -31.99429,-43.840272 -66.11281,-67.107837 -15.749406,24.728507 -72.765567,1.842575 -72.765567,1.842575 69.427872,42.006944 94.244707,58.431344 56.991902,88.281607 36.097205,-5.24437 56.579945,70.28065 -35.65942,14.09801 1.448314,30.90436 46.75989,40.01485 30.672695,57.4589 -8.603317,8.00596 -51.076408,10.90759 -35.431723,14.17849 C 81.132246,212.61928 73.293236,240.3591 12,256 l 80,0 c 2.508553,-93.01822 74.0499,-163.025509 164,-164 99.94442,0.513298 162.4156,77.24741 164,164 0.55957,85.34791 -72.51584,163.02551 -164,164 C 154.62548,417.43037 91.602501,342.75983 89.942016,255.81678 c 0,0 2.057984,0.18322 -76.135677,0.35687 76.135677,-0.35687 76.754787,42.27883 22.054656,71.60093 62.788547,7.85108 68.428825,46.61394 9.280335,59.80834 103.91395,-3.95852 92.82103,34.98334 78.16486,37.25003 -71.739216,11.09502 -52.544649,33.0023 -57.737811,44.13067 -7.394522,15.84562 -32.332007,5.81867 -39.327423,19.86463 35.879555,20.02492 59.028706,8.17567 82.406814,-18.41773 -75.142444,-55.39551 50.37905,13.68373 69.11261,-9.71217 C 139.75877,388.2734 198.27603,424.95608 216.20417,435.4651 183.95893,483.05579 256,500 256,500 Z" />
    </symbol>
    <symbol id="icon-sinusoidal-beam" viewBox="0 0 512 512">
        <path  d="M18.7 18.7v31.474l7.804 9.853c-3.24 5.71-5.774 11.464-7.512 17.12-.104.34-.192.684-.29 1.025v28.437c1.392 3.52 3.446 6.762 6.275 9.585 9.892 9.873 24.882 10.316 39.107 5.93 2.954-.91 5.934-2.048 8.922-3.377l38.894 49.115c-1.928 4.116-3.545 8.218-4.81 12.266-5.35 17.106-4.78 34.656 6.61 46.07 11.392 11.41 28.924 11.99 45.96 6.67.977-.306 1.96-.637 2.942-.98l65.402 82.587c-.53 1.544-1.036 3.084-1.49 4.61-6.15 20.656-5.49 41.09 7.65 54.255 11.795 11.818 29.506 13.57 47.713 9.166l87.736 110.79h23.84l-2.316-2.923c3.324-9.926 8.54-20.652 15.472-31.45l31.365 34.374H493.3v-75.472l-31.062-27.096c5.482-8.462 10.068-16.987 13.664-25.396l17.397 13.36v-23.56l-10.98-8.435c5.676-22.206 3.702-43.492-10.226-57.39-15.163-15.132-39.034-16.085-63.23-8.472-2.783.875-5.59 1.88-8.41 2.984l-89.493-68.736c.83-2.283 1.583-4.55 2.24-6.8 5.66-19.4 4.954-38.725-7.53-51.235-12.484-12.51-31.86-13.23-50.99-7.25-6.114 1.91-12.345 4.524-18.582 7.786l-59.504-45.703c2.706-4.89 4.92-9.77 6.59-14.557 5.17-14.83 5.566-30.396-4.614-40.597-10.178-10.202-25.744-9.823-40.57-4.664-7.716 2.685-15.67 6.774-23.54 12.092L55.274 18.7H18.7zm137.84 48.556c4.273-.033 7.21 1.077 8.802 2.672 2.83 2.835 4.132 9.955.195 21.244-1.012 2.903-2.35 5.977-3.99 9.152l-31.27-24.017c4.855-2.87 9.55-5.088 13.866-6.59 4.938-1.72 9.072-2.436 12.396-2.46zM39.296 76.182l21.615 27.297c-.788.282-1.57.55-2.336.786-10.46 3.225-17.255 1.84-20.398-1.297-3.144-3.138-4.525-9.9-1.32-20.333.636-2.07 1.456-4.233 2.44-6.455zm78.72 14.273l33.383 25.64c-.527.686-1.086 1.37-1.636 2.053l-31.746-27.693zm-17.11 33.426l22.44 24.595c-.47.658-.94 1.317-1.396 1.978L100.91 123.88zm65.34 3.622l52.868 40.605c-2.168 1.557-4.323 3.197-6.463 4.903l-48.773-42.547c.803-.984 1.602-1.97 2.368-2.96zm-29.936 35.18l38.627 42.334c-2.238 1.42-4.468 2.74-6.67 3.923l-34.048-42.995c.667-1.085 1.368-2.174 2.09-3.263zm140.77 2.164c6.828.095 12.03 2.068 15.36 5.406 5.685 5.696 7.436 16.95 2.824 32.777L252.78 170.4c2.548-1.07 5.05-2.006 7.474-2.763 5.763-1.8 10.93-2.685 15.44-2.785.47-.01.93-.013 1.386-.006zm-42.338 15.26l53.252 40.904c-1.968 3.888-4.236 7.85-6.748 11.836l-54.215-47.293c2.567-1.938 5.142-3.765 7.712-5.446zm-109.488 4.62l24.86 31.395c-11.155 2.685-19.058 1.01-23.184-3.122l-.002-.002c-4.6-4.61-6.178-13.935-2.002-27.29.1-.322.22-.653.328-.98zm62.484 34.32l56.766 62.212c-2.957 4.59-5.663 9.19-8.06 13.775l-56.39-71.21c2.57-1.47 5.134-3.067 7.684-4.778zm115.342 13.55l78.408 60.222c-6.084 3.394-12.166 7.278-18.177 11.616l-67.794-59.14c2.768-4.223 5.302-8.465 7.564-12.698zm134.16 62.273c9.404.114 16.794 2.82 21.653 7.667 6.444 6.43 9.11 17.333 6.96 31.518l-47.537-36.512c6.178-1.672 11.877-2.538 17.016-2.662.645-.015 1.28-.018 1.908-.01zm-179.63.753l50.32 55.15c-6.605 4.173-13.157 7.547-19.403 10.03l-39.18-49.477c2.283-5.103 5.053-10.373 8.262-15.703zm140.245 9.768l62.665 48.13c-3.06 7.96-7.285 16.32-12.563 24.755l-70.105-61.156c6.714-4.59 13.44-8.52 20.003-11.73zM242.43 332.694l26.26 33.162c-9.63.86-16.912-1.318-21.3-5.714-5.222-5.232-7.314-14.614-4.96-27.447zm78.302 32.112l72.788 79.77c-6.504 9.502-11.876 19.133-15.967 28.646l-76.987-97.216c6.712-3.015 13.476-6.772 20.166-11.2z"/>
    </symbol>
    <symbol id="icon-sinusoidal-beam-simple" viewBox="0 0 512 512">
        <path d="m 500,256 c -488,0 0,0 -488,0 0,0 27.191158,41.3247 50.852819,41.41968 55.237751,0.22173 44.920851,-75.59472 96.011201,-75.77784 63.34757,-0.22705 32.08652,74.0539 90.77811,74.31115 54.26321,0.23784 59.48127,-74.14031 98.51779,-74.33956 49.65237,-0.25344 53.63692,75.93294 93.31695,75.80625 C 469.08108,297.33155 479.18685,281.63799 500,256 Z" />
    </symbol>
    <symbol id="icon-sinusoidal-line" viewBox="0 0 512 512">
        <path d="m 0,0 c 45.006284,45.698812 93.458171,9.3587412 136.53153,56.888145 45.97403,50.730145 -68.699219,111.031795 -24.73337,167.204375 47.06585,60.13328 144.08818,-33.75159 186.78006,13.82121 42.30758,47.14456 -38.26112,117.27621 7.93727,158.9229 43.00879,38.77135 120.54727,-62.21598 172.57832,-10.74917 C 523.47654,429.98891 473.92447,471.2591 512,512" />
    </symbol>
    <symbol id="icon-bullet-backward-line" viewBox="0 0 512 512">
        <path d="M 0,0 C 167.73126,131.60629 334.10146,-44.026371 378.91336,98.307824 422.65694,237.24877 -1.7924494,178.3395 107.19597,351.41968 198.42402,496.29532 313.62672,271.65323 419.26538,298.64592 518.7612,324.06899 437.10698,426.7713 512,512" />
    </symbol>
    <symbol id="icon-bullet-cercle-line" viewBox="0 0 512 512">
        <path d="M 0,0 C -170.26223,386.91493 43.78368,505.29489 158.97857,507.90867 324.49512,482.29503 359.14532,454.24463 512,512" />
    </symbol>
    <symbol id="icon-bullet-around-line" viewBox="0 0 512 512">
        <path d="m 0,0 c 354.38703,224.30434 558.49078,16.904391 563.97098,472.62525 0.9207,76.56323 13.81781,101.36271 -49.92716,127.10987 C 410.64644,641.49824 425.81031,429.72912 512,512" />
    </symbol>
    <symbol id="icon-bullet-around-side-line" viewBox="0 0 512 512">
        <path d="M 0,0 C 158.02708,58.625626 315.26405,-109.12111 415.16695,-33.615271 451.40051,-6.2302293 435.642,34.784097 396.43383,55.905599 351.11774,80.31744 314.11344,59.017969 295.50699,33.507573 255.63336,-21.161192 429.62888,-121.56949 485.73986,-32.213141 519.57138,21.663319 565.15028,153.36303 510.97569,184.00427 413.9125,238.90338 514.78591,343.82164 512,512" />
    </symbol>
    <symbol id="icon-fireflake" viewBox="0 0 512 512">
        <path d="M253.938 16s-.116 5.61 0 14.47c.116-8.86 0-14.47 0-14.47zm0 14.47c-.465 35.427-4.82 125.15-36.594 138.31-31.437 13.024-95.04-50.706-120.28-77.905 24.6 27.913 82.115 97.995 69.092 129.438-13.138 31.722-100.9 35.99-135.78 36.437 34.88.446 122.638 4.747 135.78 36.47 13.2 31.863-46.11 97.757-70.125 122.624 24.537-24.197 89.464-83.88 121.314-70.688 31.777 13.162 36.13 101.667 36.594 136.594.453-34.932 4.746-123.502 36.562-136.594 32.305-13.293 106.245 48.2 132.844 71.72-26.05-24.104-94.274-91.384-80.906-123.657 13.058-31.53 101.93-35.98 138.125-36.47-36.192-.488-125.06-4.9-138.125-36.438-13.227-31.924 53.26-103.695 79.937-130.718-27.322 26.44-99.95 92.406-131.875 79.187-31.777-13.156-36.1-102.882-36.563-138.31zm168.437 59.124c6.673-6.457 10.72-10.656 10.72-10.656s-4.193 4.044-10.72 10.656zm58.188 167.156c9.406.127 15.437 0 15.437 0s-6.03-.128-15.438 0zm-57.22 160.125c6.012 5.562 9.75 8.844 9.75 8.844s-3.61-3.417-9.75-8.845zM253.938 481.75c-.113 8.723 0 14.25 0 14.25s.116-5.518 0-14.25zM96.03 415.844c-6.063 5.98-9.78 9.875-9.78 9.875s3.86-3.744 9.78-9.876zM30.376 256.75c-8.796-.113-14.375 0-14.375 0s5.58.113 14.375 0zM97.063 90.875c-6.478-7.35-10.813-11.938-10.813-11.938s4.162 4.772 10.813 11.938zM333.719 68.28s-.176-.063-27.314 29.376c-8.554 9.28-13.223 35.225-1.47 40.094 11.756 4.868 27.006-16.758 27.377-29.375 1.173-40.035 1.406-40.094 1.406-40.094zm-155.5.032s-.196.077 1.436 40.094c.515 12.61 15.59 34.212 27.344 29.344 11.754-4.87 7.253-30.91-1.406-40.094-27.48-29.137-27.375-29.344-27.375-29.344zm265.5 109.938s-.032.263-40.064 1.438c-3.154.09-6.9 1.12-10.625 2.78-11.17 4.987-22.43 15.748-18.78 24.563 4.87 11.755 30.844 7.117 40.125-1.436 29.445-27.14 29.344-27.344 29.344-27.344zm-375.44.03s-.075.206 29.376 27.345c9.28 8.553 35.226 13.16 40.094 1.406 3.804-9.182-8.583-20.478-20.188-25.155-3.248-1.31-6.396-2.075-9.156-2.156-40.033-1.173-40.125-1.44-40.125-1.44zm187.22 3.22c9.68-.074 19.532 1.752 29.03 5.688 38 15.74 56.024 59.345 40.283 97.343-15.74 38-59.315 56.056-97.313 40.314-37.998-15.74-56.086-59.346-40.344-97.344 11.806-28.5 39.307-45.78 68.344-46zm.5 15.72c-32.468 0-58.78 26.314-58.78 58.78 0 32.467 26.314 58.78 58.78 58.78 32.467 0 58.78-26.314 58.78-58.78 0-32.468-26.314-58.78-58.78-58.78zM122.312 297.905c-5.516.075-11.556 1.42-16.593 3.563-3.225 1.37-6.024 3.073-8.032 4.967C68.55 333.918 68.31 333.75 68.31 333.75s.113.224 40.126-1.406c12.61-.515 34.18-15.59 29.312-27.344-2.14-5.165-8.345-7.19-15.438-7.094zm266.125 0c-3.208.077-6.177.622-8.625 1.72-2.554 1.144-4.535 2.895-5.562 5.374-4.868 11.754 16.764 26.83 29.375 27.344 40.01 1.63 40.094 1.406 40.094 1.406s-.237.166-29.376-27.313c-2.295-2.164-5.63-4.104-9.438-5.562-5.133-1.965-11.12-3.097-16.47-2.97zM203.03 373.562c-1.343.054-2.71.358-4.06.907-9.645 3.92-18.913 19.3-19.314 29.155-1.63 40.01-1.437 40.063-1.437 40.063s-.11-.205 27.374-29.344c8.66-9.183 13.16-35.226 1.406-40.094-1.286-.533-2.625-.74-3.97-.688zm105.314 0c-1.148.02-2.273.263-3.375.72-11.755 4.868-7.118 30.78 1.436 40.062 27.14 29.445 27.313 29.344 27.313 29.344s-.235-.034-1.408-40.063c-.335-11.434-12.873-30.26-23.968-30.063z" />
    </symbol>
    <symbol id="icon-bee" viewBox="0 0 512 512">
        <path d="M273.625 17.438l3.313 19.406L258.53 40l-3.717-21.594c-11.894 1.303-21.9 3.848-30.188 7.344L238.5 43.375l-14.688 11.563-15.343-19.5c-9.837 8.29-15.64 18.988-17.657 32.156l24.375-1.344 1.03 18.656-12.812.72c36.685 31.72 70.686 71.3 102.125 122.718 3.52-.453 7.054-.697 10.564-.72 2.396-.014 4.774.055 7.156.25 3.744.31 7.462.914 11.125 1.782 10.252-71.962-6.85-130.822-38.5-191.062-7.863-.71-15.335-1.137-22.25-1.157zM78.905 27.813C72.95 32.37 67.494 36.937 62.5 41.5l18.47 17.875-13 13.406-18.657-18.03c-9.15 10.155-16.053 20.23-20.907 30.125l20.125 4.72-4.28 18.218-22.438-5.282c-.528 2.05-.986 4.073-1.343 6.095-2.264 12.796-1.332 25.318 2.593 37.47l22.968-11.19 8.157 16.814-23.53 11.436c4.11 7.18 9.307 14.198 15.562 21.063 3.188 3.5 6.67 6.913 10.405 10.28l15.125-16.28 13.688 12.75-14.25 15.31c10.718 7.82 22.952 15.15 36.562 21.814l10.47-20.125 16.56 8.624-10 19.22c9.974 4.158 20.545 7.945 31.657 11.405l6.657-19.407 17.687 6.062-6.343 18.5c10.976 2.874 22.408 5.395 34.25 7.53l3.157-19.03 18.437 3.063-3.155 18.937c22.212 3.138 45.688 4.95 70.188 5.188l-.188 18.687c-20.204-.195-39.78-1.404-58.594-3.5-1.978 7.395-3.443 15.514-4.25 24.438-99.17-72.015-189.613 29.593-213.843 140 96.828 62.17 166.47 12.61 216.094-69.844l17.532 40.125 17.125-7.5-23.156-52.97c4.207-7.892 8.265-16.012 12.157-24.28 7.755 11.174 16.53 18.968 25.688 23.655l1.03 32.97.126 4.25 3.314 2.686 38.406 31.314 11.813-14.5-35.094-28.625-.72-22.75c11.463.746 22.9-2.88 33.125-10.345l.72 26.906.186 6.19 5.783 2.25 62.28 24.092 6.75-17.437-56.468-21.813-1.094-39.625c2.924-4.387 5.622-9.2 8-14.468 14.34 60.238 86.187 63.25 103.126 7.936 11.726-38.29-19.33-72.846-52.562-72l-10.156-47.25c29.243 7.773 54.154 23.793 73.906 55.906l15.906-9.78c-25.456-41.388-61.373-60.69-100.375-67.595l-13.688-2.406 2.938 13.564 13.25 61.812c-.644.294-1.298.58-1.938.906l-.062.032c-2.39.595-4.74 1.456-7 2.656-4.883 2.592-8.73 6.348-11.625 10.78-9.013-28.358-34.47-46.61-61.406-49.31 3.698 6.412 7.374 12.98 11 19.75l-16.47 8.81C243.755 130.22 169.122 70.843 78.907 27.813zM402.282 276.75c.325-.002.638.013.97.03 2.656.148 5.576.97 8.75 2.564 6.348 3.188 13.04 9.53 17.656 18.22 4.617 8.686 6.13 17.77 5.22 24.81-.912 7.04-3.827 11.552-7.97 13.75-4.142 2.2-9.527 2.096-15.875-1.093-6.347-3.187-13.038-9.53-17.655-18.217-4.617-8.688-6.13-17.773-5.22-24.813.912-7.04 3.827-11.55 7.97-13.75 1.812-.962 3.89-1.485 6.156-1.5z"  fill-rule="evenodd"/>
    </symbol>

    <symbol id="icon-drop" viewBox="0 0 512 512">
        <path fill="#529BCA" d="M263.844 40.344C234.1 213.202 145.594 248.03 145.594 369.22c0 60.804 60.106 105.5 118.25 105.5 59.45 0 115.937-41.803 115.937-99.533 0-116.332-85.2-162.312-115.936-334.843zm-58.28 217.094c-27.963 75.53-5.105 154.567 54.25 179.375 15.185 6.348 31.724 7.714 47.905 6.28-116.134 49.787-185.836-79.816-102.158-185.656z"  fill-rule="evenodd"/>
    </symbol>

    <symbol id="icon-frozen-orb" viewBox="0 0 512 512">
        <path d="M255.063 15.47c-131.508 0-238.657 107.12-238.657 238.624S123.558 491.75 255.062 491.75c131.505 0 238.625-106.15 238.625-237.656 0-131.504-107.117-238.625-238.625-238.625zm0 18.343c121.407 0 219.28 98.877 219.28 220.28 0 121.408-97.877 219.313-219.28 219.313-121.404 0-219.313-97.91-219.313-219.312 0-121.404 97.905-220.28 219.313-220.28zm-.032 19.28c-110.986 0-200.75 89.763-200.75 200.75 0 110.988 89.764 200.75 200.75 200.75 110.99 0 200.75-89.762 200.75-200.75 0-110.987-89.76-200.75-200.75-200.75zm-.843 16.532l12.313 62.72 51-21.095-46.094 46.094 6.22 31.687-12.5 3.345L273 221.72l29.313-7.876-3.25-12.094 31.343-10.72 16.813-62.81 7.217 54.56 60.313-20.624-48.313 42.156 42.375 33-61.625-16.187-24.25 21.156-10.03-10.03-21.47 21.5 21.47 21.47 9.218-9.22 24.688 21.563L409.5 270.78l-43.563 33.47 48.22 42.063-60.97-20.844-7.406 53.186-16.81-61.5-30.22-10.312 3.563-13.313L273 285.657 265.125 315l12.5 3.344-6.22 31.625 46.095 46.06-51-21.06-12.313 62.75-12.375-63.033-49.593 20.125 44.686-45.093-6.125-31.19 13.157-3.53-7.875-29.344-29.343 7.875 3.624 13.533-29.28 10.03L164.28 378.5l-7.374-53.156L96 346.188l48.188-42.063-43.594-33.5 62.75 16.813 24.03-20.97 8.75 8.75 21.47-21.468-21.47-21.5-9.593 9.594-23.56-20.563-61.72 16.22 42.47-33.03-48.345-42.19 60.28 20.626 7.19-54.53 16.81 62.75 30.376 10.374-3.31 12.344 29.343 7.875 7.875-29.345-13.188-3.53 6.156-31.25-44.687-45.126 49.593 20.124 12.375-62.97z" />
    </symbol>

    <symbol id="icon-rock" viewBox="0 0 512 512">
        <path d="M228.813 23L68.75 72.28 39.5 182.095l47.53-21.22 10.44-4.655 2.5 11.155 8.75 39.125 6.405 28.53-21.75-19.53-15.72-14.125-28.218 32.344 140.657 136 9.656-40.69 7.53-31.874 10.407 31.063 54.72 163.592L432.343 465.5l45.75-202.938-84.563-148.718L228.814 23zm-57.688 49.875l-27.813 39.906-3.25 73.44-27.187-88.94 58.25-24.405zm17.844 93.406l113.124 155.25L407 355.407l-107.375-.844-110.656-128v-60.28zM79.312 330.25l140.125 153.125-5.563-65.875-134.563-87.25z"  fill-rule="evenodd"/>
    </symbol>
    <symbol id="icon-iron-mask" viewBox="0 0 512 512">
        <path d="M256.25 18.25c-31.81 0-61.71 14.253-86.906 39.438L191 246.905h35.125c19.944 0 19.7 37.852.688 38.75v64.156h59.218v-64.187c-20.043-1.644-19.334-38.72 1.376-38.72h34.75L343.78 58.313C318.455 32.74 288.323 18.25 256.25 18.25zM152.687 76.813c-2.375 3.118-4.68 6.353-6.937 9.687-29.025 42.865-47.375 102.888-47.375 169.375s18.35 126.542 47.375 169.406c26.88 39.698 62.346 64.383 101.156 67.814v-63.97H212.53c-21.46 0-21.18-38.78 0-38.78h88.5c20.185 0 19.697 38.78 0 38.78h-35.436v63.97c38.81-3.43 74.276-28.116 101.156-67.813 29.025-42.863 47.375-102.918 47.375-169.405S395.775 129.365 366.75 86.5c-2.077-3.067-4.198-6.053-6.375-8.938L340.97 246.906h34.936c20.184 0 19.696 38.78 0 38.78l-71.187.002V368.5h-96.596v-82.814l-70.5.002c-21.462 0-21.18-38.782 0-38.782h34.563l-19.5-170.094z" />
    </symbol>

    <symbol id="icon-cloud-ring" viewBox="0 0 512 512">
        <path fill="#529BCA" d="M245.22 31.387c-70.06.15-134.335 31.794-168.1 90.28-5.223 9.045-8.83 18.417-12.24 28C122.157 70.996 219.372 40.6 292.07 82.57c78.822 45.506 98.658 158.253 44.405 252.223-25.855 44.782-63.857 77.026-105.15 93.723 95.38 29.26 195.698-.307 240.96-78.704 54.027-93.574 8.905-220.773-100.055-283.68-40.858-23.59-84.976-34.837-127.01-34.747zm-24.763 49.945c-40.357.123-84.108 16.545-122.254 49.408C19.45 198.588-6.02 311.192 41.32 382.244c4.577 6.87 9.9 12.55 15.434 18.137C20.79 331.21 31.144 244.728 83.69 199.46c56.97-49.083 141.443-31.06 188.98 40.292 22.654 34.003 32.705 73.913 30.926 111.78 51.07-67.13 63.006-155.83 23.347-215.356h-.002C302.534 99.54 263.42 81.2 220.458 81.332zm-63.36 107.71c-26.76.083-53.228 9.95-73.05 29.65-48.848 48.55-47.855 142.19 1.144 205.94 49 63.75 128.323 76.074 177.17 27.524-47.107 29.645-84.88 26.3-128.778-20.916-39.45-42.43-24.435-122.8 24.62-171.554 23.376-23.234 51.128-35.812 77.675-37.696-21.48-22.033-50.296-33.034-78.78-32.947z" />
    </symbol>
    <symbol id="icon-fluffy-cloud" viewBox="0 0 512 512">
        <path fill="#529BCA" d="M225.438 18.156c-15.105.14-32.56 2.526-52.407 7.844-35.26 9.45-65.035 28.973-88.374 54.844-17.668 13.755-36.98 46.39-51.437 85.97-16.415 55.046-16.447 120.304-2.157 188.155C34.84 372.91 44.14 385.08 57.5 392.093c13.36 7.01 31.353 8.776 52.688 3.062 13.473-3.608 23.028-12.44 28.812-22.75 5.784-10.31 7.226-22.05 5.313-29.187-4.335-16.17-19.078-25.202-32.313-21.658-9.02 2.417-13.433 10.27-13.5 16.97-.034 3.35.976 6.065 2.75 7.968 1.774 1.903 4.493 3.497 10 3.594l-.344 18.687c-9.57-.168-17.87-3.693-23.312-9.53s-7.856-13.482-7.78-20.906c.148-14.85 10.064-30.185 27.342-34.813 24.03-6.434 48.515 9.84 55.22 34.845 3.605 13.45.802 29.11-7.095 43.188-7.896 14.077-21.48 26.63-40.25 31.656-4.174 1.117-8.282 1.972-12.343 2.624 98.875 90.13 248.893 110.83 349.344 9.72 18.164-18.283 31.29-40.735 38.595-65.127.02-.063.044-.124.063-.187 9.94-40.298 4.91-84.342-17.5-123.156-44.153-76.474-142.198-106.276-193.094-78.28-57.27 23.11-71.688 56.892-76.625 81.874-21.635 61.008 4.65 135.55 67.686 156.375 43.724 14.443 97.45-5.348 111.656-51.25 9.364-30.262-4.29-66.992-35.437-75.532-9.543-2.616-20.58-1.58-29.438 2.658-8.858 4.237-15.41 11.2-17.78 21.093-1.297 5.42-.55 11.935 1.906 16.814 2.455 4.88 5.99 8.01 11.25 8.97 1.883.342 4.31-.074 6.28-.845-2.017-.512-3.482-1.562-4.343-2.345-1.39-1.288-3.168-3.693-3.656-6.563-.78-4.998 2.214-9.82 5.03-11.906 2.818-2.086 5.51-2.925 8.845-2.906 6.21.034 11.453 3.97 14.03 8.125 2.577 4.154 3.51 8.625 2.97 13.28v.033c-.982 8.283-6.386 14.75-12.533 18.187-6.146 3.438-13.153 4.556-19.968 3.313-11.435-2.087-20.017-9.842-24.595-18.938-4.578-9.096-5.78-19.644-3.406-29.563 3.774-15.756 14.824-27.336 27.905-33.593 13.08-6.257 28.324-7.683 42.438-3.813 42.675 11.702 60.497 59.787 48.343 99.064-17.637 56.99-82.493 80.936-135.375 63.47-68.184-22.526-99.163-97.1-84.28-163.44-18.918-16.436-34.28-39.526-40.47-62.624-14.74-55.014 32.67-114.382 82.19-130.563 42.26-13.775 79.575 5.404 60.124 39.094 33.446-28.243 15.37-79.8-57.406-79.124z" />
    </symbol>
    <symbol id="icon-mite-alt" viewBox="0 0 512 512">
        <path fill="#000000" d="M370.06 77.686c-10.644.085-21.42 1.936-31.816 5.86-14.63 5.53-17.103 17.274-12.506 23.895 14.11 29.535 18.452 62.364 3.78 90.1-17.168-25.923-43.89-42.415-73.518-42.415-29.626 0-56.347 16.496-73.516 42.42-14.672-27.734-10.335-60.56 3.772-90.09 4.606-6.62 2.138-18.37-12.5-23.894-41.58-15.69-89.25 1.756-110.16 32.82 30.66-8.7 66.99-27.915 103.05-7.155.675.39 1.342.735 1.997 1.045-13.33 33.103-15.584 70.885 5.423 102.39-3.543 7.674-6.336 15.914-8.263 24.588-26.844-17.095-39.352-48.493-41.52-81.71l-.17.01c-.018-8.626-13.526-18.352-30.46-12.02C52.03 159.1 27.61 203.606 32.32 240.76c17.003-26.187 38.658-65.485 77.91-74.688 4.368 35.197 20.396 69.337 53.086 87.086-.373 4.018-.572 8.1-.572 12.246 0 2.983.097 5.85.283 8.614-25.055-5.735-46.175-23.645-61.806-46.41-.038-.06-.084-.12-.124-.18-.353-.516-.72-1.02-1.067-1.54l-.08.05c-5.773-6.48-18.946-7.902-28.93 4.216-28.26 34.29-25.08 73.666-13.86 107.116 1.65-31.567 8.098-64.37 38.725-91.67 17.705 22.113 41.41 39.493 69.43 44.134 2.336 9.984 6.2 18.202 11.322 25.02-21.07 2.364-43.31-3.103-63.85-13.248l-.03.064c-7.296-3.463-17.49.828-19.402 16.125-5.475 43.83 14.19 87.256 39.99 101.73-13.334-23.954-23.805-58.905-13.8-98.31.023-.09.035-.177.057-.267 22.498 8.685 47.02 12.214 70.2 6.79 4.84 3.53 10.313 6.46 16.288 8.858-9.288 2.466-18.875 12.258-19.66 26.29-1.815 32.91 28.185 46.034 51.105 39.704-18.345-8.55-27.09-37.8-13.695-52.14-.348-3.926-1.426-6.985-3.006-9.262C231.57 343.6 243.418 344.8 256 344.8c13.92 0 26.943-1.463 38.55-4.556-1.927 2.343-3.25 5.674-3.646 10.106 13.395 14.34 4.652 43.59-13.693 52.14 22.92 6.33 52.92-6.795 51.104-39.705-.827-14.944-11.646-25.085-21.457-26.68 5.61-2.327 10.77-5.13 15.358-8.474 23.173 5.414 47.688 1.882 70.18-6.802.023.097.035.19.06.287 9.99 39.405-.466 74.34-13.8 98.31 25.8-14.46 45.465-57.885 39.99-101.73-1.912-15.3-12.11-19.59-19.405-16.123l-.04-.082c-20.533 10.14-42.762 15.61-63.825 13.252 5.114-6.814 8.976-15.025 11.31-25.002 28.02-4.637 51.726-22.026 69.43-44.14 30.627 27.3 37.074 60.104 38.725 91.656 11.22-33.45 14.4-72.81-13.86-107.115-9.984-12.11-23.157-10.683-28.93-4.2l-.08-.053c-.347.52-.713 1.025-1.066 1.54-.04.062-.086.12-.125.182-15.633 22.765-36.754 40.682-61.81 46.413.188-2.765.286-5.634.286-8.62 0-4.146-.2-8.233-.572-12.253 32.683-17.75 48.722-51.882 53.08-87.09 39.246 9.22 60.9 48.513 77.9 74.684 4.71-37.155-19.71-81.658-61.334-97.228-16.928-6.326-30.434 3.41-30.447 12.035l-.182-.01c-2.153 33.22-14.666 64.602-41.503 81.698-1.926-8.672-4.72-16.91-8.26-24.582 21.006-31.508 18.75-69.293 5.417-102.398.656-.31 1.324-.656 2-1.047 36.06-20.76 72.405-1.53 103.05 7.155-15.682-23.3-46.416-38.936-78.345-38.68zM210.58 244.42c19.455 0 35.22 15.766 35.22 35.22 0 19.44-15.765 35.22-35.22 35.22-19.44 0-35.22-15.764-35.22-35.22 0-19.44 15.765-35.22 35.22-35.22zm90.84 0c19.44 0 35.22 15.766 35.22 35.22 0 19.44-15.765 35.22-35.22 35.22-19.44 0-35.22-15.764-35.22-35.22 0-19.44 15.765-35.22 35.22-35.22zm-97.006 8.97c-9.72 0-17.61 7.89-17.61 17.61 0 9.72 7.89 17.61 17.61 17.61 9.72 0 17.61-7.89 17.61-17.61 0-9.72-7.89-17.61-17.61-17.61zm90.842 0c-9.72 0-17.61 7.89-17.61 17.61 0 9.72 7.89 17.61 17.61 17.61 9.72 0 17.61-7.89 17.61-17.61 0-9.72-7.89-17.61-17.61-17.61zm-69.182 35.43c-4.86 0-8.804 3.945-8.804 8.805 0 4.86 3.944 8.805 8.804 8.805s8.807-3.945 8.807-8.805c0-4.86-3.946-8.805-8.806-8.805zm90.84 0c-4.86 0-8.805 3.945-8.805 8.805 0 4.86 3.944 8.805 8.804 8.805s8.807-3.945 8.807-8.805c0-4.86-3.946-8.805-8.806-8.805z" />
    </symbol>

    <symbol id="icon-emerald" viewBox="0 0 512 512">
        <path d="M310.375 16.75L89.405 75.72l58.126 50.905L282.563 90.28l2.032-.53 25.78-73zm17.063 7.844l-27.157 76.812 91.69 91.875 95.624-8.78L327.438 24.594zm-41.813 12.062l-8.594 33.657c-.28-15.516-38.03-17.018-107.56-4.376l116.155-29.28zm51.063 14.625l123.5 123.407-58.844 7.563c16.2-21.37-32.277-91.112-64.656-130.97zM74.75 87.72L15.594 308.405l79-31.47 37.28-139.155L74.75 87.72zm207.438 22l-133.032 35.81-35.72 133.376 97.25 97.53 133.064-35.81 35.72-133.376-97.283-97.53zm-201.72 5.686l32.844 30.5-30.156 118.97-39.03 15.812c50.817-30.543 65.667-130.132 36.343-165.282zm195.876 14.78L359 213.377l-30.156 113.81-44.688 11.97c119.527-107.872-34.816-238.375-131.5-140.875l9.875-37.405 113.814-30.688zM490.564 203l-92.877 8.53-35.968 134.19 71.342 71.842L490.563 203zm-17.283 13.875L444.03 333.03c6.73-68.874-.03-90.85-30.655-111.5l59.906-4.655zm-371.155 77.188L20.22 326.688l161.75 161.468 17.31-96.72-97.155-97.373zm.094 20l78.124 82.437-7.438 61.375c-5.23-44.565-28.34-85.92-70.687-143.813zm246.124 44.687l-130.53 35.125-17.564 98.188 221.688-59.157-73.594-74.156zm18.625 42.5l24.28 24.844-115.22 32.72c61.28-26.446 83.34-37.418 90.94-57.564z" />
    </symbol>
    <symbol id="icon-ore" viewBox="0 0 512 512">
        <path  d="M344.578 493.54l-117.214-2.024L118.9 338.536l14.355-51.353 35.264 9.38 40.145 42.033-17.467-59.874 23.836-35.358-42.748-104.034 43.165-79.45 72.434 22.468 46.26 80.46-29.474 5-38.478-35.017 22.568 48.064-.672 37.364-26.09 18.224 34.95 1.284 47.145 23.835 28.75-27.874 38.488 19.057 10.647 37.578-18.97-13.784-78.166 39.967-44.983-15.39 5.86-27.153-42.766 3.274 23.573 11.913-9.49 22.943 58.037 31.285 20.34 79.423-15.45 34.73 29.397-20.36 66.83-9.438-71.61 65.81zm-158.524-3.538l-53.48-2.296 27.663-64.006 34.38 49.695-8.563 16.607zm-86.78-37.04l-11.08-34.875-35.503-10.204 34.858-11.09 10.212-35.5 11.09 34.855 35.502 10.22-34.857 11.082-10.22 35.51zm252.983-33.208l-21.565-84.228 72.042-38.99 53.683 59.322-18.665 52.23-85.495 11.666zM169.47 280.677l-59.133-15.612-20.298-69.16 66.064-37.45 36.94 84.126-23.573 38.097zm172.106-38.972l-38.385-19.66 1.574-38.86 43.607-9.917 26.753 39.296-33.547 29.14zm58.845-47.23l-14.234-45.425-46.14-13.46 45.41-14.262 13.46-46.132 14.252 45.41 46.14 13.478-45.41 14.235-13.477 46.156zM327.01 124.9l-28.666-56.762-28.972-7.96 22.645-41.718 29.312 14.278 17.84 59.542-12.16 32.62z"/>
    </symbol>
    <symbol id="icon-fire-bottle" viewBox="0 0 512 512">
        <path d="M414.875 20.625L408.28 27.5l-6.155 6.375 72.47 72.47L481.06 100l6.72-6.594-6.688-6.656-59.47-59.406-6.75-6.72zm-42.438 10L339.47 63.563 442.874 166.97 475.813 134 372.438 30.625zM219.22 88.875c-1.15 0-2.29.013-3.44.03-50.362.818-100.432 20.43-138.874 58.845-78.645 78.614-78.63 206.058.03 284.688 78.665 78.63 206.195 78.65 284.845 0 66.53-66.5 76.702-167.79 30.595-245.157l22.375-22-13.22-13.218-27.467 27-5.438 5.344 4.156 6.406c29.643 45.634 36.865 101.44 21.626 152-16.766-1.182-31.593-14.78-36.125-34-3.035-12.897-1.504-26.806 4.658-37.156-39.524 16.293-51.447 45.442-41.813 89.813-38.003 5.345-33.94-43.066-58.125-57.97-1.747 40.85-49.1 68.87-73.03 40.22-23.55-28.187 3.92-67.758 39-60.44-34.632-28.662-65.7-26.033-97.532 4.626 4.97-28.496 15.814-46.957 35.593-57.28C102.417 235.333 56.08 279.655 41.376 332c-14.042-59.465 2.182-124.513 48.72-171.03 26.516-26.5 59.07-43.166 93.186-50-1.638 2.04-2.81 4.325-3.468 6.78-5.217 19.473 24.254 44.27 65.813 55.406 41.56 11.136 79.47 4.38 84.688-15.094 1.552-5.795-.005-12.072-4-18.312l4.187-4.344 26.656-27.72-13.25-13.25-21.812 22.69c-31.632-18.792-67.267-28.222-102.875-28.25zM249 209.03c-19.79.31-43.318 10.84-66.313 34.5 51.676-15.715 93.58-10.627 113.094 42.22 10.9-45.567-11.252-76.12-44.874-76.72-.63-.01-1.268-.01-1.906 0z" />
    </symbol>
    <symbol id="icon-fizzing-flask" viewBox="0 0 512 512">
        <path d="M365.47 18.727c-11.353-.18-21.053 7.365-24.786 20.058h-.002c-24.423-7.6-57.52-4.092-68.328 19.856-15.69-20.86-47.866-13.98-55.194 9.85-7.328 23.828 13.462 49.474 44.68 48.55-3.078 33.98 44.304 54.69 81.764 39.132-.473 19.307 8.312 41.853 30.37 44.97-6.395 18.11 3.104 42.047 28.614 42.047 31.47 0 38.024-36.316 21.025-53.145 9.474-10.39 12.832-25.167 11.096-39.13 17.282 12.104 34.59-6.52 33.767-20.08-1.516-24.97-20.366-35.97-33.768-24.3-8.8-27.616-37.243-32.007-52.562-16.353 1.35-7.425.2-13.105-5.255-19.274 22.605-5.702 18.913-37.698 4.68-46.904-5.44-3.517-10.942-5.195-16.102-5.277zm68.37 5.13c-22.7 0-22.882 34.655 0 34.655s22.7-34.655 0-34.655zM177.672 74.842c-22.7 0-22.882 34.654 0 34.654s22.7-34.654 0-34.654zm64.695 59.38c-1.695.06-3.792.895-5.877 2.887-4.765 4.554-8.11 13.804-1.814 24.216 1.365 2.257 2.837 4.486 4.408 6.672l-14.21 26.414-34.43 59.637-153.62 87.682-.008.006c-11.038 6.375-16.508 14.786-17.537 24.037-1.03 9.254 2.46 20.22 13.083 31.508 45.295 48.134 101.19 77.71 164.907 95.106 15.645 4.267 26.47 2.614 33.156-2.1 6.686-4.712 11.047-13.382 11.047-28.413v-.006l.214-177.61 38.008-65.832c-14.036-3.907-26.16-10.638-36.332-18.932l8.967-16.67c13.568 12.152 31.753 20.64 55.14 20.645 11.536-.03 18.363-7.457 20.046-13.542.84-3.044.414-5.247-.604-6.73-1.018-1.48-3.004-3.204-8.754-3.66-31.006-2.452-53.782-15.764-68.293-39.714-2.816-4.65-5-5.413-6.797-5.584-.224-.02-.46-.028-.7-.02zm234.053 39.305c-22.7 0-22.882 34.655 0 34.655s22.7-34.655 0-34.655zm-44.668 86.022c-35.27 0-35.553 53.837 0 53.837s35.27-53.838 0-53.838zm-235.256 8.337l9.367 16.172-136.506 79.06-.005.003c-4 2.31-4.756 3.894-5.043 5.127-.29 1.233-.127 3.423 1.852 7.027.543.988 1.228 2.044 2.024 3.15l-.416-.193c18.068 27.077 54.2 61.967 89.34 80.934-23.56-10.45-50.91-25.15-72.737-40.756C69.11 407.5 56.51 396.524 49.78 384.272c-3.363-6.124-5.332-13.14-3.673-20.262 1.66-7.123 6.93-13.046 13.9-17.07l136.49-79.053zm-88.068 88.87c18.55 6.4 52.894 25.26 80.154 46.013 13.63 10.375 25.305 20.885 32.086 31.998 3.022 4.952 5.264 10.303 5.2 16.203l-20.626-9.488c-9.495-11.61-23.806-22.776-35.75-29.517-24.435-17.28-54.436-33.15-67.16-37.54l6.096-17.667z" />
    </symbol>
    <symbol id="icon-broken-bone" viewBox="0 0 512 512">
        <path d="M301.486 20.37l-33.19 134.755 15.306 49.895 43.55-103.81-25.666-80.84zM161.324 43.46l2.03 110.69 90.68 36.516-92.71-147.207zm180.358 126.73l-29.532 40.572 85.268-39.008-55.736-1.563zm-99.346 39.134c-59.628 41.982-124.36 74.982-199.207 81.297-13.185 1.113-21.704 8.3-26.302 15.185-13.788 20.652 8.285 51.02 54.332 33.37-55.518 33.324-8.274 81.184 25.113 43.495 34.24-38.648 74.95-74.53 117.74-91.58l12.696-28.235-32.81 6.272 48.436-59.803zm59.62 21.973l120.356 61.736-8.443-53.13-111.913-8.606zm-19.214 25.398l5.78 34.688-40.055-13.627c70.405 49.457 118.18 111.73 161.883 190.79 22.65 40.976 71.903 6.46 34.275-34.278 41.4 33.974 78.094-24.99 40.883-40.883-63.653-27.187-118.033-62.682-150.73-109.434h-.003l-52.033-27.255zm-53.697 46.844v.003l.002-.004h-.002zm0 .003l-60.248 79.27 46.773-10.303 13.475-68.967zm18.963.934l18.996 118.392 36.414-19.62-55.41-98.773z" />
    </symbol>

    <symbol id="icon-tied-scroll" viewBox="0 0 512 512">
        <path d="M373.563 18.406c-15.616-.167-27.91 4.622-32.563 14.75-22.778 49.605-48.743 87.14-79.094 117.28 3.047 1.015 6.046 2.29 8.938 3.783 12.987 6.708 25.268 17.78 35.312 30.843 10.044 13.062 17.85 28.114 20.78 43.5.746 3.908 1.16 7.885 1.158 11.843 38.97-24.36 85.058-41.223 140.875-51.312 14.91-2.697 23.652-28.632 21.405-58.656l-35.156-1 30.56-24.813c-4.148-14.507-11.013-28.754-21.155-40.72-15.528-18.314-36.43-31.376-56.72-38.686L381.94 40.812l2.812-21.5c-3.875-.55-7.61-.87-11.188-.907zM246.938 166.562c-1.063.052-2.06.226-3 .47-11.976 10.254-24.61 19.597-37.938 28.28.842.33 1.67.667 2.5 1.032 14.123 6.192 27.438 17.145 38.47 30.625 13.356 16.322 23.62 36.94 25.624 57.75 10.334-10.367 21.24-19.943 32.844-28.72 4.096-6.555 4.93-14.468 3.125-23.938-2.184-11.46-8.642-24.43-17.25-35.625-8.61-11.194-19.38-20.622-29.063-25.625-6.052-3.126-11.154-4.45-15.313-4.25zm-61.907 43.282c-1.385.053-2.69.27-3.968.562-37 20.762-79.088 37.985-127.312 56 .574.042 1.14.093 1.72.156 10.627 1.156 21.076 5.008 31.155 10.875L124.313 261 108.5 293.72c5.995 5.432 11.803 11.477 17.344 18 20.76 24.434 37.964 55.865 47.094 88.092.002.01-.003.022 0 .032 2.98 10.508 5.11 20.916 6.312 31 20.99-48.438 44.38-89.26 72.344-123 7.3-21.48-2.186-48.408-19.063-69.03-9.44-11.538-20.976-20.718-31.53-25.345-5.936-2.604-11.27-3.808-15.97-3.626zm141.626 54.844c-7.31 5.05-14.462 10.51-21.437 16.312 39.16 9.26 60.953 35.722 80.655 62.156 10.464 14.04 20.598 28.11 33.125 40.688 24.19 9.147 43.17 6.38 63.906-14.938-92.165-27.78-96.11-92.61-156.25-104.22zM48.594 284.906c-10.873.225-18.26 5.755-23.344 16.594-5.81 12.387-7.114 32.47.438 57.063 5.75 18.73 16.52 37.718 28.75 51.625 12.23 13.906 25.9 22.076 35.374 22.406h.032c3.717.13 6.553-.682 8.812-2.75l-.187-.188 2.093-2.094c.793-1.168 1.52-2.548 2.187-4.187 2.81-6.9 3.28-18.552-1.844-33-6.885-19.417-19.12-31.932-33.375-34.78l-22.968-4.564 19.813-12.5 38.47-24.186c-16.65-16.822-34.55-27.607-49.376-29.22-1.7-.184-3.323-.25-4.876-.218zm236.25 5.406l-24.53 25.375c100.442 17.878 55.45 141.005 159.31 176.188l-24.78-57.28c32.766 16.15 67.39 22.623 97.72 12.03-135.77-41.948-96.32-126.983-207.72-156.313zm-169.47 38.22l-25.968 16.343c13.18 8.5 23.21 22.565 29.125 39.25 2.57 7.244 4.133 14.205 4.75 20.78l23.44-23.374c-8.08-19.19-19.035-37.566-31.345-53zm38.376 72.374l-42.063 42-.156-.156c-4.255 3.942-9.456 6.765-15.186 7.938 23.268 14.873 44.644 19.346 56.812 9.562 4.26-3.426 7.043-8.36 8.47-14.406-.41-12.684-2.602-26.615-6.657-40.906-.382-1.346-.806-2.686-1.22-4.032z" />
    </symbol>
    <symbol id="icon-scroll-unfurled" viewBox="0 0 512 512">
        <path d="M103.432 17.844c-1.118.005-2.234.032-3.348.08-2.547.11-5.083.334-7.604.678-20.167 2.747-39.158 13.667-52.324 33.67-24.613 37.4 2.194 98.025 56.625 98.025.536 0 1.058-.012 1.583-.022v.704h60.565c-10.758 31.994-30.298 66.596-52.448 101.43-2.162 3.4-4.254 6.878-6.29 10.406l34.878 35.733-56.263 9.423c-32.728 85.966-27.42 182.074 48.277 182.074v-.002l9.31.066c23.83-.57 46.732-4.298 61.325-12.887 4.174-2.458 7.63-5.237 10.467-8.42h-32.446c-20.33 5.95-40.8-6.94-47.396-25.922-8.956-25.77 7.52-52.36 31.867-60.452 5.803-1.93 11.723-2.834 17.565-2.834v-.406h178.33c-.57-44.403 16.35-90.125 49.184-126 23.955-26.176 42.03-60.624 51.3-94.846l-41.225-24.932 38.272-6.906-43.37-25.807h-.005l.002-.002.002.002 52.127-8.85c-5.232-39.134-28.84-68.113-77.37-68.113C341.14 32.26 222.11 35.29 149.34 28.496c-14.888-6.763-30.547-10.723-45.908-10.652zm.464 18.703c13.137.043 27.407 3.804 41.247 10.63l.033-.07c4.667 4.735 8.542 9.737 11.68 14.985H82.92l10.574 14.78c10.608 14.83 19.803 31.99 21.09 42.024.643 5.017-.11 7.167-1.814 8.836-1.705 1.67-6.228 3.875-15.99 3.875-40.587 0-56.878-44.952-41.012-69.06C66.238 46.64 79.582 39.22 95.002 37.12c2.89-.395 5.863-.583 8.894-.573zM118.5 80.78h46.28c4.275 15.734 3.656 33.07-.544 51.51H131.52c1.9-5.027 2.268-10.574 1.6-15.77-1.527-11.913-7.405-24.065-14.62-35.74zm101.553 317.095c6.44 6.84 11.192 15.31 13.37 24.914 3.797 16.736 3.092 31.208-1.767 43.204-4.526 11.175-12.576 19.79-22.29 26h237.19c14.448 0 24.887-5.678 32.2-14.318 7.312-8.64 11.2-20.514 10.705-32.352-.186-4.473-.978-8.913-2.407-13.18l-69.91-8.205 42.017-20.528c-8.32-3.442-18.64-5.537-31.375-5.537H220.053zm-42.668.506c-1.152-.003-2.306.048-3.457.153-2.633.242-5.256.775-7.824 1.63-15.11 5.02-25.338 21.54-20.11 36.583 3.673 10.57 15.347 17.71 25.654 13.938l1.555-.57h43.354c.946-6.36.754-13.882-1.358-23.192-3.71-16.358-20.543-28.483-37.815-28.54z"  fill-rule="evenodd"/>
    </symbol>
    <symbol id="icon-round-struck" viewBox="0 0 512 512">
        <path  d="M444.098 19.16l-75.114 117.7-60.69-29.085L286.5 164.12c-11.048-3.82-22.37-5.51-33.496-5.257-12.552.285-24.847 3.042-36.21 7.955l-20.16-7.437 34.79-70.763L18.862 66.38l117.697 75.116-29.087 60.686 56.36 21.804c-8.05 23.45-6.478 48.13 2.763 69.5l-7.516 20.37-70.758-34.79-22.24 212.56 75.113-117.698 60.688 29.088 21.887-56.58c23.334 8.013 47.888 6.495 69.185-2.625l20.596 7.598-34.792 70.76 212.562 22.24-117.697-75.115 29.082-60.688-56.557-21.88c8.102-23.41 6.6-48.063-2.56-69.434l7.512-20.358 70.757 34.79 22.24-212.562zM253.326 177.482c3.33-.07 6.683.098 10.04.467-27.333 6.483-47.673 31.032-47.673 60.35 0 34.263 27.777 62.04 62.04 62.04 22.998 0 43.055-12.522 53.77-31.11-.914 4.94-2.313 9.866-4.24 14.717-15.896 39.996-60.943 59.42-100.94 43.524-39.994-15.894-59.42-60.94-43.524-100.937 11.92-29.994 40.24-48.418 70.526-49.05z"/>
    </symbol>

    <symbol id="icon-chest" viewBox="0 0 512 512">
        <path  d="M58.553 89L42.27 211.8H79V89H58.553zM97 89v122.8h38V89H97zm56 0v122.8h56.666v-17.6h92.668v17.6H359V89H153zm224 0v122.8h38V89h-38zm56 0v122.8h36.73L453.446 89H433zM227.666 212.2v105.2h56.668V212.2h-56.668zM256 223.794a18.667 16.103 0 0 1 18.666 16.1 18.667 16.103 0 0 1-9.666 14.09v37.214h-18V254a18.667 16.103 0 0 1-9.666-14.106 18.667 16.103 0 0 1 18.666-16.1zM41 229.8v127.915l19.334 18.23V229.8H41zm37.334 0v158h355.332v-158H302.334v105.6h-92.668V229.8H78.334zm373.332 0v146.145L471 357.715V229.8h-19.334zM41 382.456V423h43.002L41 382.455zm430 0L427.998 423H471v-40.545zM92 405.8l18.24 17.2h291.52L420 405.8H92z"/>
    </symbol>
    <symbol id="icon-locked-chest" viewBox="0 0 512 512">
        <path d="M146.857 20.842c-12.535-.036-24.268 2.86-37.285 9.424h.004C61.356 54.6 19.966 120.734 17.982 175.91l41.848 14.236c4.33-61.89 47.057-128.37 101.527-155.86h.002c4.423-2.23 8.822-4.162 13.185-5.8l-22.26-7.45c-1.83-.123-3.637-.19-5.428-.194zm59.34 20.19c-10.478-.09-22.832 3.093-36.424 9.943l.004-.004c-48.23 24.34-89.625 90.513-91.548 145.436l156.485 53.24c3.865-62.22 46.797-129.372 101.613-157.035h.002l.002-.003c4.303-2.168 8.584-4.056 12.832-5.666l-134.54-45.036c-2.652-.542-5.458-.847-8.427-.873zm174.97 58.323c-10.476-.09-22.83 3.092-36.42 9.94l-.005.002c-48.577 24.518-90.225 91.473-91.586 146.623l46.205 15.72c3.914-62.188 46.825-129.274 101.607-156.92 4.522-2.283 9.04-4.258 13.53-5.91l-26.544-8.884c-2.164-.35-4.423-.55-6.785-.57zm63.554 22.014c-10.267.093-22.094 3.353-35.333 10.034-47.158 23.8-87.777 87.587-91.362 141.75l174.55-73.726c-.404-39.01-10.754-61.304-24.415-71.082-2.347-1.68-4.867-3.057-7.55-4.137l-.01.034-4.735-1.584c-3.48-.887-7.195-1.327-11.144-1.29zM17.9 195.622l-.035 187.484L59.46 397.58V209.764L17.9 195.624zM78.15 216.12v187.962l156.282 54.37V269.288l-29.053-9.886v119.43l-101.054-34.082V225.025L78.15 216.12zm414.22 3.683L318.433 293.27v189.236l173.935-73.504v-189.2zm-369.354 11.582v99.947l63.675 21.477v-99.763l-63.674-21.662zm31.306 28.797c9.705 0 17.573 7.867 17.573 17.572 0 6.34-3.37 11.88-8.407 14.97v28.53h-18.69v-28.746c-4.838-3.13-8.048-8.562-8.048-14.754 0-9.705 7.867-17.572 17.572-17.572zm98.797 15.464v189.307l46.626 16.22V291.51l-46.627-15.864z" />
    </symbol>
    <symbol id="icon-carrion" viewBox="0 0 512 512">
        <path d="M323.625 96.625c12.83 15.365 21.246 32.45 24.063 49.844.007.01.023.018.03.03 4.098 6.483 7.3 13.663 9.376 21.406 3.872 14.452 3.23 28.98-.906 42.406 5.385-.137 10.753.234 16.03 1.063 20.337-50.824-1.366-99.53-48.593-114.75zm-229.03 6.313c-3.192-.04-6.272.958-8.75 2.78-7.217 5.303-9.528 17.636 3.874 31.5-31.695-23-53.314 13.355-23.47 23.5 38.186 12.98 62.297 37.852 91.03 66.657 4.5-8.95 9.99-16.856 16.22-23.72-29.31-29.85-48.34-53.623-62.5-87.686-3.777-9.087-10.316-12.96-16.406-13.032zm311.03 15.843c16.36 35.31 14.957 72.632-10.094 99.5 5.688 2.547 11.118 5.665 16.158 9.282 4.792 3.44 9.254 7.362 13.28 11.72 30.32-43.23 21.423-94.163-19.343-120.5zm-130.094 7.97c-5.81.065-11.757.88-17.686 2.47-36.142 9.682-56.886 44.88-47.97 78.155 4.906 18.306 17.715 31.888 34.72 39.375l4.125 1.813 1.155 4.312 10.72 40.03 77.31-20.686-10.75-40.033-1.155-4.343 2.656-3.625c10.983-14.988 15.28-33.163 10.375-51.47-7.223-26.964-32.437-45.255-61.03-45.97-.825-.02-1.64-.04-2.47-.03zm27.595 41.78c.43-.015.854-.016 1.28 0 7.4.296 14.078 5.348 16.095 12.876 2.483 9.266-3.013 18.798-12.28 21.28-9.27 2.485-18.8-3.014-21.283-12.28-2.482-9.266 3.014-18.798 12.282-21.28 1.302-.35 2.613-.546 3.905-.595zm165.594 3.19c6.195 35.648-2.874 68.998-29.22 89.155 5.5 11.813 8.25 25.165 7.25 39.406 49.058-33.438 56.908-89.938 21.97-128.56zm-222.064 12.218c7.486.204 14.276 5.273 16.313 12.875 2.482 9.266-3.015 18.797-12.283 21.28-9.267 2.484-18.798-3.014-21.28-12.28-2.484-9.267 3.013-18.798 12.28-21.282 1.16-.31 2.317-.492 3.47-.56.503-.032 1-.046 1.5-.032zm31.53 21.843l23.095 28.69-27.56 6.655 4.467-35.344zm-86.592 5.595c-11.07 10.506-19.91 24.784-24.78 43.25 14.297 7.06 26.344 16.036 35.686 27.063 13.265 15.656 20.738 35.304 21.75 57.78 4.04-.872 8.185-1.363 12.375-1.437 17.238-.304 35.058 6.446 47.875 22.658l-14.656 11.593c-14.735-18.635-37.164-19.036-53.53-10.186-8.185 4.425-14.354 11.116-17.033 18.594-.06.173-.096.356-.155.53L180 380.5c.418-2.084.98-4.12 1.688-6.094 4.274-11.932 13.145-21.438 23.968-27.75.413-21.826-5.678-39.026-17.437-52.906-11.62-13.713-29.194-24.297-52.626-31.22-2.038-.3-3.986-.457-5.813-.467-2.086-.012-4.026.152-5.843.468-7.266 1.268-12.8 4.773-17.5 10.75-9.398 11.958-14.07 34.817-10.406 61.845l3.907 28.688-19.937-21c-11.16-11.77-22.013-14.838-31.72-13.782-9.704 1.057-18.63 6.773-24.218 14.75-5.587 7.98-7.745 17.722-4.718 27.283 1.668 5.27 4.98 10.753 10.75 15.968 11.96 15.804 46.246 32.908 102.937 43.595-15.04 4.874-24.75 12.64-24.75 21.375 0 14.755 27.74 26.72 61.97 26.72 34.23 0 61.97-11.965 61.97-26.72 0-4.09-2.126-7.972-5.94-11.438 11.142.44 22.745.657 34.814.657 119.344 0 216.955-20.41 224.28-46.22 25.16-46.828-19.41-82.85-47.03-74.72l-15.313 4.5 3.564-15.56c6.54-28.536-5.674-52.045-25.813-66.5-15.23-10.935-34.772-16.04-53.53-12.907-.324.52-.633 1.048-.97 1.562l12.064 45.03 2.437 9.033-9.03 2.437-95.344 25.53-9.03 2.408-2.407-9-12.064-45.063c-19.58-9.923-35.08-27.09-41.094-49.53-.075-.283-.146-.563-.218-.845zM401.094 455c-15.935 0-28.875 5.57-28.875 12.438s12.94 12.437 28.874 12.437c15.935 0 28.844-5.57 28.844-12.438S417.027 455 401.094 455zM78.72 470.313c-15.936 0-28.845 5.568-28.845 12.437 0 6.87 12.91 12.438 28.844 12.438 15.934 0 28.843-5.57 28.843-12.438 0-6.87-12.91-12.438-28.844-12.438z" />
    </symbol>
    <symbol id="icon-wooden-door" viewBox="0 0 512 512">
        <path d="M271.125 17.813v145.562h66.938V34.5c-20.606-10.187-43.6-15.728-66.938-16.688zm-18.688.218c-22.768 1.465-45.25 7.305-65.53 17.376v127.97h65.53V18.03zM356.75 45.5v117.875h61.844c-2.66-48.27-21.532-83.515-48.656-107.53-4.2-3.72-8.6-7.17-13.188-10.345zm-188.53.813c-5.32 3.63-10.403 7.6-15.22 11.906-27.108 24.233-45.9 58.953-48.656 105.155h63.875V46.312zm269.936 97.312v19.5H459v-19.5h-20.844zm0 38.188v.25H84.78v32h353.376v.156H459v-32.407h-20.844zM104 232.75v130.375h64.22v-26.28c-2.152.362-4.346.56-6.595.56-21.91 0-39.875-17.965-39.875-39.874 0-21.907 17.964-39.874 39.875-39.874 2.25 0 4.443.2 6.594.563v-25.47H104zm82.906 0v34.03c8.893 7.334 14.594 18.41 14.594 30.75s-5.7 23.42-14.594 30.75v34.845h65.53V232.75h-65.53zm84.22 0v130.375h66.937V232.75h-66.938zm85.624 0v130.375h62.156V232.75H356.75zm81.406.156v17.938H459v-17.938h-20.844zm-276.53 43.438c-11.81 0-21.19 9.38-21.19 21.187 0 11.81 9.378 21.19 21.19 21.19 11.81 0 21.186-9.38 21.186-21.19s-9.376-21.186-21.187-21.186zm276.53 67.03v19.907H459v-19.905h-20.844zM84.78 381.813v32h353.376v.157H459v-32h-18.47v-.158H84.78zM104 432.5v59.844h64.22V432.5H104zm82.906 0v59.844h65.53V432.5h-65.53zm84.22 0v59.844h66.937V432.5h-66.938zm85.624 0v59.844h62.156V432.5H356.75zm81.406.156v17.938H459v-17.938h-20.844z" />
    </symbol>

    <symbol id="icon-brick-wall-damaged" viewBox="0 0 512 512">
        <path d="M 18,0 18,0.51 119,0.406 119,0 Z M 137,0 137,0.387 375,0.14 375,0 Z M 393,0 393,0.123 494,0.02 494,0 Z m 101,18.02 -101,0.103 0,29.334626 3.43994,7.714914 31.8143,2.318985 -25.33389,-0.195609 -4.32126,4.178671 -3.40869,3.301245 L 393,76.203389 393,119 l 70.45763,0 4.35455,-2.72883 -0.82913,-10.55931 5.87393,10.20326 L 484.0678,119 494,119 Z m -119,0.12 -13.77996,0.0143 -16.60872,4.305738 -12.64747,4.39233 8.9861,19.192105 -12.81203,-15.413922 -8.68085,1.099958 10.10394,-10.792282 -11.73131,-2.738896 -118.50835,0.12299 -12.20253,2.995152 -9.76355,-2.972355 8.84763,10.0505 2.21045,11.427619 -1.20767,11.191847 -6.27348,9.134627 -10.80174,4.044901 -11.17179,0.510266 -13.53298,-7.196049 -6.79857,1.609814 L 137,65.898304 137,119 l 175.94915,0 7.59322,-2.16949 5.43644,-4.87972 6.01131,-2.21957 6.67816,-1.946 4.76798,-6.97663 4.90643,-2.668292 c 5.57057,-0.346047 9.6324,-1.163803 14.71354,-3.080901 l 6.24117,-0.24868 3.53311,2.545215 1.35593,-5.152543 L 375,87.59322 Z M 119,18.406 18,18.51 18,119 119,119 Z M 18,137 l 0,110 95.89831,0 31.93585,-2.01318 -21.98314,-15.55949 13.13077,-12.20579 16.29897,-3.56285 -20.65711,-10.29722 14.90177,-47.48011 -6.14869,44.36236 13.40851,4.31499 8.13899,12.34734 -18.9998,11.85887 17.66342,16.24088 L 174.1017,247 247,247 l 0,-110 -37.60051,0 -28.80706,1.90371 13.99661,7.27429 -15.8708,31.85816 6.93341,-29.31301 -15.09963,-9.2333 -9.47549,-2.48985 -30.90704,0 -8.7961,2.3043 -16.15305,28.06858 L 111.45542,141.739 83.525424,137 Z m 247,0 0,39.04038 5.83359,9.7011 10.27406,23.28124 L 268.62474,197.96116 265,213.62491 265,247 l 78.24641,0 7.86207,-2.30109 3.30103,-12.33206 1.41791,-9.64832 1.37784,-4.14613 3.76335,-1.16522 3.43565,0.34038 12.01625,-2.77111 4.395,-2.87406 4.38047,0.0907 3.14646,3.24881 3.73533,0.32463 3.62714,1.94201 0.19221,3.65149 4.89989,9.56011 2.8531,12.62817 L 411.89569,247 494,247 l 0,-15.73338 -4.33299,-9.33219 -9.13963,-5.87106 -31.78221,0.62966 24.08588,-3.2644 9.69059,-4.24149 8.48068,-7.67978 L 494,186.77882 494,137 406.52648,137 391.54843,156.00515 390.60239,174.7935 385.0496,145.43734 372.77711,137 Z m -247,128 0,110 101,0 0,-110 z m 164.55932,42.84746 -15.66095,-11.67678 -22.16034,1.68997 4.76543,-15.50578 L 137,286.91525 137,375 l 200.89831,0 15.66268,-4.46154 -5.22086,-21.60739 -4.98709,-23.01969 7.97658,-15.83896 -23.57196,6.10012 -9.40275,15.28186 -63.76169,-35.64084 52.40693,22.51007 9.13511,-1.14514 13.61887,-9.53195 24.58778,-9.14405 7.11729,18.07566 -6.37865,12.49023 6.31032,14.25926 9.22756,-10.65319 L 375,320 l 0,-55 -197.64407,0 -10.38141,4.09208 -6.48806,9.49196 -6.02477,11.80515 15.93729,0.71393 z M 393,265 l 0,35.29942 2.65529,8.62234 14.51178,-6.49191 -2.84788,13.7976 22.11479,30.09384 -25.71186,-28.5326 3.55904,-9.79833 -8.43292,3.04233 -3.32346,14.9996 L 393,333.66527 393,375 l 101,0 0,-110 -31.48026,0 -11.78431,5.98833 -7.44939,16.7592 -10.69466,4.11305 10.23005,4.63689 -6.38074,55.94407 2.30944,-55.21188 -13.58174,-2.31838 13.71892,-11.49775 -3.46705,-14.08275 L 424.16819,265 Z m -375,128 0,100.98 229,-0.236 0,-34.66914 -11.13783,-8.40331 -16.51835,4.34987 -20.34225,0.22196 -15.3024,-1.63355 -11.48182,-3.99377 -7.76372,-4.24027 -4.52892,-6.23134 -7.24443,3.02476 -3.89873,4.0179 4.74695,12.4701 -23.13403,9.61184 -4.58538,-8.81068 10.5107,-1.53256 5.94989,-5.81101 -8.86835,-10.14045 11.97694,-8.00298 14.47353,-5.4768 7.75868,6.63189 9.58726,5.31436 11.0666,3.07462 16.1218,-1.28285 13.35957,-0.63524 17.75082,-12.29058 L 247,415.35408 247,393 85.694915,393 72.049083,401.44292 61.830509,423.37288 63.740883,406.98218 55.368787,396.71863 44.20339,393 Z m 247,0 0,100.727 229,-0.237 0,-76.67644 c -0.77355,-6.05555 0.25903,-12.83355 -3.79661,-17.57627 C 484.1497,393.71741 479.1688,394.63425 473.76271,393 l -72.94915,0 -7.32203,2.44068 -3.69788,9.38341 -7.63253,4.48625 -10.07531,1.54602 3.78238,13.95198 7.58086,2.30924 3.18677,5.71338 3.61949,4.53171 11.47173,-0.0772 -3.44311,5.28093 -5.55253,0.84933 -5.49127,4.11489 -9.05435,-7.31777 -3.13493,43.36341 -0.61423,-23.96304 -3.87673,-20.2478 4.10967,-6.57964 -13.45076,2.35461 -6.31881,-2.97698 -1.50925,9.01058 -7.17883,17.91855 -4.60844,24.15613 1.41578,-42.03169 4.11186,-9.23275 3.40215,-8.01832 -6.57404,-5.46381 8.49997,-0.0204 1.41531,-3.56308 1.50546,-5.06609 -0.82149,-7.78818 L 351.62909,395.509 340.33898,393 Z" />
    </symbol>

    <symbol id="icon-mouse" viewBox="0 0 512 512">
        <path d="M34.938 16.906l-13.438 13C38.818 47.84 43.224 67.702 43.938 90.53c.713 22.83-2.914 47.96-.844 73.407 2.07 25.448 10.682 51.637 35.437 73.375 12.552 11.02 28.978 20.904 50.5 29.594-35.85 77.342 47.795 132.472 156 132.938C271.356 402 258.744 410.08 251.28 423c-13.113 22.707-5.338 51.734 17.376 64.844 22.714 13.11 51.76 5.332 64.875-17.375 4.172-7.224 6.21-15.09 6.345-22.876 35.374 15.605 85.978 19.85 137.156 7.687-13.672-51.014-42.848-92.966-74.624-115.624 6.57-4.002 12.257-9.682 16.375-16.812 13.115-22.707 5.34-51.734-17.374-64.844-22.712-13.11-51.76-5.332-64.875 17.375-6.807 11.79-7.995 25.29-4.374 37.375-54.145-91.83-145.59-133.942-193.812-62.313-21.142-8.312-36.498-17.526-47.5-27.187-20.946-18.393-27.29-38.276-29.125-60.844-1.837-22.567 1.69-47.38.905-72.47-.784-25.088-6.53-51.12-27.688-73.03z" />
    </symbol>
    <symbol id="icon-police-target" viewBox="0 0 512 512">
        <path  d="M256 25c-38.346 0-71 38.034-71 87s32.654 87 71 87 71-38.034 71-87-32.654-87-71-87zm-9 23h18v7.723c24.195 3.873 43.404 23.082 47.277 47.277H320v18h-7.723c-3.873 24.195-23.082 43.404-47.277 47.277V176h-18v-7.723c-24.195-3.873-43.404-23.082-47.277-47.277H192v-18h7.723c3.873-24.195 23.082-43.404 47.277-47.277V48zm0 26.04C232.628 77.4 221.398 88.63 218.04 103H247V74.04zm18 0V103h28.96C290.6 88.628 279.37 77.398 265 74.04zM218.04 121c3.358 14.372 14.588 25.602 28.96 28.96V121h-28.96zm46.96 0v28.96c14.372-3.358 25.602-14.588 28.96-28.96H265zm33.6 83.273C286.025 212.368 271.546 217 256 217c-15.517 0-29.97-4.615-42.527-12.682-44.338 7.713-72.368 29.064-91.49 65.834C98.098 316.09 89.592 388.232 89.1 487H135V336h18v151h206V336h18v151h45.94c-.29-91.378-5.084-163.5-27.112-211.23-11.38-24.657-26.968-42.898-49.24-55.426-13.287-7.474-29.124-12.897-47.988-16.07zM247 224h18v9.82c18.095 2.283 34.883 11.78 47.824 24.82 15.09 15.205 25.32 35.535 25.32 56.788V343h9.284v18h-9.285v27.572c0 21.286-10.364 41.52-25.493 56.65-12.978 12.977-29.716 22.443-47.65 24.874V480h-18v-9.904c-17.934-2.43-34.672-11.897-47.65-24.875-15.13-15.128-25.493-35.362-25.493-56.648V361h-9.285v-18h9.285V315.386c.103-21.11 10.452-41.294 25.543-56.458 12.95-13.01 29.654-22.562 47.6-25.014V224zm18 28.04v28.077c9.014 2.324 16.945 8.083 23.074 15.29 8.126 9.552 13.496 22.05 13.496 35.26V343h18.573v-27.572c0-15.32-7.855-31.775-20.094-44.108-9.906-9.98-22.44-17.043-35.05-19.28zm-18 .138c-12.454 2.395-24.942 9.5-34.84 19.445-12.293 12.352-20.23 28.74-20.303 43.85V343h18.573v-12.372c.055-13.134 5.496-25.54 13.613-35.058 6.133-7.19 14.007-12.964 22.957-15.36v-28.032zm18 47.23V343h18.57v-12.334c0-8.124-3.668-17.085-9.207-23.596-2.858-3.36-6.105-5.948-9.363-7.662zm-18 .194c-3.216 1.747-6.432 4.333-9.262 7.65-5.574 6.535-9.275 15.46-9.308 23.453V343H247v-43.398zM191.857 361v27.572c0 15.286 7.92 31.622 20.22 43.922 9.91 9.908 22.436 16.966 34.923 19.34v-28.027c-8.938-2.378-16.827-8.11-22.977-15.284-8.143-9.5-13.593-21.95-13.593-35.19V361h-18.573zm36.573 0v12.334c0 8.095 3.69 16.977 9.26 23.477 2.84 3.312 6.074 5.89 9.31 7.626V361h-18.57zm36.57 0v43.436c3.236-1.737 6.47-4.314 9.31-7.625 5.57-6.5 9.26-15.38 9.26-23.476V361H265zm36.57 0v12.334c0 13.238-5.45 25.69-13.593 35.19-6.15 7.174-14.04 12.905-22.977 15.283v28.027c12.487-2.374 25.014-9.432 34.922-19.34 12.3-12.3 20.22-28.636 20.22-43.922V361H301.57z"/>
    </symbol>

    <symbol id="icon-expand" viewBox="0 0 512 512">
        <path d="M64 64v128l48-48 48 48 32-32-48-48 48-48H64zm256 0l48 48-48 48 32 32 48-48 48 48V64H320zM64 320v128h128l-48-48 48-48-32-32-48 48-48-48zm288 0l-32 32 48 48-48 48h128V320l-48 48-48-48z" />
    </symbol>
    <symbol id="icon-arrow" viewBox="0 0 512 512">
        <path  d="M130.81 21.785v245.95H43.84L256 489.382l212.158-221.644H381.19V21.786H130.81z"/>
    </symbol>
    <symbol id="icon-brick-wall" viewBox="0 0 512 512">
        <path d="M18 0v.51l101-.104V0H18zm119 0v.387L375 .14V0H137zm256 0v.123L494 .02V0H393zm101 18.02l-101 .103V119h101V18.02zm-119 .12l-238 .247V119h238V18.14zm-256 .266L18 18.51V119h101V18.406zM18 137v110h229V137H18zm247 0v110h229V137H265zM18 265v110h101V265H18zm119 0v110h238V265H137zm256 0v110h101V265H393zM18 393v100.98l229-.236V393H18zm247 0v100.727l229-.237V393H265z"  fill-rule="evenodd" stroke-linejoin="round"/>
    </symbol>
    <symbol id="icon-think" viewBox="0 0 512 512">
        <path d="M431.654 39.256c-7.94 0-15.646 1.078-23.123 3.236-7.398 2.158-14.72 5.435-21.966 9.828v21.735c7.477-5.164 14.645-9.096 21.504-11.793 6.937-2.698 13.45-4.045 19.54-4.045 8.324 0 14.99 2.118 20 6.357 5.088 4.24 7.63 9.79 7.63 16.65 0 3.775-1.002 7.476-3.006 11.098-1.926 3.623-5.087 7.476-9.48 11.56l-10.404 10.292c-6.937 6.628-11.485 12.447-13.643 17.457-2.158 5.01-3.236 11.408-3.236 19.192v17.805h22.08v-14.22c0-4.01.115-7.17.346-9.48.232-2.314.58-4.277 1.04-5.896.618-1.926 1.658-3.89 3.123-5.895 1.54-2.08 4.122-4.934 7.745-8.557l10.174-9.943c6.935-6.63 11.792-12.562 14.567-17.803 2.775-5.318 4.162-10.908 4.162-16.766 0-12.255-4.318-22.12-12.95-29.595-8.556-7.476-19.924-11.214-34.106-11.214zm-253.76 6.365C97.293 45.62 30 127.903 30 231.77c0 47.6 14.142 90.66 37.213 123.353 5.01-2.917 10.87-4.5 17.02-4.005 9.196.74 18.27 5.864 26.245 14.832 18.47 20.77 35.302 33.96 59.48 49.117 62.787-35.66 93.123-76.714 139.263-117.365 2.854-2.516 5.8-4.558 8.777-6.177 5.04-18.706 7.783-38.79 7.783-59.755 0-103.866-67.292-186.147-147.89-186.147zM97.01 146.063c15.177.09 30.255 8.09 43.607 23.764l-13.7 11.674c-11.907-13.977-21.85-18.017-31.802-17.385-9.952.633-21.423 6.88-33.7 18.172L49.228 169.04c13.87-12.76 28.547-21.86 44.743-22.89a43.78 43.78 0 0 1 3.037-.088zm151.96 0a43.78 43.78 0 0 1 3.036.088c16.196 1.03 30.874 10.13 44.744 22.89l-12.186 13.247c-12.278-11.293-23.748-17.54-33.7-18.172-9.953-.632-19.896 3.408-31.802 17.385l-13.7-11.674c13.352-15.674 28.43-23.673 43.607-23.763zm165.803 39.56v29.366h23.47v-29.365h-23.47zm-315.326 7.874c12.646 0 24.26 3.752 33.117 10.36 8.857 6.61 15.106 16.57 15.106 27.912 0 11.342-6.25 21.302-15.106 27.912-8.856 6.61-20.47 10.36-33.117 10.36-12.646 0-24.26-3.75-33.117-10.36-8.856-6.61-15.105-16.57-15.105-27.912 0-11.342 6.25-21.3 15.105-27.91 8.857-6.61 20.47-10.362 33.117-10.362zm156.89 0c12.647 0 24.262 3.752 33.118 10.36 8.857 6.61 15.106 16.57 15.106 27.912 0 11.342-6.248 21.302-15.105 27.912-8.856 6.61-20.47 10.36-33.117 10.36-12.646 0-24.26-3.75-33.117-10.36-8.856-6.61-15.105-16.57-15.105-27.912 0-11.342 6.25-21.3 15.106-27.91 8.857-6.61 20.472-10.362 33.118-10.362zm-160.064 18.12c-7.707.567-14.474 3.155-19.177 6.665-5.34 3.986-7.87 8.663-7.87 13.488 0 4.824 2.53 9.5 7.87 13.486 5.34 3.985 13.335 6.785 22.35 6.785 9.017 0 17.013-2.8 22.353-6.786 5.338-3.985 7.87-8.662 7.87-13.486 0-.09-.006-.177-.008-.266a19.61 19.515 0 0 1-15.506 7.584 19.61 19.515 0 0 1-19.61-19.516 19.61 19.515 0 0 1 1.727-7.955zm156.688.013c-7.623.596-14.31 3.172-18.974 6.65-5.34 3.986-7.87 8.663-7.87 13.488 0 4.824 2.53 9.5 7.87 13.486 5.34 3.985 13.336 6.785 22.352 6.785s17.012-2.8 22.35-6.786c5.34-3.985 7.873-8.662 7.873-13.486 0-.23-.01-.46-.02-.688a19.61 19.515 0 0 1-15.493 7.566 19.61 19.515 0 0 1-19.61-19.515 19.61 19.515 0 0 1 1.524-7.5zm83.263 92.337a11.32 11.32 0 0 0-1.32.012c-3.626.24-8.098 2.217-13.782 7.225-41.548 36.606-72.158 76.506-129.536 112.022l-39.91 26.484-9.953-14.997 12.454-8.264c-22.1-14.347-39.177-28.335-57.145-48.542-5.797-6.518-10.678-8.563-14.24-8.85-3.56-.286-6.562.945-9.528 3.948-5.88 5.95-9.498 19.257-4.2 32.29 12.462 22.93 36.147 44.15 54.038 71.204l1.953 2.95-.582 3.49a521.26 521.26 0 0 0-1.74 11.06h211.452c.103-1.217.18-2.456.193-3.746-.11-4.19-3.22-10.067-8.258-14.563-5.066-4.518-11.74-7.125-15.402-7.032l-12.436.317 3.587-11.91c1.944-6.454.005-14.632-4.613-18.827-4.62-4.195-12.2-6.694-27.313.99l-10.743-14.072c28.086-30.964 65.366-68.32 87.653-102.594 3.04-4.676 1.373-11.558-3.237-15.41-2.017-1.685-4.398-3.036-7.39-3.185zm-122.707 36.64l7.197 16.498c-28.058 12.24-57.48 12.936-85.8-.072l7.513-16.355c23.976 11.013 46.85 10.504 71.09-.07z" />
    </symbol>
    <symbol id="icon-fall-down" viewBox="0 0 512 512">
        <path d="M257.75 16.03A60 60 0 0 0 196 76a60 60 0 0 0 120 0 60 60 0 0 0-58.25-59.97zM250.72 166c-24.72.11-24.72 1.875-24.72 30v210h-60l90 90 90-90h-60V196c0-30 0-30-30-30-1.875 0-3.633-.007-5.28 0z" />
    </symbol>
    <symbol id="icon-conversation" viewBox="0 0 512 512">
        <path d="M211.313 21.094c-51.776 0-98.754 12.252-133.5 32.718C43.066 74.28 19.874 103.78 19.874 137.69c0 33.54 22.692 62.81 56.813 83.25L48.156 327.094l96.97-79.844c20.65 4.58 42.924 7.063 66.186 7.063 51.776 0 98.786-12.252 133.532-32.72 34.746-20.466 57.937-49.997 57.937-83.905s-23.19-63.41-57.936-83.875c-34.746-20.467-81.756-32.72-133.53-32.72zm0 18.687c48.8 0 92.866 11.77 124.03 30.126 31.165 18.357 48.75 42.447 48.75 67.78 0 25.338-17.585 49.457-48.75 67.814-31.164 18.357-75.23 30.125-124.03 30.125S118.445 223.857 87.28 205.5c-31.163-18.357-48.718-42.476-48.718-67.813 0-25.336 17.555-49.424 48.72-67.78C118.445 51.55 162.51 39.78 211.31 39.78zM96.53 89.938v18.688h93.126V89.937H96.53zm111.814 0v18.688h28.094V89.937h-28.094zm46.78 0v18.688h71.97V89.937h-71.97zM96.532 129.844v18.72h29.657v-18.72H96.53zm48.345 0v18.72h65.938v-18.72h-65.938zm84.656 0v18.72h38.095v-18.72H229.53zm56.782 0v18.72h40.782v-18.72h-40.78zM96.532 166.78v18.69h70.874v-18.69H96.53zm89.562 0v18.69h57.03v-18.69h-57.03zm75.72 0l-.002 18.69h65.282v-18.69h-65.28zm92.342 90.25c-74.88 0-135.594 41.762-135.594 93.283 0 51.52 60.716 93.28 135.594 93.28 18.23 0 35.623-2.48 51.5-6.968l68.53 51.156-24.873-71.03c24.947-16.918 40.437-40.432 40.437-66.438 0-51.518-60.714-93.28-135.594-93.28zm-70.344 42.345h32.907v18.688H283.81v-18.688zm51.594 0h90.344v18.688h-90.344v-18.688zm-78.97 41.75h78.314v18.688h-78.313v-18.688zm97.002 0h20.968v18.688h-20.97l.002-18.688zm39.656 0h51v18.688h-51v-18.688zm-109.28 39h79.06v18.688h-79.062v-18.688zm97.748 0h44.188v18.688h-44.188v-18.688z" />
    </symbol>
    <symbol id="icon-cycle" viewBox="0 0 512 512">
        <path d="M252.314 19.957c-72.036.363-142.99 33.534-189.18 95.97-69.83 94.39-59.125 223.32 19.85 304.993l-37.238 50.332 151.22-22.613L174.35 297.42l-43.137 58.308c-44.08-54.382-47.723-133.646-4.16-192.53 30.676-41.466 77.863-63.504 125.758-63.753 16.344-.085 32.766 2.382 48.645 7.467l-6.963-46.55c-23.858-4.86-47.908-5.026-71.017-.997-59.232 7.322-113.994 39.918-148.157 91.215 35.65-65.89 103.774-105.918 176.043-107.744 1.673-.042 3.347-.063 5.023-.065 14.8-.01 29.748 1.596 44.597 4.905l48.608-7.268c-31.14-13.906-64.32-20.62-97.274-20.453zm212.93 22.055l-151.217 22.61 22.614 151.22 41.126-55.588c42.204 54.29 45.092 132.048 2.187 190.043-40.22 54.367-108.82 75.32-170.19 57.566l6.522 43.598c28.726 5.533 58.236 4.414 86.203-3.07 37.448-5.957 73.34-22.05 103.16-47.728-49.196 54.65-122.615 77.514-191.744 64.34l-55.8 8.344c99.03 43.7 218.402 14.77 285.51-75.938 69.13-93.445 59.34-220.743-17.483-302.53l39.114-52.866z" />
    </symbol>
    <symbol id="icon-cycle-2" viewBox="0 0 512 512">
        <path d="M 253.57942,1.1437523 C 176.22688,1.5356033 100.0362,37.34302 50.437196,104.74141 -24.546529,206.63349 -13.051458,345.81079 71.752204,433.97512 l -39.98631,54.33237 162.380626,-24.41028 -24.28515,-163.23782 -46.32068,62.9423 c -47.333275,-58.70426 -51.245142,-144.26813 -4.46702,-207.8322 32.94001,-44.7617 83.60959,-68.551276 135.03942,-68.820066 17.55026,-0.09176 35.18426,2.57132 52.2352,8.060474 l -7.4769,-50.249774 C 273.25258,39.513854 247.4276,39.33466 222.61306,43.683883 159.00951,51.587832 100.20586,86.774548 63.521496,142.14861 101.80261,71.021703 174.95442,27.812295 252.55716,25.841165 c 1.79646,-0.04534 3.59402,-0.068 5.39371,-0.07016 15.89229,-0.0108 31.94351,1.72285 47.88843,5.294847 l 52.19546,-7.84566 C 324.59651,8.208946 288.9677,0.96132017 253.58156,1.1415933 Z M 482.22447,24.951674 319.84708,49.358707 344.13007,212.59761 388.29133,152.59149 c 45.31882,58.60496 48.41997,142.54312 2.34841,205.14754 -43.18839,58.68807 -116.85133,81.3064 -182.75068,62.14132 l 7.00335,47.06316 c 30.84608,5.97276 62.53404,4.76482 92.56511,-3.314 40.21182,-6.43046 78.75278,-23.80254 110.77362,-51.52141 -52.82686,58.99356 -131.66447,83.67478 -205.89546,69.45371 l -59.91826,9.00718 c 106.3388,47.17326 234.52092,15.94392 306.58175,-81.97352 74.23206,-100.87196 63.71952,-238.28756 -18.77332,-326.57495 l 42.00077,-57.067766 z" />
    </symbol>
    <symbol id="icon-heart" viewBox="0 0 512 512">
        <path d="M 372.40926,-0.34152811 C 327.4924,0.30402586 281.87844,25.017068 252.42459,78.958596 207.05635,-55.840856 -3.5695419,-8.3628796 1.2928875,152.78524 6.3609851,320.58006 233.46306,418.37806 257.90511,514.83686 280.27532,426.57338 518.51054,313.59343 513.73904,152.78524 510.87051,56.229144 442.47825,-1.3464863 372.40818,-0.33923891 Z"/>
    </symbol>
    <symbol id="icon-round-shield" viewBox="0 0 512 512">
        <path d="M261.563 64.28A191.758 191.758 0 0 0 64.25 256a191.758 191.758 0 1 0 383.5 0A191.758 191.758 0 0 0 261.562 64.28zm-4.625 9.126l8.937 5.156v10.313l-8.938 5.156-8.906-5.155V78.562l8.907-5.156zm3.53 29.25A153.407 153.407 0 0 1 409.407 256a153.407 153.407 0 0 1-306.812 0A153.407 153.407 0 0 1 260.47 102.656zm-11.53 20.03a133.607 133.607 0 0 0-65.157 20.908V368.22a133.607 133.607 0 0 0 65.157 21.092V122.688zm17.687.314v266.125a133.607 133.607 0 0 0 63.438-22.03V145a133.607 133.607 0 0 0-63.438-22zm-100.5 34.344A133.607 133.607 0 0 0 122.405 256a133.607 133.607 0 0 0 43.72 98.78V157.345zm-60.72 1.625l8.907 5.155v10.28l-8.906 5.157-8.937-5.156v-10.28l8.936-5.157zm300.5 0l8.94 5.155v10.28l-8.94 5.157-8.905-5.156v-10.28l8.906-5.157zm-58.155.093V353.03A133.607 133.607 0 0 0 389.594 256a133.607 133.607 0 0 0-41.844-96.938zm57.813 173.125l8.937 5.156v10.312l-8.938 5.156-8.906-5.156v-10.312l8.906-5.156zm-299.813.718l8.938 5.156v10.313l-8.938 5.156-8.938-5.155v-10.313l8.938-5.156zm149.906 85.188l8.938 5.156v10.313l-8.938 5.156-8.906-5.158V423.25l8.906-5.156z" />
    </symbol>
    <symbol id="icon-shield" viewBox="0 0 512 512">
        <path d="M256 16c25 24 100 72 150 72v96c0 96-75 240-150 312-75-72-150-216-150-312V88c50 0 125-48 150-72z" />
    </symbol>

    <symbol id="icon-select" viewBox="0 0 512 512">
        <path d="M138.563 16.063C83.49 42.974 41.459 86.794 16.124 138.53l59.938 29.407c18.988-38.845 50.47-71.807 91.812-92l-29.313-59.874zm234.843.156L344 76.124c38.846 18.99 71.807 50.47 92 91.813l59.875-29.313c-26.913-55.073-70.732-97.073-122.47-122.406zm62.53 327.717c-18.982 38.865-50.53 71.673-91.873 91.875l29.437 60.125c55.116-26.925 97.085-70.76 122.375-122.562l-59.938-29.438zm-359.936.125l-60 29.375c26.928 55.097 70.776 97.082 122.563 122.375l29.406-59.937C129.122 416.885 96.192 385.4 76 344.062z" />
    </symbol>
    <symbol id="icon-chemical-bolt" viewBox="0 0 512 512">
        <path d="M39.344 15c-.778 0-1.554.045-2.344.125-12.645 1.288-21.85 12.573-20.563 25.22 1.288 12.644 12.574 21.85 25.22 20.56C54.3 59.62 63.506 48.334 62.218 35.688 61.01 23.832 51.01 14.997 39.343 15zm121.187 9.125c-.46 0-.937.015-1.405.063-7.48.76-12.918 7.457-12.156 14.937.76 7.48 7.456 12.918 14.936 12.156 7.48-.76 12.918-7.425 12.156-14.905-.714-7.013-6.63-12.252-13.53-12.25zM84.72 42.063c-.46 0-.91.014-1.376.062-7.48.762-12.95 7.457-12.188 14.938.762 7.48 7.457 12.918 14.938 12.156 7.48-.763 12.918-7.427 12.156-14.907-.714-7.013-6.63-12.252-13.53-12.25zm109.718 11.812c-.747 0-1.492.017-2.25.094-12.136 1.235-20.986 12.082-19.75 24.218 1.235 12.135 12.083 20.985 24.218 19.75 12.135-1.236 20.955-12.084 19.72-24.22-1.16-11.376-10.744-19.846-21.94-19.843zM119.53 77.72c-1.322 0-2.654.05-4 .186-7.677.782-14.606 3.768-20.25 8.22-5.088-4.18-11.774-6.408-18.843-5.69-14.072 1.435-24.34 13.99-22.906 28.064 1.434 14.073 14.022 24.308 28.095 22.875.483-.05.964-.112 1.438-.188 4.48 11.417 14.082 20.036 25.75 23.344-1.302 3.463-1.838 7.26-1.438 11.19 1.385 13.598 13.557 23.51 27.156 22.124 13.6-1.385 23.48-13.526 22.095-27.125-.692-6.8-4.06-12.686-8.97-16.69 7.707-8.002 11.996-19.206 10.782-31.124-2.053-20.166-19.062-35.193-38.906-35.187zm108.876 43.405c-1.983 0-3.984.076-6 .28-32.25 3.286-55.722 32.094-52.437 64.345.494 4.868 1.572 9.53 3.155 13.938-16.95 7.738-27.9 25.62-25.906 45.187 2.5 24.564 24.434 42.44 49 39.938 4.128-.42 8.062-1.405 11.75-2.844.047 1.358.14 2.72.28 4.092 3.11 30.542 28.016 53.592 57.72 55.282-4.984 15.2-6.945 31.654-5.22 48.594.05.49.1.98.156 1.468-.312.024-.624.03-.937.063-19.733 2.008-34.073 19.642-32.064 39.374 2.01 19.73 19.612 34.103 39.344 32.094 7.937-.81 15.016-4.143 20.5-9.125 24.262 28.84 61.9 45.574 102.22 41.468 64.763-6.594 111.907-64.453 105.31-129.217-4.034-39.622-27.25-72.647-59.5-90.813 1.907-7.465 2.546-15.39 1.72-23.5-3.77-37.03-36.846-63.99-73.875-60.22-25.248 2.572-45.788 18.78-55.125 40.564-9.945-8.12-22.39-13.146-35.813-13.813 10.245-11.804 15.77-27.628 14.063-44.405-3.08-30.236-28.592-52.758-58.344-52.75zm108.78 1.72c-.994 0-1.987.052-2.998.155-16.18 1.648-27.96 16.1-26.313 32.28 1.648 16.182 16.1 27.962 32.28 26.314 16.182-1.648 27.962-16.1 26.314-32.28-1.546-15.17-14.356-26.474-29.283-26.47zm59.564 26.343c-.46 0-.94.046-1.406.093-7.48.763-12.918 7.427-12.156 14.907.76 7.48 7.457 12.92 14.937 12.157 7.48-.762 12.918-7.426 12.156-14.906-.713-7.013-6.63-12.252-13.53-12.25zM61.562 202.375c-.46 0-.907.015-1.374.063-7.48.76-12.95 7.425-12.188 14.906.635 6.24 5.41 11.045 11.313 12.03-.555 2.602-.722 5.338-.438 8.126 1.465 14.388 14.3 24.87 28.688 23.406 14.387-1.465 24.87-14.33 23.406-28.72-1.466-14.386-14.3-24.87-28.69-23.405-2.86.293-5.572 1.042-8.06 2.157-2.028-5.095-7.024-8.564-12.657-8.562zm44.126 75.906c-.67 0-1.352.026-2.032.095-10.883 1.108-18.796 10.835-17.687 21.72 1.107 10.882 10.834 18.795 21.718 17.686 10.883-1.107 18.795-10.803 17.687-21.686-1.04-10.203-9.648-17.815-19.688-17.813zm48.78 37.25c-1.467.002-2.945.068-4.437.22-23.873 2.43-41.243 23.782-38.81 47.656 2.43 23.874 23.75 41.244 47.624 38.813 10.225-1.043 19.265-5.562 26.062-12.25 5.16 2.962 11.255 4.397 17.625 3.75 16.182-1.65 27.962-16.102 26.314-32.283-1.648-16.18-16.1-27.96-32.28-26.312-1.783.18-3.495.523-5.158 1-7.74-12.493-21.584-20.598-36.937-20.594z" />
    </symbol>

    <symbol id="icon-curve-drop" viewBox="0 0 512 512">
        <path style="fill:none;fill-rule:evenodd;stroke:#000000;" d="m 28.538182,1027.4542 c -11.930772,9.0886 -0.958025,26.8857 10.352723,19.8437 8.483853,-4.8317 13.477492,-10.487 17.423422,-19.8437 5.002656,-12.4833 -2.272597,-54.44713 -20.453251,-73.01283 7.601225,21.51878 21.713079,50.84403 -7.322894,73.01283 z"/>
    </symbol>

    <symbol id="icon-sensuousness" viewBox="0 0 512 512">
        <path  d="M250.344 21.885c-1.224.032-2.443.15-3.656.35-9.712 1.62-18.018 8.555-23.653 19.99-5.635 11.434-8.068 27.065-5.308 43.61 2.76 16.542 10.134 30.538 19.175 39.524 9.042 8.986 19.15 12.848 28.862 11.228 9.71-1.62 18.017-8.555 23.652-19.99 5.635-11.435 8.068-27.067 5.31-43.61-2.76-16.544-10.138-30.54-19.18-39.525-7.91-7.863-16.638-11.802-25.202-11.578zm185.64 32.22c-35.615 33.13-82.033 58.62-132.83 76.217-7.837 12.763-19.697 22.255-34.316 24.694-11.368 1.896-22.54-.784-32.383-6.547-55.808 11.324-113.423 13.896-165.514 7.39 42.767 37.097 106.85 54.638 169.626 50.964-9.982 93.127-47.653 188.14-81.968 282.924 53.913-39.23 109.785-113.508 127.08-175.496 27.11 53.623 33.926 92.79 49.646 176.547h.002c34.354-84.91 33.247-202.718-13.023-301.91 56.437-22.846 101.64-67.225 113.68-134.785z"/>
    </symbol>
    <symbol id="icon-padlock" viewBox="0 0 512 512">
        <path d="M254.28 17.313c-81.048 0-146.624 65.484-146.624 146.406V236h49.594v-69.094c0-53.658 43.47-97.187 97.03-97.187 53.563 0 97.032 44.744 97.032 97.186V236h49.594v-72.28c0-78.856-65.717-146.407-146.625-146.407zM85.157 254.688c-14.61 22.827-22.844 49.148-22.844 76.78 0 88.358 84.97 161.5 191.97 161.5 106.998 0 191.968-73.142 191.968-161.5 0-27.635-8.26-53.95-22.875-76.78H85.155zM254 278.625c22.34 0 40.875 17.94 40.875 40.28 0 16.756-10.6 31.23-25.125 37.376l32.72 98.126h-96.376l32.125-98.125c-14.526-6.145-24.532-20.62-24.532-37.374 0-22.338 17.972-40.28 40.312-40.28z" />
    </symbol>

    <symbol id="icon-magic-portal" viewBox="0 0 512 512">
        <path d="M88.418 17.17l-66.12 475.242h18.866l66.12-475.242H88.42zm315.7 0l66.023 475.242h18.87L422.988 17.17h-18.87zm-56.26.24l-132.422.37c-59.343 41.506-78.325 97.982-61.596 168.03-22.324-31.34-32.747-63.248-33.59-98.234l-26.684 191.78c1.05-3.64 2.25-7.31 3.653-11.012l-3.843 12.385-4.934 35.454c.41 37.954 18.614 69.416 40.91 87.406-18.52-6.774-35.355-15.287-49.25-27.445l-9.207 66.152c43.032 20.635 88.614 24.346 120.56 17.78-33.542 18.813-71.344 29.428-125.382 16.886l-2.13 15.3h217.568c73.664-14.515 117.318-55.617 129.045-89.216 3.54 30.568-2.754 60.093-37.473 89.215h73.242l-41.553-299.11c-15.226-35.307-51.106-59.122-74.695-59.718 10.876-3.615 21.615-5.918 32.305-5.78 11.61.15 23.16 3.2 34.76 10.56l-4.207-30.278c-21.365-18.958-46.472-31.023-68.92-35.954 6.54-.477 13.043-.73 19.513-.685 15.23.104 30.273 1.868 45.18 6.21l-4.224-30.398C331.8 45.105 287.813 60.384 263.44 79.407c13.68-23.55 44.533-47.68 84.417-61.998zm-81.323 33.065c-68.785 37.085-71.87 82.26-36.1 122.146-7.626-69.52 80.94-110.016 118.96-59.032-40.867-20.17-77.79 7.84-76.21 47.723 23.234-23.997 98.678-13.267 79.795 36.19-11.3-33.297-56.74-30.094-63.648-13.77-14.75 34.866 64.34 14.582 98.117 66.284-18.85-10.875-47.74.482-39.22 14.59 32.28 53.45 84.53 113.185 13.3 147.025 23.57-38.677 10.786-65.734-21.85-81.43 25.644 66.744-5.1 163.717-103.81 133.19 62.83-11.442 78.355-62.576 57.263-83.425-23.617 60.37-122.14 97.174-181.444 38.453 58.693 22.535 99.285 7.31 120.644-26.39-35.89 21.435-95.375 6.933-113.994-42.977 28.694 29.187 67.102 37.963 91.195 20.356 13.217-9.658 8.303-25.06-8.55-29.402-24.53-6.32-61.988-12.852-76.563-36.588 21.722 6.003 43.444 10.698 65.166-3.375-33.985-22.07-81.546-50.75-50.348-100.278 1.008 35.15 17.23 56.557 53.197 48.254 9.285-2.142 16.8-15.472 8.55-23.373-61.138-58.54-47.58-160.406 65.548-174.168z" />
    </symbol>
    <symbol id="icon-magic-portal-inside" viewBox="0 0 512 512">
        <path d="m 0,0 c 0,512 0,0 0,512 512,0 0,0 512,0 0,-512 0,0 0,-512 C 0,0 512,0 0,0 Z m 266.535,50.475 c -68.785,37.085 -71.87,82.26 -36.1,122.146 -7.626,-69.52 80.94,-110.016 118.96,-59.032 -40.867,-20.17 -77.79,7.84 -76.21,47.723 23.234,-23.997 98.678,-13.267 79.795,36.19 -11.3,-33.297 -56.74,-30.094 -63.648,-13.77 -14.75,34.866 64.34,14.582 98.117,66.284 -18.85,-10.875 -47.74,0.482 -39.22,14.59 32.28,53.45 84.53,113.185 13.3,147.025 23.57,-38.677 10.786,-65.734 -21.85,-81.43 25.644,66.744 -5.1,163.717 -103.81,133.19 62.83,-11.442 78.355,-62.576 57.263,-83.425 -23.617,60.37 -122.14,97.174 -181.444,38.453 58.693,22.535 99.285,7.31 120.644,-26.39 -35.89,21.435 -95.375,6.933 -113.994,-42.977 28.694,29.187 67.102,37.963 91.195,20.356 13.217,-9.658 8.303,-25.06 -8.55,-29.402 -24.53,-6.32 -61.988,-12.852 -76.563,-36.588 21.722,6.003 43.444,10.698 65.166,-3.375 -33.985,-22.07 -81.546,-50.75 -50.348,-100.278 1.008,35.15 17.23,56.557 53.197,48.254 9.285,-2.142 16.8,-15.472 8.55,-23.373 -61.138,-58.54 -47.58,-160.406 65.548,-174.168 z"/>
    </symbol>
    <symbol id="icon-magic-portal-border" viewBox="0 0 512 512">
        <path d="m 88.418,17.17 -66.12,475.242 18.866,0 66.12,-475.242 -18.864,0 z m 315.7,0 66.023,475.242 18.87,0 L 422.988,17.17 Z"/>
    </symbol>



</svg>