<svg xmlns="http://www.w3.org/2000/svg" width="32" height="32">
    <!-- icons here -->
    <symbol id="icon-flame" viewBox="0 0 500 500">
        <path fill="#FF8360" d="M245.05 15.514c34.29 48.815-23.535 320.54-90.302 136.72C106.796 325.11 38.956 332.518 38.876 252.55c-71.6 79.31 43.824 220.767 87.376 243.935h52.127c-45.92-40.016-76.784-78-82.176-135.968 47.312 9.423 71.855 20.96 81.263-62.048 60.736 86.59 100.944-49.376 137.184-107.12-1.647 40.32-3.343 93.456 22.848 129.888 8.736 12.143 33.232 16.11 54.736 15.807-9.92 16.08-44.848 69.376-17.008 89.2 27.84 19.824 33.072-.384 25.856 16.176-13.264 20.88-22.992 39.375-59.072 54.063h56.064c59.44-18.72 111.807-91.663 94.607-135.535-22.015 18.657-43.774 30.897-61.294 29.537 49.12-72.08 37.84-145.903 14.752-221.342-20.224 72.383-33.488 82.495-54.576 99.52 29.104-68.657-85.44-214.448-146.51-253.15z" />
    </symbol>
    <symbol id="icon-drop" viewBox="0 0 500 500">
        <path fill="#529BCA" d="M263.844 40.344C234.1 213.202 145.594 248.03 145.594 369.22c0 60.804 60.106 105.5 118.25 105.5 59.45 0 115.937-41.803 115.937-99.533 0-116.332-85.2-162.312-115.936-334.843zm-58.28 217.094c-27.963 75.53-5.105 154.567 54.25 179.375 15.185 6.348 31.724 7.714 47.905 6.28-116.134 49.787-185.836-79.816-102.158-185.656z"  fill-rule="evenodd"/>
    </symbol>
    <symbol id="icon-cloud-ring" viewBox="0 0 500 500">
        <path fill="#529BCA" d="M245.22 31.387c-70.06.15-134.335 31.794-168.1 90.28-5.223 9.045-8.83 18.417-12.24 28C122.157 70.996 219.372 40.6 292.07 82.57c78.822 45.506 98.658 158.253 44.405 252.223-25.855 44.782-63.857 77.026-105.15 93.723 95.38 29.26 195.698-.307 240.96-78.704 54.027-93.574 8.905-220.773-100.055-283.68-40.858-23.59-84.976-34.837-127.01-34.747zm-24.763 49.945c-40.357.123-84.108 16.545-122.254 49.408C19.45 198.588-6.02 311.192 41.32 382.244c4.577 6.87 9.9 12.55 15.434 18.137C20.79 331.21 31.144 244.728 83.69 199.46c56.97-49.083 141.443-31.06 188.98 40.292 22.654 34.003 32.705 73.913 30.926 111.78 51.07-67.13 63.006-155.83 23.347-215.356h-.002C302.534 99.54 263.42 81.2 220.458 81.332zm-63.36 107.71c-26.76.083-53.228 9.95-73.05 29.65-48.848 48.55-47.855 142.19 1.144 205.94 49 63.75 128.323 76.074 177.17 27.524-47.107 29.645-84.88 26.3-128.778-20.916-39.45-42.43-24.435-122.8 24.62-171.554 23.376-23.234 51.128-35.812 77.675-37.696-21.48-22.033-50.296-33.034-78.78-32.947z" />
    </symbol>
    <symbol id="icon-fluffy-cloud" viewBox="0 0 500 500">
        <path fill="#529BCA" d="M225.438 18.156c-15.105.14-32.56 2.526-52.407 7.844-35.26 9.45-65.035 28.973-88.374 54.844-17.668 13.755-36.98 46.39-51.437 85.97-16.415 55.046-16.447 120.304-2.157 188.155C34.84 372.91 44.14 385.08 57.5 392.093c13.36 7.01 31.353 8.776 52.688 3.062 13.473-3.608 23.028-12.44 28.812-22.75 5.784-10.31 7.226-22.05 5.313-29.187-4.335-16.17-19.078-25.202-32.313-21.658-9.02 2.417-13.433 10.27-13.5 16.97-.034 3.35.976 6.065 2.75 7.968 1.774 1.903 4.493 3.497 10 3.594l-.344 18.687c-9.57-.168-17.87-3.693-23.312-9.53s-7.856-13.482-7.78-20.906c.148-14.85 10.064-30.185 27.342-34.813 24.03-6.434 48.515 9.84 55.22 34.845 3.605 13.45.802 29.11-7.095 43.188-7.896 14.077-21.48 26.63-40.25 31.656-4.174 1.117-8.282 1.972-12.343 2.624 98.875 90.13 248.893 110.83 349.344 9.72 18.164-18.283 31.29-40.735 38.595-65.127.02-.063.044-.124.063-.187 9.94-40.298 4.91-84.342-17.5-123.156-44.153-76.474-142.198-106.276-193.094-78.28-57.27 23.11-71.688 56.892-76.625 81.874-21.635 61.008 4.65 135.55 67.686 156.375 43.724 14.443 97.45-5.348 111.656-51.25 9.364-30.262-4.29-66.992-35.437-75.532-9.543-2.616-20.58-1.58-29.438 2.658-8.858 4.237-15.41 11.2-17.78 21.093-1.297 5.42-.55 11.935 1.906 16.814 2.455 4.88 5.99 8.01 11.25 8.97 1.883.342 4.31-.074 6.28-.845-2.017-.512-3.482-1.562-4.343-2.345-1.39-1.288-3.168-3.693-3.656-6.563-.78-4.998 2.214-9.82 5.03-11.906 2.818-2.086 5.51-2.925 8.845-2.906 6.21.034 11.453 3.97 14.03 8.125 2.577 4.154 3.51 8.625 2.97 13.28v.033c-.982 8.283-6.386 14.75-12.533 18.187-6.146 3.438-13.153 4.556-19.968 3.313-11.435-2.087-20.017-9.842-24.595-18.938-4.578-9.096-5.78-19.644-3.406-29.563 3.774-15.756 14.824-27.336 27.905-33.593 13.08-6.257 28.324-7.683 42.438-3.813 42.675 11.702 60.497 59.787 48.343 99.064-17.637 56.99-82.493 80.936-135.375 63.47-68.184-22.526-99.163-97.1-84.28-163.44-18.918-16.436-34.28-39.526-40.47-62.624-14.74-55.014 32.67-114.382 82.19-130.563 42.26-13.775 79.575 5.404 60.124 39.094 33.446-28.243 15.37-79.8-57.406-79.124z" />
    </symbol>
    <symbol id="icon-mite-alt" viewBox="0 0 500 500">
        <path fill="#000000" d="M370.06 77.686c-10.644.085-21.42 1.936-31.816 5.86-14.63 5.53-17.103 17.274-12.506 23.895 14.11 29.535 18.452 62.364 3.78 90.1-17.168-25.923-43.89-42.415-73.518-42.415-29.626 0-56.347 16.496-73.516 42.42-14.672-27.734-10.335-60.56 3.772-90.09 4.606-6.62 2.138-18.37-12.5-23.894-41.58-15.69-89.25 1.756-110.16 32.82 30.66-8.7 66.99-27.915 103.05-7.155.675.39 1.342.735 1.997 1.045-13.33 33.103-15.584 70.885 5.423 102.39-3.543 7.674-6.336 15.914-8.263 24.588-26.844-17.095-39.352-48.493-41.52-81.71l-.17.01c-.018-8.626-13.526-18.352-30.46-12.02C52.03 159.1 27.61 203.606 32.32 240.76c17.003-26.187 38.658-65.485 77.91-74.688 4.368 35.197 20.396 69.337 53.086 87.086-.373 4.018-.572 8.1-.572 12.246 0 2.983.097 5.85.283 8.614-25.055-5.735-46.175-23.645-61.806-46.41-.038-.06-.084-.12-.124-.18-.353-.516-.72-1.02-1.067-1.54l-.08.05c-5.773-6.48-18.946-7.902-28.93 4.216-28.26 34.29-25.08 73.666-13.86 107.116 1.65-31.567 8.098-64.37 38.725-91.67 17.705 22.113 41.41 39.493 69.43 44.134 2.336 9.984 6.2 18.202 11.322 25.02-21.07 2.364-43.31-3.103-63.85-13.248l-.03.064c-7.296-3.463-17.49.828-19.402 16.125-5.475 43.83 14.19 87.256 39.99 101.73-13.334-23.954-23.805-58.905-13.8-98.31.023-.09.035-.177.057-.267 22.498 8.685 47.02 12.214 70.2 6.79 4.84 3.53 10.313 6.46 16.288 8.858-9.288 2.466-18.875 12.258-19.66 26.29-1.815 32.91 28.185 46.034 51.105 39.704-18.345-8.55-27.09-37.8-13.695-52.14-.348-3.926-1.426-6.985-3.006-9.262C231.57 343.6 243.418 344.8 256 344.8c13.92 0 26.943-1.463 38.55-4.556-1.927 2.343-3.25 5.674-3.646 10.106 13.395 14.34 4.652 43.59-13.693 52.14 22.92 6.33 52.92-6.795 51.104-39.705-.827-14.944-11.646-25.085-21.457-26.68 5.61-2.327 10.77-5.13 15.358-8.474 23.173 5.414 47.688 1.882 70.18-6.802.023.097.035.19.06.287 9.99 39.405-.466 74.34-13.8 98.31 25.8-14.46 45.465-57.885 39.99-101.73-1.912-15.3-12.11-19.59-19.405-16.123l-.04-.082c-20.533 10.14-42.762 15.61-63.825 13.252 5.114-6.814 8.976-15.025 11.31-25.002 28.02-4.637 51.726-22.026 69.43-44.14 30.627 27.3 37.074 60.104 38.725 91.656 11.22-33.45 14.4-72.81-13.86-107.115-9.984-12.11-23.157-10.683-28.93-4.2l-.08-.053c-.347.52-.713 1.025-1.066 1.54-.04.062-.086.12-.125.182-15.633 22.765-36.754 40.682-61.81 46.413.188-2.765.286-5.634.286-8.62 0-4.146-.2-8.233-.572-12.253 32.683-17.75 48.722-51.882 53.08-87.09 39.246 9.22 60.9 48.513 77.9 74.684 4.71-37.155-19.71-81.658-61.334-97.228-16.928-6.326-30.434 3.41-30.447 12.035l-.182-.01c-2.153 33.22-14.666 64.602-41.503 81.698-1.926-8.672-4.72-16.91-8.26-24.582 21.006-31.508 18.75-69.293 5.417-102.398.656-.31 1.324-.656 2-1.047 36.06-20.76 72.405-1.53 103.05 7.155-15.682-23.3-46.416-38.936-78.345-38.68zM210.58 244.42c19.455 0 35.22 15.766 35.22 35.22 0 19.44-15.765 35.22-35.22 35.22-19.44 0-35.22-15.764-35.22-35.22 0-19.44 15.765-35.22 35.22-35.22zm90.84 0c19.44 0 35.22 15.766 35.22 35.22 0 19.44-15.765 35.22-35.22 35.22-19.44 0-35.22-15.764-35.22-35.22 0-19.44 15.765-35.22 35.22-35.22zm-97.006 8.97c-9.72 0-17.61 7.89-17.61 17.61 0 9.72 7.89 17.61 17.61 17.61 9.72 0 17.61-7.89 17.61-17.61 0-9.72-7.89-17.61-17.61-17.61zm90.842 0c-9.72 0-17.61 7.89-17.61 17.61 0 9.72 7.89 17.61 17.61 17.61 9.72 0 17.61-7.89 17.61-17.61 0-9.72-7.89-17.61-17.61-17.61zm-69.182 35.43c-4.86 0-8.804 3.945-8.804 8.805 0 4.86 3.944 8.805 8.804 8.805s8.807-3.945 8.807-8.805c0-4.86-3.946-8.805-8.806-8.805zm90.84 0c-4.86 0-8.805 3.945-8.805 8.805 0 4.86 3.944 8.805 8.804 8.805s8.807-3.945 8.807-8.805c0-4.86-3.946-8.805-8.806-8.805z" />
    </symbol>

    <symbol id="icon-emerald" viewBox="0 0 500 500">
        <path d="M310.375 16.75L89.405 75.72l58.126 50.905L282.563 90.28l2.032-.53 25.78-73zm17.063 7.844l-27.157 76.812 91.69 91.875 95.624-8.78L327.438 24.594zm-41.813 12.062l-8.594 33.657c-.28-15.516-38.03-17.018-107.56-4.376l116.155-29.28zm51.063 14.625l123.5 123.407-58.844 7.563c16.2-21.37-32.277-91.112-64.656-130.97zM74.75 87.72L15.594 308.405l79-31.47 37.28-139.155L74.75 87.72zm207.438 22l-133.032 35.81-35.72 133.376 97.25 97.53 133.064-35.81 35.72-133.376-97.283-97.53zm-201.72 5.686l32.844 30.5-30.156 118.97-39.03 15.812c50.817-30.543 65.667-130.132 36.343-165.282zm195.876 14.78L359 213.377l-30.156 113.81-44.688 11.97c119.527-107.872-34.816-238.375-131.5-140.875l9.875-37.405 113.814-30.688zM490.564 203l-92.877 8.53-35.968 134.19 71.342 71.842L490.563 203zm-17.283 13.875L444.03 333.03c6.73-68.874-.03-90.85-30.655-111.5l59.906-4.655zm-371.155 77.188L20.22 326.688l161.75 161.468 17.31-96.72-97.155-97.373zm.094 20l78.124 82.437-7.438 61.375c-5.23-44.565-28.34-85.92-70.687-143.813zm246.124 44.687l-130.53 35.125-17.564 98.188 221.688-59.157-73.594-74.156zm18.625 42.5l24.28 24.844-115.22 32.72c61.28-26.446 83.34-37.418 90.94-57.564z" />
    </symbol>
    <symbol id="icon-ore" viewBox="0 0 500 500">
        <path  d="M344.578 493.54l-117.214-2.024L118.9 338.536l14.355-51.353 35.264 9.38 40.145 42.033-17.467-59.874 23.836-35.358-42.748-104.034 43.165-79.45 72.434 22.468 46.26 80.46-29.474 5-38.478-35.017 22.568 48.064-.672 37.364-26.09 18.224 34.95 1.284 47.145 23.835 28.75-27.874 38.488 19.057 10.647 37.578-18.97-13.784-78.166 39.967-44.983-15.39 5.86-27.153-42.766 3.274 23.573 11.913-9.49 22.943 58.037 31.285 20.34 79.423-15.45 34.73 29.397-20.36 66.83-9.438-71.61 65.81zm-158.524-3.538l-53.48-2.296 27.663-64.006 34.38 49.695-8.563 16.607zm-86.78-37.04l-11.08-34.875-35.503-10.204 34.858-11.09 10.212-35.5 11.09 34.855 35.502 10.22-34.857 11.082-10.22 35.51zm252.983-33.208l-21.565-84.228 72.042-38.99 53.683 59.322-18.665 52.23-85.495 11.666zM169.47 280.677l-59.133-15.612-20.298-69.16 66.064-37.45 36.94 84.126-23.573 38.097zm172.106-38.972l-38.385-19.66 1.574-38.86 43.607-9.917 26.753 39.296-33.547 29.14zm58.845-47.23l-14.234-45.425-46.14-13.46 45.41-14.262 13.46-46.132 14.252 45.41 46.14 13.478-45.41 14.235-13.477 46.156zM327.01 124.9l-28.666-56.762-28.972-7.96 22.645-41.718 29.312 14.278 17.84 59.542-12.16 32.62z"/>
    </symbol>
    <symbol id="icon-fire-bottle" viewBox="0 0 500 500">
        <path d="M414.875 20.625L408.28 27.5l-6.155 6.375 72.47 72.47L481.06 100l6.72-6.594-6.688-6.656-59.47-59.406-6.75-6.72zm-42.438 10L339.47 63.563 442.874 166.97 475.813 134 372.438 30.625zM219.22 88.875c-1.15 0-2.29.013-3.44.03-50.362.818-100.432 20.43-138.874 58.845-78.645 78.614-78.63 206.058.03 284.688 78.665 78.63 206.195 78.65 284.845 0 66.53-66.5 76.702-167.79 30.595-245.157l22.375-22-13.22-13.218-27.467 27-5.438 5.344 4.156 6.406c29.643 45.634 36.865 101.44 21.626 152-16.766-1.182-31.593-14.78-36.125-34-3.035-12.897-1.504-26.806 4.658-37.156-39.524 16.293-51.447 45.442-41.813 89.813-38.003 5.345-33.94-43.066-58.125-57.97-1.747 40.85-49.1 68.87-73.03 40.22-23.55-28.187 3.92-67.758 39-60.44-34.632-28.662-65.7-26.033-97.532 4.626 4.97-28.496 15.814-46.957 35.593-57.28C102.417 235.333 56.08 279.655 41.376 332c-14.042-59.465 2.182-124.513 48.72-171.03 26.516-26.5 59.07-43.166 93.186-50-1.638 2.04-2.81 4.325-3.468 6.78-5.217 19.473 24.254 44.27 65.813 55.406 41.56 11.136 79.47 4.38 84.688-15.094 1.552-5.795-.005-12.072-4-18.312l4.187-4.344 26.656-27.72-13.25-13.25-21.812 22.69c-31.632-18.792-67.267-28.222-102.875-28.25zM249 209.03c-19.79.31-43.318 10.84-66.313 34.5 51.676-15.715 93.58-10.627 113.094 42.22 10.9-45.567-11.252-76.12-44.874-76.72-.63-.01-1.268-.01-1.906 0z" />
    </symbol>
    <symbol id="icon-fizzing-flask" viewBox="0 0 500 500">
        <path d="M365.47 18.727c-11.353-.18-21.053 7.365-24.786 20.058h-.002c-24.423-7.6-57.52-4.092-68.328 19.856-15.69-20.86-47.866-13.98-55.194 9.85-7.328 23.828 13.462 49.474 44.68 48.55-3.078 33.98 44.304 54.69 81.764 39.132-.473 19.307 8.312 41.853 30.37 44.97-6.395 18.11 3.104 42.047 28.614 42.047 31.47 0 38.024-36.316 21.025-53.145 9.474-10.39 12.832-25.167 11.096-39.13 17.282 12.104 34.59-6.52 33.767-20.08-1.516-24.97-20.366-35.97-33.768-24.3-8.8-27.616-37.243-32.007-52.562-16.353 1.35-7.425.2-13.105-5.255-19.274 22.605-5.702 18.913-37.698 4.68-46.904-5.44-3.517-10.942-5.195-16.102-5.277zm68.37 5.13c-22.7 0-22.882 34.655 0 34.655s22.7-34.655 0-34.655zM177.672 74.842c-22.7 0-22.882 34.654 0 34.654s22.7-34.654 0-34.654zm64.695 59.38c-1.695.06-3.792.895-5.877 2.887-4.765 4.554-8.11 13.804-1.814 24.216 1.365 2.257 2.837 4.486 4.408 6.672l-14.21 26.414-34.43 59.637-153.62 87.682-.008.006c-11.038 6.375-16.508 14.786-17.537 24.037-1.03 9.254 2.46 20.22 13.083 31.508 45.295 48.134 101.19 77.71 164.907 95.106 15.645 4.267 26.47 2.614 33.156-2.1 6.686-4.712 11.047-13.382 11.047-28.413v-.006l.214-177.61 38.008-65.832c-14.036-3.907-26.16-10.638-36.332-18.932l8.967-16.67c13.568 12.152 31.753 20.64 55.14 20.645 11.536-.03 18.363-7.457 20.046-13.542.84-3.044.414-5.247-.604-6.73-1.018-1.48-3.004-3.204-8.754-3.66-31.006-2.452-53.782-15.764-68.293-39.714-2.816-4.65-5-5.413-6.797-5.584-.224-.02-.46-.028-.7-.02zm234.053 39.305c-22.7 0-22.882 34.655 0 34.655s22.7-34.655 0-34.655zm-44.668 86.022c-35.27 0-35.553 53.837 0 53.837s35.27-53.838 0-53.838zm-235.256 8.337l9.367 16.172-136.506 79.06-.005.003c-4 2.31-4.756 3.894-5.043 5.127-.29 1.233-.127 3.423 1.852 7.027.543.988 1.228 2.044 2.024 3.15l-.416-.193c18.068 27.077 54.2 61.967 89.34 80.934-23.56-10.45-50.91-25.15-72.737-40.756C69.11 407.5 56.51 396.524 49.78 384.272c-3.363-6.124-5.332-13.14-3.673-20.262 1.66-7.123 6.93-13.046 13.9-17.07l136.49-79.053zm-88.068 88.87c18.55 6.4 52.894 25.26 80.154 46.013 13.63 10.375 25.305 20.885 32.086 31.998 3.022 4.952 5.264 10.303 5.2 16.203l-20.626-9.488c-9.495-11.61-23.806-22.776-35.75-29.517-24.435-17.28-54.436-33.15-67.16-37.54l6.096-17.667z" />
    </symbol>

    <symbol id="icon-tied-scroll" viewBox="0 0 500 500">
        <path d="M373.563 18.406c-15.616-.167-27.91 4.622-32.563 14.75-22.778 49.605-48.743 87.14-79.094 117.28 3.047 1.015 6.046 2.29 8.938 3.783 12.987 6.708 25.268 17.78 35.312 30.843 10.044 13.062 17.85 28.114 20.78 43.5.746 3.908 1.16 7.885 1.158 11.843 38.97-24.36 85.058-41.223 140.875-51.312 14.91-2.697 23.652-28.632 21.405-58.656l-35.156-1 30.56-24.813c-4.148-14.507-11.013-28.754-21.155-40.72-15.528-18.314-36.43-31.376-56.72-38.686L381.94 40.812l2.812-21.5c-3.875-.55-7.61-.87-11.188-.907zM246.938 166.562c-1.063.052-2.06.226-3 .47-11.976 10.254-24.61 19.597-37.938 28.28.842.33 1.67.667 2.5 1.032 14.123 6.192 27.438 17.145 38.47 30.625 13.356 16.322 23.62 36.94 25.624 57.75 10.334-10.367 21.24-19.943 32.844-28.72 4.096-6.555 4.93-14.468 3.125-23.938-2.184-11.46-8.642-24.43-17.25-35.625-8.61-11.194-19.38-20.622-29.063-25.625-6.052-3.126-11.154-4.45-15.313-4.25zm-61.907 43.282c-1.385.053-2.69.27-3.968.562-37 20.762-79.088 37.985-127.312 56 .574.042 1.14.093 1.72.156 10.627 1.156 21.076 5.008 31.155 10.875L124.313 261 108.5 293.72c5.995 5.432 11.803 11.477 17.344 18 20.76 24.434 37.964 55.865 47.094 88.092.002.01-.003.022 0 .032 2.98 10.508 5.11 20.916 6.312 31 20.99-48.438 44.38-89.26 72.344-123 7.3-21.48-2.186-48.408-19.063-69.03-9.44-11.538-20.976-20.718-31.53-25.345-5.936-2.604-11.27-3.808-15.97-3.626zm141.626 54.844c-7.31 5.05-14.462 10.51-21.437 16.312 39.16 9.26 60.953 35.722 80.655 62.156 10.464 14.04 20.598 28.11 33.125 40.688 24.19 9.147 43.17 6.38 63.906-14.938-92.165-27.78-96.11-92.61-156.25-104.22zM48.594 284.906c-10.873.225-18.26 5.755-23.344 16.594-5.81 12.387-7.114 32.47.438 57.063 5.75 18.73 16.52 37.718 28.75 51.625 12.23 13.906 25.9 22.076 35.374 22.406h.032c3.717.13 6.553-.682 8.812-2.75l-.187-.188 2.093-2.094c.793-1.168 1.52-2.548 2.187-4.187 2.81-6.9 3.28-18.552-1.844-33-6.885-19.417-19.12-31.932-33.375-34.78l-22.968-4.564 19.813-12.5 38.47-24.186c-16.65-16.822-34.55-27.607-49.376-29.22-1.7-.184-3.323-.25-4.876-.218zm236.25 5.406l-24.53 25.375c100.442 17.878 55.45 141.005 159.31 176.188l-24.78-57.28c32.766 16.15 67.39 22.623 97.72 12.03-135.77-41.948-96.32-126.983-207.72-156.313zm-169.47 38.22l-25.968 16.343c13.18 8.5 23.21 22.565 29.125 39.25 2.57 7.244 4.133 14.205 4.75 20.78l23.44-23.374c-8.08-19.19-19.035-37.566-31.345-53zm38.376 72.374l-42.063 42-.156-.156c-4.255 3.942-9.456 6.765-15.186 7.938 23.268 14.873 44.644 19.346 56.812 9.562 4.26-3.426 7.043-8.36 8.47-14.406-.41-12.684-2.602-26.615-6.657-40.906-.382-1.346-.806-2.686-1.22-4.032z" />
    </symbol>
    <symbol id="icon-scroll-unfurled" viewBox="0 0 500 500">
        <path d="M103.432 17.844c-1.118.005-2.234.032-3.348.08-2.547.11-5.083.334-7.604.678-20.167 2.747-39.158 13.667-52.324 33.67-24.613 37.4 2.194 98.025 56.625 98.025.536 0 1.058-.012 1.583-.022v.704h60.565c-10.758 31.994-30.298 66.596-52.448 101.43-2.162 3.4-4.254 6.878-6.29 10.406l34.878 35.733-56.263 9.423c-32.728 85.966-27.42 182.074 48.277 182.074v-.002l9.31.066c23.83-.57 46.732-4.298 61.325-12.887 4.174-2.458 7.63-5.237 10.467-8.42h-32.446c-20.33 5.95-40.8-6.94-47.396-25.922-8.956-25.77 7.52-52.36 31.867-60.452 5.803-1.93 11.723-2.834 17.565-2.834v-.406h178.33c-.57-44.403 16.35-90.125 49.184-126 23.955-26.176 42.03-60.624 51.3-94.846l-41.225-24.932 38.272-6.906-43.37-25.807h-.005l.002-.002.002.002 52.127-8.85c-5.232-39.134-28.84-68.113-77.37-68.113C341.14 32.26 222.11 35.29 149.34 28.496c-14.888-6.763-30.547-10.723-45.908-10.652zm.464 18.703c13.137.043 27.407 3.804 41.247 10.63l.033-.07c4.667 4.735 8.542 9.737 11.68 14.985H82.92l10.574 14.78c10.608 14.83 19.803 31.99 21.09 42.024.643 5.017-.11 7.167-1.814 8.836-1.705 1.67-6.228 3.875-15.99 3.875-40.587 0-56.878-44.952-41.012-69.06C66.238 46.64 79.582 39.22 95.002 37.12c2.89-.395 5.863-.583 8.894-.573zM118.5 80.78h46.28c4.275 15.734 3.656 33.07-.544 51.51H131.52c1.9-5.027 2.268-10.574 1.6-15.77-1.527-11.913-7.405-24.065-14.62-35.74zm101.553 317.095c6.44 6.84 11.192 15.31 13.37 24.914 3.797 16.736 3.092 31.208-1.767 43.204-4.526 11.175-12.576 19.79-22.29 26h237.19c14.448 0 24.887-5.678 32.2-14.318 7.312-8.64 11.2-20.514 10.705-32.352-.186-4.473-.978-8.913-2.407-13.18l-69.91-8.205 42.017-20.528c-8.32-3.442-18.64-5.537-31.375-5.537H220.053zm-42.668.506c-1.152-.003-2.306.048-3.457.153-2.633.242-5.256.775-7.824 1.63-15.11 5.02-25.338 21.54-20.11 36.583 3.673 10.57 15.347 17.71 25.654 13.938l1.555-.57h43.354c.946-6.36.754-13.882-1.358-23.192-3.71-16.358-20.543-28.483-37.815-28.54z"  fill-rule="evenodd"/>
    </symbol>


</svg>