<svg xmlns="http://www.w3.org/2000/svg" width="32" height="32">
    <!-- icons here -->
    <symbol id="icon-bullet-backward-line" viewBox="0 0 512 512">
        <path d="M 0,0 C 167.73126,131.60629 334.10146,-44.026371 378.91336,98.307824 422.65694,237.24877 -1.7924494,178.3395 107.19597,351.41968 198.42402,496.29532 313.62672,271.65323 419.26538,298.64592 518.7612,324.06899 437.10698,426.7713 512,512" />
    </symbol>
    <symbol id="icon-bullet-cercle-line" viewBox="0 0 512 512">
        <path d="M 0,0 C -170.26223,386.91493 43.78368,505.29489 158.97857,507.90867 324.49512,482.29503 359.14532,454.24463 512,512" />
    </symbol>
    <symbol id="icon-bullet-around-line" viewBox="0 0 512 512">
        <path d="m 0,0 c 354.38703,224.30434 558.49078,16.904391 563.97098,472.62525 0.9207,76.56323 13.81781,101.36271 -49.92716,127.10987 C 410.64644,641.49824 425.81031,429.72912 512,512" />
    </symbol>
    <symbol id="icon-bullet-around-side-line" viewBox="0 0 512 512">
        <path d="M 0,0 C 158.02708,58.625626 315.26405,-109.12111 415.16695,-33.615271 451.40051,-6.2302293 435.642,34.784097 396.43383,55.905599 351.11774,80.31744 314.11344,59.017969 295.50699,33.507573 255.63336,-21.161192 429.62888,-121.56949 485.73986,-32.213141 519.57138,21.663319 565.15028,153.36303 510.97569,184.00427 413.9125,238.90338 514.78591,343.82164 512,512" />
    </symbol>
    <symbol id="icon-bullet-far-right-line" viewBox="0 0 512 512">
        <path d="m 0,0 c 99.732717,95.443118 -441.0286,657.90998 -341.1257,733.41582 36.23356,27.38504 147.10639,-119.96079 226.71682,-171.2697 C 192.47074,364.36227 752.47624,139.91254 547.79318,550.64513 318.80064,676.1111 402.79937,319.27665 512,512" />
    </symbol>
    <symbol id="icon-bullet-simple-right-line" viewBox="0 0 512 512">
        <path d="M 0,0 C 67.517411,224.30434 -268.95406,628.07527 -0.56390039,448.08025 330.80165,225.85099 447.19587,408.03432 512,512" />
    </symbol>
    <symbol id="icon-bullet-simple-middle-line" viewBox="0 0 512 512">
        <path d="M 0,0 C 131.94802,139.93092 504.65372,5.5314342 256,255.857 3.9381405,509.61362 385.83338,386.55745 512,512" />
    </symbol>
    <symbol id="icon-bullet-simple-middle-line-2" viewBox="0 0 512 512">
        <path d="M 0,0 C 131.94802,139.93092 4.5494498,510.23789 256,255.857 507.4413,1.485468 385.83338,386.55745 512,512" />
    </symbol>
    <symbol id="icon-bullet-sinus" viewBox="0 0 512 512">
        <path d="M 0,0 C 76.777435,3.3272173 224.3512,30.451722 128,128 47.093014,209.91218 163.12297,347.63617 256,255.857 356.83232,156.21657 448.53998,315.06294 384,384 278.22471,496.98171 439.22491,514.67075 512,512" />
    </symbol>
    <symbol id="icon-bullet-sinus-2" viewBox="0 0 512 512">
        <path d="M 0,0 C 0.0743257,66.223767 39.24861,232.51034 128,128 217.37392,22.756594 357.94887,135.93559 256,255.857 164.18237,363.86114 311.78084,464.0816 384,384 498.26068,257.29986 517.46208,434.89952 512,512" />
    </symbol>
    <symbol id="icon-bullet-start-spin" viewBox="0 0 512 512">
        <path d="M 0,0 C 36.260354,51.047594 134.83291,27.364931 98.155623,-50.057188 57.028746,-136.87196 -110.31724,-98.298353 -114.0845,21.610969 -119.2363,185.58959 110.45511,264.96707 244.56167,80.450596 362.41866,-81.708178 596.41706,-22.346517 567.73665,114.42895 516.90286,356.85278 355.15074,231.57161 512,512" />
    </symbol>
    <symbol id="icon-bullet-sphere-cast" viewBox="0 0 512 512">
        <path d="m 78.863245,272.20797 c -4.03717,-237.408956 329.691225,-237.822576 325.007535,0 C 394.91071,727.16929 -17.947605,40.953114 136.62891,94.476753 218.60165,122.86061 572.01148,332.11147 371.57501,356.20109 -176.76025,422.10322 184.2059,158.41356 284.65986,116.16116 529.91347,13.003903 437.56511,553.98697 102.43022,406.52772 22.66492,371.43101 496.67687,35.747714 443.6631,169.8681 257.97066,639.65445 86.501385,315.28823 82.719255,270.40009" />
    </symbol>
    <symbol id="icon-bullet-sphere-cast-2" viewBox="0 0 512 512">
        <path d="M 400.9942,271.69968 C 426.23852,490.90478 202.46653,455.9807 235.74017,371.3727 421.12713,-100.028 -11.369062,100.42445 143.16676,161.14144 225.11791,193.33997 711.33621,443.26369 285.87188,449.42671 -112.2122,455.19309 196.15352,138.92019 296.58103,90.989247 541.77006,-26.031908 339.90228,187.64217 75.358801,269.02453 -58.861263,310.31508 414.74273,544.76375 293.95784,294.65577 130.59356,-43.620904 339.22488,85.538327 399.42689,269.64883" />
    </symbol>
    <symbol id="icon-bullet-sphere-cast-3" viewBox="0 0 512 512">
        <path d="m 256.16238,256.54431 c 164.89342,414.48361 471.84195,254.36715 5.3305,-0.73152 C 72.250809,-190.81605 -209.4384,48.200503 259.83102,255.05822 -205.4866,456.86311 72.447142,731.4269 252.19577,246.92842 430.45981,-195.6235 723.53618,64.004916 258.84611,256.5712" />
    </symbol>
    <symbol id="icon-bullet-line" viewBox="0 0 512 512">
        <path d="M 0,0 C 512,512 0,0 512,512" />
    </symbol>
    <symbol id="icon-bullet-very-curvly-line" viewBox="0 0 512 512">
        <path d="M 0,0 C -16.906188,39.708082 -25.191911,72.617968 2.5447338,94.428263 24.738014,111.87962 48.045278,96.573722 70.214113,72.721235 94.093519,47.028266 192.70217,54.676048 194.03746,163.11544 c 0.77557,62.98419 13.40856,195.08913 115.83603,135.65776 153.06981,-88.81551 180.93385,-89.04117 237.57099,-60.84693 145.29642,72.32927 -7.60387,266.65696 -32.52296,274.07367" />
    </symbol>
    <symbol id="icon-bullet-line-small-curve-left" viewBox="0 0 512 512">
        <path d="M 0,0 C 197.53945,128.438 371.68812,293.63296 512,512" />
    </symbol>
    <symbol id="icon-bullet-line-small-curve-right" viewBox="0 0 512 512">
        <path d="M 0,0 C 127.67603,207.49399 286.42176,390.11858 512,512" />
    </symbol>
    <symbol id="icon-bullet-small-spiral" viewBox="0 0 512 512">
        <path d="M 0,0 C 107.40303,0.33126175 98.477355,129.30287 0,128 -211.21944,125.20554 -207.75498,-171.18391 3.0681244,-170.09252 450.0848,-167.7784 445.43354,373.13786 1.5340622,374.49956" />
    </symbol>
    <symbol id="icon-bullet-cercle" viewBox="0 0 512 512">
        <path d="m 1.5332031,-258.59961 c -140.9059731,0 -255.1542931,114.24831 -255.1542931,255.1542975 0,140.9059825 114.24832,255.1542925 255.1542931,255.1542925 C 142.43918,251.70898 256.6875,137.46067 256.6875,-3.4453125 256.6875,-144.3513 142.43918,-258.59961 1.5332031,-258.59961 Z" />
    </symbol>
    <symbol id="icon-bullet-cercle-sinus" viewBox="0 0 512 512">
        <path d="m 1.5332031,-258.59961 c -36.6849321,0 -55.2917591,38.1169 -86.8171271,52.05921 -31.776416,14.05334 -76.417756,4.0312 -99.798716,29.09639 -21.68862,23.25096 -6.54177,61.40605 -18.3807,91.506859 -11.37046,28.909721 -50.15775,49.548485 -50.15775,82.4918385 0,36.0006165 41.08492,58.3288935 54.5397,89.3884095 13.88246,32.046813 0.5221,72.618133 25.56853,96.244943 23.16727,21.85415 65.61035,9.04702 95.686503,21.0545 29.239452,11.67344 45.957279,48.46644 79.3595601,48.46644 34.6706829,0 59.0494569,-31.86612 89.1874179,-44.39522 32.397139,-13.46829 70.099469,-8.47248 94.130239,-33.29005 22.28494,-23.01458 14.2416,-62.14449 26.64517,-92.232722 12.34674,-29.950377 45.19147,-50.832648 45.19147,-85.2363005 0,-33.2760575 -32.40559,-55.3026905 -43.99534,-84.4516955 -12.10615,-30.447762 -3.8718,-67.777372 -26.04997,-91.148602 -22.82439,-24.05221 -63.30322,-19.79628 -93.969481,-33.52793 -31.804967,-14.24152 -54.039755,-46.02607 -91.1395059,-46.02607 z" />
    </symbol>
    <symbol id="icon-bullet-cercle-sinus-2" viewBox="0 0 512 512">
        <path d="m 1.5332031,-258.59961 c -36.6849321,0 -84.5798951,-21.54412 -116.1052631,-7.60181 -31.77642,14.05334 -47.12962,63.69222 -70.51058,88.75741 -21.68862,23.25096 -68.37228,39.71113 -80.21121,69.81194 -11.37046,28.909725 11.67276,71.243404 11.67276,104.1867575 0,36.0006165 -26.16932,87.6170295 -12.71454,118.6765425 13.88246,32.04682 67.77634,43.33 92.82277,66.95681 23.16727,21.85415 36.32221,65.4538 66.39837,77.46128 29.239449,11.67344 75.245412,-7.94034 108.6476931,-7.94034 34.6706829,0 89.4223389,20.20168 119.5602969,7.67258 32.39714,-13.46829 39.72659,-60.54028 63.75736,-85.35785 22.28494,-23.01458 73.90262,-26.34788 86.30619,-56.43611 C 283.50379,87.637222 256.6875,30.95834 256.6875,-3.4453125 c 0,-33.2760575 25.08594,-76.9976055 13.49619,-106.1466075 -12.10615,-30.44777 -61.36333,-46.08246 -83.5415,-69.45369 -22.82439,-24.05221 -24.25237,-72.94882 -54.91863,-86.68047 -31.80497,-14.24152 -93.090606,7.12647 -130.1903569,7.12647 z" />
    </symbol>
    <symbol id="icon-bullet-cercle-cast" viewBox="0 0 512 512">
        <path d="M 6.5668626,-172.94133 C 117.04253,-171.91789 187.0408,-81.207009 187.01767,-0.12243956 186.99289,86.742459 103.13342,180.98399 -0.35676331,179.53123 -99.56402,178.13859 -171.68227,84.050878 -171.04794,2.6913598 -170.14463,-113.16816 -72.279437,-169.50423 6.1362453,-171.80822 104.81509,-174.70758 166.34716,-100.65138 187.59784,-50.799183 207.77707,-3.4605074 208.53637,50.532906 202.56478,140.93973 197.24374,221.4976 246.24604,242.2006 294.52866,252.39434 536.71886,303.5271 632.20544,33.547066 850.20733,111.49626 1322.9064,280.51547 103.98927,1002.1995 105.22034,1005.5593" />
    </symbol>
    <symbol id="icon-bullet-spiral-cast-line" viewBox="0 0 512 512">
        <path d="m 3.0681243,1.1572945 c 3.9226874,-2e-7 1.9353159,5.2877043 3e-7,6.5197645 C -2.1764609,11.015866 -8.3635064,6.2086559 -9.9714048,1.1572951 -12.847558,-7.8784043 -5.5477882,-16.573645 3.0681234,-18.401999 15.71232,-21.085182 27.210704,-11.009954 29.147182,1.1572933 31.728203,17.37432 18.785541,31.754913 3.0681258,33.756117 -16.710637,36.274428 -34.006076,20.425182 -36.050463,1.1572964 -38.52649,-22.178695 -19.750577,-42.405794 3.0681221,-44.481057 29.959169,-46.926683 53.127801,-25.212462 55.226241,1.157292 57.648972,31.602216 32.989095,57.718698 3.0681271,59.835175 -30.929979,62.240051 -59.998607,34.629585 -62.129521,1.1572976 -64.520084,-36.39355 -33.955556,-68.417386 3.0681209,-70.560115 17.35088,-71.386724 61.0643,-71.237308 109.36067,-35.458562 176.76608,14.476469 100.9614,191.0534 169.96353,273.31835 341.92082,478.32735 507.99111,501.05886 512,512" />
    </symbol>
    <symbol id="icon-bullet-spiral-cast-line-2" viewBox="0 0 512 512">
        <path d="m 11.749104,2.6913567 c 4.153433,1.4767799 4.039827,-4.8701526 2.454506,-6.9032776 -4.2961233,-5.509643 -12.6568873,-2.7489032 -16.2610603,1.9942668 -6.44702,8.4844184 -1.991365,20.4392961 6.443039,25.6188431 12.3778263,7.601195 28.3456173,1.262123 34.9766263,-10.891811 8.838092,-16.1992828 0.547984,-36.29833 -15.340584,-44.334409 -19.9941403,-10.112585 -44.273739,0.157725 -53.692191,19.789355 -11.407009,23.776535 0.858438,52.262051 24.2381267,63.049975 C 22.119722,63.727495 54.82599,49.458303 66.975325,22.3274 81.002213,-8.996302 64.723874,-45.932776 33.839653,-59.438141 17.01521,-66.795304 -36.335002,-64.240691 -49.188003,-26.639957 -87.481573,85.385736 -46.975905,161.47832 12.134241,252.73025 75.1229,349.96967 262.12298,433.65144 332.86564,465.26064 c 132.94853,59.40402 183.56014,43.23228 182.05588,46.7393" />
    </symbol>
    <symbol id="icon-bullet-cast-angle-1" viewBox="0 0 512 512">
        <path d="m 0,0 c 150.30659,-50.801587 550.20493,-19.092338 550.20493,-19.092338 0,0 -125.23428,340.079328 -35.28341,531.092278" />
    </symbol>
    <symbol id="icon-bullet-cast-angle-2" viewBox="0 0 512 512">
        <path d="m 0,0 c -44.519305,142.49025 -15.86401,531.63598 -15.86401,531.63598 0,0 341.12062,-98.66245 530.78553,-19.63604" />
    </symbol>
    <symbol id="icon-bullet-cast-angle-3" viewBox="0 0 512 512">
        <path d="m 0,0 c 157.9769,-27.790654 485.77432,43.804211 485.77432,43.804211 0,0 -77.67835,310.932149 29.1472,468.195729" />
    </symbol>
    <symbol id="icon-bullet-cast-angle-4" viewBox="0 0 512 512">
        <path d="m 0,0 c -44.519305,142.49025 63.907223,476.40975 63.907223,476.40975 0,0 261.349387,-43.43622 451.014297,35.59019" />
    </symbol>
    <symbol id="icon-bullet-cast-2-spirals" viewBox="0 0 512 512">
        <path d="M 1.072238,0.76002176 C -18.69944,8.2114826 -16.361539,-16.824049 -2.4230577,-22.171252 10.751948,-27.225564 25.438399,-15.031036 22.869381,2.9941005 19.429293,27.130968 -18.083739,47.762534 -34.529273,13.615748 -55.945817,-30.852624 -14.182591,-61.582784 12.176902,-58.780858 42.47179,-55.560612 57.925534,-43.268066 64.663701,-7.0861991 68.610716,14.108042 54.758544,62.970147 0.8546103,71.375918 -36.507591,77.202173 -79.636793,57.247942 -85.754413,2.79844 -92.776634,-59.702405 -47.446117,-113.4338 17.349642,-116.67467 79.749114,-119.79568 136.33369,-34.116084 119.53992,19.095116 70.092889,175.76848 -54.698054,330.41772 97.656591,504.02287 250.01124,677.62803 483.8526,645.30145 537.2287,629.47685 c 53.37609,-15.82459 88.07376,-36.80313 90.22385,-108.96386 1.63118,-54.74548 -30.86908,-100.29864 -106.40301,-100.84118 -47.49003,-0.3411 -91.05537,50.10655 -92.05173,94.37906 -0.91754,40.77044 40.66504,73.62997 84.63405,66.78728 55.75041,-8.67617 75.21249,-48.28227 49.17355,-89.20884 -19.85752,-31.21094 -52.20883,-27.69796 -73.2969,-8.67686 -34.6056,31.21367 -8.14707,59.90759 23.62672,58.45438 38.08819,-1.74199 22.49222,-47.99899 -1.14912,-29.43831" />
    </symbol>
    <symbol id="icon-bullet-cast-2-spirals-2" viewBox="0 0 512 512">
        <path d="M 1.072238,0.76002176 C -18.69944,8.2114826 -16.361539,-16.824049 -2.4230577,-22.171252 10.751948,-27.225564 25.438399,-15.031036 22.869381,2.9941005 19.429293,27.130968 -18.083739,47.762534 -34.529273,13.615748 -55.945817,-30.852624 -14.182591,-61.582784 12.176902,-58.780858 42.47179,-55.560612 57.925534,-43.268066 64.663701,-7.0861991 68.610716,14.108042 54.758544,62.970147 0.8546103,71.375918 -36.507591,77.202173 -79.636793,57.247942 -85.754413,2.79844 -92.776634,-59.702405 -47.446117,-113.4338 17.349642,-116.67467 79.749114,-119.79568 136.33369,-34.116084 119.53992,19.095116 70.092889,175.76848 -149.80991,264.45304 60.839099,527.03381 271.48811,789.61457 483.8526,645.30145 537.2287,629.47685 c 53.37609,-15.82459 88.07376,-36.80313 90.22385,-108.96386 1.63118,-54.74548 -30.86908,-100.29864 -106.40301,-100.84118 -47.49003,-0.3411 -91.05537,50.10655 -92.05173,94.37906 -0.91754,40.77044 40.66504,73.62997 84.63405,66.78728 55.75041,-8.67617 75.21249,-48.28227 49.17355,-89.20884 -19.85752,-31.21094 -52.20883,-27.69796 -73.2969,-8.67686 -34.6056,31.21367 -8.14707,59.90759 23.62672,58.45438 38.08819,-1.74199 22.49222,-47.99899 -1.14912,-29.43831" />
    </symbol>
    <symbol id="icon-bullet-cast-cercle-star" viewBox="0 0 512 512">
        <path d="M 1.072238,0.76002176 C -319.3127,305.27903 129.93266,861.89308 515.11536,514.13091 c 3.95063,-8.27062 -99.57076,-33.52076 -107.97562,-37.95429 4.33555,0.15299 83.20944,1.20229 83.20944,1.20229 l 22.15698,-53.91946 22.24115,51.4733 76.88149,1.09193 -58.72489,41.99425 23.53108,59.29702 -60.19203,-35.07349 -62.58127,36.63023 27.14367,-60.89334 -73.33022,-41.32952 c 0,0 67.08054,15.80137 108.65168,36.75489 C 850.97718,220.09958 398.82318,-344.79848 -2.1833845,4.3075001" />
    </symbol>
    <symbol id="icon-bullet-cast-2-segments" viewBox="0 0 512 512">
        <path d="M -0.3687677,44.070023 C 15.602738,45.374156 37.62835,29.965706 43.099887,1.0711326 54.572215,-59.512948 148.06731,-40.331995 148.06731,-40.331995 c 0,0 -51.808384,18.960721 -51.433633,32.7510289 C 97.510442,24.682678 150.1877,62.061285 173.6361,51.365373 203.27949,37.843639 267.40609,28.74698 267.40609,28.74698 224.72824,38.136109 163.9541,-63.665059 235.43586,-70.559887 c 45.1493,-4.35491 70.76225,40.458819 71.02439,70.95299186 C 307.969,175.90536 166.27173,315.30216 -0.47236697,315.17824" />
    </symbol>
    <symbol id="icon-bullet-cast-middle-half-cercle" viewBox="0 0 512 512">
        <path d="m 0,0 197.71419,197.71419 c 0,0 59.21453,-55.75724 119.03157,2.96378 49.98765,60.66028 -3.24947,112.80879 -3.24947,112.80879 0,0 112.76118,112.32195 198.50371,198.51324" />
    </symbol>
    <symbol id="icon-bullet-cast-middle-only-cercle" viewBox="0 0 512 512">
        <path d="m 314.16879,313.41962 c -88.60169,79.86191 -192.64235,-46.98539 -116.4546,-115.70543 0,0 59.21453,-55.75724 119.03157,2.96378 49.98765,60.66028 -3.24947,112.80879 -3.24947,112.80879" />
    </symbol>

    <symbol id="icon-cercle" viewBox="0 0 512 512">
        <path d="m 1.5332031,-258.59961 c -140.9059731,0 -255.1542931,114.24831 -255.1542931,255.1542975 0,140.9059825 114.24832,255.1542925 255.1542931,255.1542925 C 142.43918,251.70898 256.6875,137.46067 256.6875,-3.4453125 256.6875,-144.3513 142.43918,-258.59961 1.5332031,-258.59961 Z" />
    </symbol>
    <symbol id="icon-bullet-lightning" viewBox="0 0 512 512">
        <path d="m 0,0 c 71.969582,126.80593 143.07348,228.00059 224.14862,344.43457 47.192,-136.1335 0,0 47.192,-136.1335 C 512,512 271.34062,208.30107 512,512" />
    </symbol>
    <symbol id="icon-bullet-lightning-2" viewBox="0 0 512 512">
        <path d="m 0,0 c 202.83067,267.8711 0,0 202.83067,267.8711 21.75606,-81.99434 0,0 21.75606,-81.99434 108.4803,204.57968 0,0 108.4803,204.57968 16.51076,-83.97539 0,0 16.51076,-83.97539 C 512,512 349.57779,306.48105 512,512" />
    </symbol>


    <symbol id="icon-sinusoidal-beam-simple" viewBox="0 0 512 512">
        <path d="m 500,256 c -488,0 0,0 -488,0 0,0 27.191158,41.3247 50.852819,41.41968 55.237751,0.22173 44.920851,-75.59472 96.011201,-75.77784 63.34757,-0.22705 32.08652,74.0539 90.77811,74.31115 54.26321,0.23784 59.48127,-74.14031 98.51779,-74.33956 49.65237,-0.25344 53.63692,75.93294 93.31695,75.80625 C 469.08108,297.33155 479.18685,281.63799 500,256 Z" />
    </symbol>
    <symbol id="icon-sinusoidal-line" viewBox="0 0 512 512">
        <path d="m 0,0 c 45.006284,45.698812 93.458171,9.3587412 136.53153,56.888145 45.97403,50.730145 -68.699219,111.031795 -24.73337,167.204375 47.06585,60.13328 144.08818,-33.75159 186.78006,13.82121 42.30758,47.14456 -38.26112,117.27621 7.93727,158.9229 43.00879,38.77135 120.54727,-62.21598 172.57832,-10.74917 C 523.47654,429.98891 473.92447,471.2591 512,512" />
    </symbol>

</svg>
